<svg id="Layer_2" data-name="Layer 2" xmlns="http://www.w3.org/2000/svg" viewBox="0 0 612 303"><defs><style>.cls-1,.cls-2,.cls-6{fill:#fff;}.cls-1{opacity:0.41;}.cls-111,.cls-112,.cls-118,.cls-2{stroke:#000;}.cls-111,.cls-112,.cls-113,.cls-114,.cls-115,.cls-116,.cls-118,.cls-121,.cls-2,.cls-3{stroke-miterlimit:10;}.cls-2{stroke-width:2px;}.cls-3,.cls-4{fill:#231f20;opacity:0.29;}.cls-3{stroke:#fff;}.cls-5{fill:#69bd45;}.cls-7{fill:#3a78ae;}.cls-8{fill:#3977ab;}.cls-9{fill:#3978ac;}.cls-10{fill:#6089b8;}.cls-11{fill:#7898c1;}.cls-12{fill:#7495c0;}.cls-13{fill:#8ba4c9;}.cls-14{fill:#8aa3c9;}.cls-15{fill:#ffd444;}.cls-16{fill:#3973a6;}.cls-17{fill:#ffd94b;}.cls-18{fill:#ffcf3e;}.cls-19{fill:#3871a1;}.cls-20{fill:#ffd242;}.cls-21{fill:#ffd647;}.cls-22{fill:#3972a3;}.cls-23{fill:#fedc4f;}.cls-24{fill:#3873a4;}.cls-25{fill:#ffd749;}.cls-26{fill:#3876aa;}.cls-27{fill:#39709f;}.cls-28{fill:#ffcd3b;}.cls-29{fill:#3975a8;}.cls-30{fill:#ffcc3a;}.cls-31{fill:#386e9c;}.cls-32{fill:#ffd040;}.cls-33{fill:#386d9a;}.cls-34{fill:#ffcf3d;}.cls-35{fill:#376c98;}.cls-36{fill:#ffd241;}.cls-37{fill:#ffca38;}.cls-38{fill:#fede52;}.cls-39{fill:#ffd84b;}.cls-40{fill:#386b96;}.cls-41{fill:#3b7bb2;}.cls-42{fill:#3a79ae;}.cls-43{fill:#ffce3d;}.cls-44{fill:#070909;}.cls-45{fill:#74cddd;}.cls-46{fill:#74cddc;}.cls-47{fill:#f6d3a2;}.cls-48{fill:#f6d3a3;}.cls-49{fill:#f6d2a2;}.cls-50{fill:#81d1e3;}.cls-51{fill:#7ed0e1;}.cls-52{fill:#7fd1e2;}.cls-53{fill:#07090a;}.cls-54{fill:#232020;}.cls-55{fill:#080a0a;}.cls-56{fill:#080b0b;}.cls-57{fill:#fcfcfc;}.cls-58{fill:#fbfafa;}.cls-59{fill:#090b0c;}.cls-60{fill:#080a0b;}.cls-61{fill:#ebeae9;}.cls-62{fill:#f1f0f0;}.cls-63{fill:#2caa78;}.cls-64{fill:#54c1de;}.cls-65{fill:#e67125;}.cls-66{fill:#5482a2;}.cls-67{fill:#5b84a3;}.cls-68{fill:#839fb8;}.cls-69{fill:#6f90ad;}.cls-70{fill:#689ad2;}.cls-71{fill:#1a4780;}.cls-72{fill:#025a9d;}.cls-73{fill:#174990;}.cls-74{fill:#7295ba;}.cls-75{fill:#7695b5;}.cls-76{fill:#7aa2ce;}.cls-77{fill:#6894c2;}.cls-78{fill:#163258;}.cls-79{fill:#173258;}.cls-80{fill:#325278;}.cls-81{fill:#295585;}.cls-82{fill:#255284;}.cls-83{fill:#1b406f;}.cls-84{fill:#223c75;}.cls-85{fill:#37577d;}.cls-86{fill:#fdfdfe;}.cls-87{fill:#fdfefe;}.cls-88{fill:#104d94;}.cls-89{fill:#02569d;}.cls-90{fill:#055197;}.cls-91{fill:#02549b;}.cls-92{fill:#01549a;}.cls-93{fill:#00539a;}.cls-94{fill:#154983;}.cls-95{fill:#225682;}.cls-96{fill:#0c4f95;}.cls-97{fill:#025596;}.cls-98{fill:#134a81;}.cls-99{fill:#144c92;}.cls-100{fill:#225782;}.cls-101{fill:#134c93;}.cls-102{fill:#144c93;}.cls-103{fill:#7da2c9;}.cls-104{fill:#1c4072;}.cls-105{fill:#233871;}.cls-106{fill:#6493c6;}.cls-107{fill:#5993ce;}.cls-108{fill:#5f6bb2;}.cls-109{fill:#414da1;}.cls-110{fill:#2a3a91;}.cls-111,.cls-118{fill:#6aa6da;}.cls-111,.cls-112,.cls-113,.cls-114,.cls-115{stroke-width:0.5px;}.cls-112,.cls-113{fill:none;}.cls-113,.cls-114{stroke:#231f20;}.cls-114{fill:#f68c35;}.cls-115,.cls-116,.cls-120,.cls-121{fill:#fbc1a4;}.cls-115,.cls-116,.cls-121{stroke:#070808;}.cls-116{stroke-width:0.25px;}.cls-117{fill:#f79d7d;}.cls-118{stroke-width:7px;}.cls-119{fill:#070808;}.cls-122{fill:#151314;}</style></defs><rect width="612" height="303"/><polyline class="cls-1" points="375.41 286.46 463.44 0.54 556.41 0.09 603.58 286.46"/><ellipse class="cls-2" cx="489.49" cy="286.46" rx="114.08" ry="10.68"/><ellipse class="cls-3" cx="527.65" cy="284.82" rx="39.1" ry="3.78"/><ellipse class="cls-4" cx="470.59" cy="288.96" rx="7.67" ry="1.25"/><ellipse class="cls-4" cx="423.02" cy="284.32" rx="8.73" ry="1.25"/><rect class="cls-5" x="461.05" y="259.62" width="19.6" height="19.6"/><rect class="cls-5" x="463.66" y="277.24" width="4.31" height="11.98" rx="2.15"/><rect class="cls-5" x="455.77" y="751.02" width="4.31" height="11.98" rx="2.15" transform="translate(915.81 1025.11) rotate(-180)"/><rect class="cls-5" x="473.69" y="277.24" width="4.31" height="11.98" rx="2.15"/><rect class="cls-5" x="484.16" y="744.41" width="4.31" height="11.98" rx="2.15" transform="translate(299.53 1135.98) rotate(-135)"/><path class="cls-5" d="M480.79,747.69H461a9.9,9.9,0,0,1,19.8,0Z" transform="translate(-0.05 -488.9)"/><circle class="cls-6" cx="466.89" cy="253.83" r="1.08"/><circle class="cls-6" cx="474.77" cy="253.83" r="1.08"/><rect class="cls-5" x="464.06" y="734.07" width="0.57" height="6.31" rx="0.29" transform="translate(-306.45 -157.96) rotate(-30)"/><rect class="cls-5" x="477.05" y="734.07" width="0.57" height="6.31" rx="0.29" transform="translate(432.52 -628.8) rotate(30)"/><path class="cls-7" d="M407.14,705.39h1.72c0,.15-.1.2-.17.28-1.09,1.09-2.19,2.16-3.26,3.27-.6.62-1.2,1.23-1.81,1.84-.07.07-.12.19-.26.15a.41.41,0,0,1,0-.11c0-.08,0-.18,0-.26v-.38a6.07,6.07,0,0,0,.13-.87l.06-.24a1.93,1.93,0,0,1,.35-.46l3.07-3.07A.43.43,0,0,1,407.14,705.39Z" transform="translate(-0.05 -488.9)"/><path class="cls-8" d="M412.12,704.55h-1.26c0-.09.05-.14.1-.2.3-.32.59-.65.91-1a3.76,3.76,0,0,0,.25-.31,1.27,1.27,0,0,0,.9-.93,1.86,1.86,0,0,0,.27-.22l2.4-2.4c.11-.11.19-.23.29-.33h.28a1.67,1.67,0,0,0,.55.08c.11,0,.22,0,.33.06s-.1.24-.2.34c-1.17,1.18-2.36,2.35-3.52,3.53C413,703.67,412.57,704.13,412.12,704.55Z" transform="translate(-0.05 -488.9)"/><path class="cls-9" d="M409.19,705.39h.7c.07.15-.07.21-.14.28-.74.75-1.49,1.47-2.21,2.23-1.26,1.33-2.58,2.6-3.87,3.9-.08.08-.15.22-.3.15h0v-.32a1,1,0,0,0,0-.3.15.15,0,0,1,0-.07,18.91,18.91,0,0,0,1.68-1.67c.18-.2.38-.39.57-.58l2.89-2.89A9.47,9.47,0,0,0,409.19,705.39Z" transform="translate(-0.05 -488.9)"/><path class="cls-7" d="M413.1,699.35l.79-.1c.06,0,.14,0,.18,0h.42a1.08,1.08,0,0,0,.31,0h.1c.06.09,0,.14-.07.19-.6.67-1.24,1.29-1.88,1.93a.21.21,0,0,1-.15.09,1.42,1.42,0,0,0-.81-.35,2.78,2.78,0,0,0-.64.19c-.13,0-.07-.12,0-.18a3,3,0,0,1,.31-.31c.45-.46.92-.91,1.36-1.38Z" transform="translate(-0.05 -488.9)"/><path class="cls-9" d="M412.82,701.43l1.05-1.07c.35-.36.69-.74,1-1.11a2.72,2.72,0,0,1,.57,0,1.06,1.06,0,0,0,.31,0H416a.51.51,0,0,1-.17.29l-2.56,2.55c-.06.06-.11.14-.21.13A4.63,4.63,0,0,1,412.82,701.43Z" transform="translate(-0.05 -488.9)"/><path class="cls-10" d="M415.52,699.25h-.7s0,0,0,0h.72s0,0,0,0Z" transform="translate(-0.05 -488.9)"/><path class="cls-11" d="M403.38,711.25v0s0,0,0,0v-.46s0,0,0,0v.1A.26.26,0,0,1,403.38,711.25Z" transform="translate(-0.05 -488.9)"/><path class="cls-12" d="M414.82,699.21v0c-.11,0-.23,0-.33,0Z" transform="translate(-0.05 -488.9)"/><path class="cls-13" d="M403.33,711.3h0c0,.11.05.23,0,.33Z" transform="translate(-0.05 -488.9)"/><path class="cls-12" d="M415.52,699.25v0h.27C415.71,699.29,415.61,699.24,415.52,699.25Z" transform="translate(-0.05 -488.9)"/><path class="cls-14" d="M403.37,710.83h0v-.28C403.41,710.64,403.36,710.74,403.37,710.83Z" transform="translate(-0.05 -488.9)"/><path class="cls-15" d="M412,722.51a3.72,3.72,0,0,1-1.63-.83c0-.12.06-.17.13-.23.75-.76,1.47-1.55,2.21-2.32l2.51-2.65,2.47-2.61c.75-.79,1.51-1.58,2.25-2.39a3.24,3.24,0,0,0,.47-.57,3.44,3.44,0,0,0,.83-.87c.19-.09.29-.28.43-.42.77-.76,1.49-1.56,2.24-2.34.41-.43.84-.86,1.23-1.32.07-.07.12-.16.25-.14a3.39,3.39,0,0,1,1.06,1.39,1.59,1.59,0,0,1-.33.44l-.88.92c-.74.76-1.45,1.53-2.18,2.29l-3,3.18c-.79.83-1.58,1.68-2.38,2.51a.28.28,0,0,0-.08.14c.56,0,1.1,0,1.64,0h4.05c.16,0,.33,0,.48.08a.67.67,0,0,1-.34,0h-8c-.2,0-.27,0-.27.25,0,.56,0,.56.56.56h5c.08,0,.17,0,.24,0a.3.3,0,0,1-.24.06h-3.2a1.43,1.43,0,0,0-1.44.52c-.86,1-1.8,1.92-2.7,2.88-.39.41-.81.81-1.18,1.25A.37.37,0,0,1,412,722.51Z" transform="translate(-0.05 -488.9)"/><path class="cls-16" d="M413,705.39h1.82c.07.14-.06.2-.12.27l-1.55,1.54c-.62.62-1.25,1.23-1.85,1.86-1.73,1.82-3.55,3.56-5.3,5.36l-1.2,1.23a.45.45,0,0,1-.22.16,3.74,3.74,0,0,1-.69-1.25c.34-.36.67-.73,1-1.08,1.5-1.51,3-3,4.52-4.54,1.09-1.12,2.2-2.21,3.29-3.32A1.27,1.27,0,0,1,413,705.39Z" transform="translate(-0.05 -488.9)"/><path class="cls-17" d="M415,711.44h2.46a.18.18,0,0,1-.07.21c-.12.13-.22.28-.35.41-.74.73-1.43,1.5-2.15,2.25s-1.65,1.74-2.47,2.61-1.73,1.84-2.61,2.75c-.07.07-.13.16-.25.1v-2.61c.27-.28.53-.58.81-.86.72-.73,1.4-1.48,2.11-2.22s1.55-1.65,2.33-2.46Z" transform="translate(-0.05 -488.9)"/><path class="cls-18" d="M421.56,716.74h-2.37c-.06-.08,0-.13,0-.18s.21-.25.32-.37c.76-.76,1.49-1.55,2.23-2.33,1-1.07,2-2.15,3-3.22.52-.55,1-1.12,1.56-1.65a4.64,4.64,0,0,1,.36-.4c.1-.08.18-.09.21.06a9.28,9.28,0,0,1,.23,2.23,1.64,1.64,0,0,0-.49.42c-.3.39-.67.72-1,1.09l-1.23,1.3c-.91.94-1.79,1.9-2.71,2.84A1.18,1.18,0,0,1,421.56,716.74Z" transform="translate(-0.05 -488.9)"/><path class="cls-19" d="M420.68,701.11a2.17,2.17,0,0,1,.33,1.49.88.88,0,0,1-.19.24c-1.91,1.89-3.76,3.84-5.68,5.73L414,709.7c-.28.29-.54.6-.83.88-.08.07-.14.15-.26.14-.42,0-.84,0-1.26,0l-.47.06c-.12,0-.07-.07-.05-.12a.77.77,0,0,1,.17-.19c1.66-1.72,3.38-3.39,5-5.11,1.34-1.37,2.71-2.71,4-4.08C420.48,701.22,420.53,701.1,420.68,701.11Z" transform="translate(-0.05 -488.9)"/><path class="cls-20" d="M427,708.65c-.06-.09-.12-.09-.2,0-.6.66-1.21,1.31-1.82,2-.28.3-.58.58-.85.89s-.76.79-1.14,1.19c-.84.91-1.7,1.81-2.56,2.71-.36.39-.76.74-1.09,1.17,0,0-.1.09-.1.17H417.7c-.05,0-.13,0-.16,0s0-.09.08-.13c.43-.44.86-.88,1.27-1.32.6-.64,1.2-1.27,1.81-1.9l1.51-1.61c.74-.8,1.5-1.6,2.25-2.39.53-.56,1-1.13,1.58-1.67a3.94,3.94,0,0,1,.44-.47A4.87,4.87,0,0,1,427,708.65Z" transform="translate(-0.05 -488.9)"/><path class="cls-21" d="M420.44,710.91a.21.21,0,0,1-.07.21c-.41.44-.81.88-1.22,1.31-.67.71-1.35,1.4-2,2.12l-1.6,1.68-1.7,1.8c-.55.58-1.09,1.17-1.65,1.74s-1.2,1.27-1.79,1.91a1.84,1.84,0,0,1-.56-.65.14.14,0,0,1,0-.19c.13-.13.24-.29.37-.42.48-.46.92-1,1.38-1.44l2.54-2.68c.53-.55,1.05-1.11,1.58-1.67l2.57-2.71a2.28,2.28,0,0,1,.5-.48h0c.08-.05.16,0,.24,0h.19c.09.12.13,0,.18,0A5.15,5.15,0,0,0,420.44,710.91Z" transform="translate(-0.05 -488.9)"/><path class="cls-22" d="M420.68,701.11l-.19.17c-.88.87-1.76,1.74-2.62,2.62-1.65,1.7-3.35,3.37-5,5.07-.54.55-1.08,1.09-1.61,1.64,0,0-.16.08-.06.18a3.27,3.27,0,0,0-1.53.82,2.85,2.85,0,0,0-.75,1.33l0,.08a2.31,2.31,0,0,1-.14.19c-1.09,1.09-2.15,2.22-3.25,3.3l-.06,0a1.26,1.26,0,0,1-.47-.35c-.06-.16.07-.23.15-.31.89-.89,1.8-1.76,2.66-2.67,1.68-1.75,3.44-3.42,5.12-5.16,1.48-1.54,3-3,4.5-4.55.88-.92,1.79-1.8,2.68-2.71.07-.07.12-.19.26-.16A1.26,1.26,0,0,1,420.68,701.11Z" transform="translate(-0.05 -488.9)"/><path class="cls-23" d="M415,711.44a.24.24,0,0,1-.09.16l-1.24,1.29L411,715.63c-.43.46-.86.93-1.3,1.39-.05.06-.1.14-.2.14V714.6c.19-.22.39-.44.6-.64.72-.74,1.4-1.52,2.14-2.25.09-.08.14-.19.23-.26Z" transform="translate(-0.05 -488.9)"/><path class="cls-24" d="M420.32,700.64a3.77,3.77,0,0,0-.46.43c-.64.64-1.3,1.27-1.92,1.93-1.53,1.61-3.16,3.14-4.7,4.75s-3.4,3.37-5.05,5.1c-1,1.06-2.08,2.08-3.11,3.14-.06.06-.13.11-.13.21a1.71,1.71,0,0,1-.37-.39l.12-.14c2-2,4-4,5.95-6,1.34-1.37,2.71-2.71,4.05-4.08.05-.05.12-.1.12-.19h.44c.1-.13,0-.27,0-.4a.35.35,0,0,1,.1-.25c1.43-1.4,2.84-2.83,4.26-4.25.08-.07.13-.18.26-.17A1.26,1.26,0,0,1,420.32,700.64Z" transform="translate(-0.05 -488.9)"/><path class="cls-25" d="M409.52,719.77c.15,0,.2-.14.28-.22.49-.5,1-1,1.45-1.5l1.71-1.81c.54-.56,1.07-1.13,1.61-1.7s1.1-1.15,1.64-1.73c.36-.4.76-.75,1.08-1.17a1.37,1.37,0,0,0,.13-.2h1.21a.1.1,0,0,1,0,.16c-.12.11-.2.26-.32.37-.49.46-.93,1-1.39,1.46l-1.71,1.79-1.59,1.69-1.72,1.81c-.54.57-1.06,1.15-1.61,1.7a3.38,3.38,0,0,1-.31.35c-.06.05-.11.14-.21.07A1.73,1.73,0,0,1,409.52,719.77Z" transform="translate(-0.05 -488.9)"/><path class="cls-26" d="M411.05,705.39h1.26c0,.17-.11.25-.2.34l-2.78,2.78L407.86,710c-.3.3-.56.64-.87.94l-2.92,2.92c-.1.1-.18.25-.37.18a3.6,3.6,0,0,1-.19-.91c-.05-.1,0-.15.07-.2,1.48-1.46,2.95-2.91,4.39-4.39l2.89-2.93Z" transform="translate(-0.05 -488.9)"/><path class="cls-27" d="M413,710.69c.3-.34.62-.67.94-1,1.35-1.37,2.73-2.71,4.07-4.09.92-1,1.87-1.89,2.8-2.84l.2-.17v1.3a1.12,1.12,0,0,1-.19.24c-1.7,1.76-3.44,3.47-5.15,5.21-.4.4-.78.82-1.18,1.22-.08.07-.15.16-.28.15h-1A.34.34,0,0,1,413,710.69Z" transform="translate(-0.05 -488.9)"/><path class="cls-28" d="M421.56,716.74a.38.38,0,0,1,.13-.24c.34-.34.68-.7,1-1,.7-.75,1.43-1.48,2.13-2.23.52-.57,1.05-1.13,1.59-1.69.17-.17.33-.36.5-.54a.29.29,0,0,1,.26-.11,8.38,8.38,0,0,1-.13,2,1.33,1.33,0,0,0-.41.44l-.05.07c-.47.39-.81.9-1.27,1.29a1.12,1.12,0,0,0-.3.35.31.31,0,0,1-.07.09c-.49.39-.81,1-1.31,1.34-.12.08-.18.21-.31.28Z" transform="translate(-0.05 -488.9)"/><path class="cls-29" d="M412.12,704.55c0-.09.07-.13.12-.19,1.54-1.6,3.11-3.15,4.68-4.72a.77.77,0,0,0,.22-.29,5.74,5.74,0,0,1,1.59.36c-.06.13-.19.2-.29.29l-3.93,3.94a5.58,5.58,0,0,1-.58.61Z" transform="translate(-0.05 -488.9)"/><path class="cls-16" d="M413.93,704.55a2.17,2.17,0,0,1,.47-.57l4.07-4.08a.79.79,0,0,1,.26-.19,4,4,0,0,1,1,.47c.07,0,.15.06.17.14l-.58.57-3.94,3.93c-.08.07-.06.15-.07.23s.06.24-.07.34a5.78,5.78,0,0,0,0-.72c0-.13-.09-.11-.18-.11Z" transform="translate(-0.05 -488.9)"/><path class="cls-8" d="M411.05,705.39c0,.1-.08.15-.14.21l-4.7,4.75L403.56,713a.22.22,0,0,0-.05.11,6.34,6.34,0,0,1-.14-1.14c.09,0,.14-.07.2-.13,1.15-1.15,2.32-2.28,3.44-3.45.9-.94,1.84-1.84,2.74-2.77.06-.06.14-.11.14-.21Z" transform="translate(-0.05 -488.9)"/><path class="cls-30" d="M420.77,717.63H421c0,.18,0,.35,0,.53,0,.71,0,1.43,0,2.14a.37.37,0,0,1,0,.23c-.12-.11,0-.27-.1-.42-.22.21-.43.41-.63.63-.42.47-.85.94-1.3,1.39a2.44,2.44,0,0,0-.35.43,7.64,7.64,0,0,1-2.13.33c-.15.05-.32,0-.47,0h-.24c-.06-.12,0-.18.1-.24.44-.41.83-.89,1.26-1.31a4.38,4.38,0,0,0,.36-.39c.08-.1.16-.2.3-.19a.81.81,0,0,1,.21.1,1,1,0,0,0,1.2-.12,1,1,0,0,0,.14-1.23,1.27,1.27,0,0,1-.13-.22c0-.09,0-.15.08-.2.49-.47.92-1,1.4-1.46Z" transform="translate(-0.05 -488.9)"/><path class="cls-31" d="M414.31,710.69l.09-.11c1.24-1.3,2.53-2.57,3.8-3.85l2.62-2.66a1.62,1.62,0,0,1,.19-.17v1.31a1.65,1.65,0,0,1-.33.42l-2.86,2.86c-.68.68-1.32,1.4-2,2.06-.09.08-.16.18-.29.17h-1C414.45,710.72,414.37,710.75,414.31,710.69Z" transform="translate(-0.05 -488.9)"/><path class="cls-32" d="M417.47,717.63h1.63a.64.64,0,0,1-.26.4c-.47.45-.9.94-1.35,1.41-.89.93-1.77,1.88-2.67,2.81-.21.21-.39.44-.61.64H414c-.09,0-.2,0-.29,0a3.73,3.73,0,0,1-.88-.12c0-.19.15-.29.26-.41.31-.34.63-.66.94-1,.73-.76,1.45-1.53,2.17-2.29A15.5,15.5,0,0,0,417.47,717.63Z" transform="translate(-0.05 -488.9)"/><path class="cls-33" d="M415.61,710.69l.1-.12c1.65-1.71,3.33-3.37,5-5,.11-.11.16-.25.3-.32v1.49a2.43,2.43,0,0,1-.2.25c-.31.3-.6.61-.91.9-.9.87-1.73,1.81-2.64,2.69-.08.08-.16.19-.3.18h-1.13C415.76,710.72,415.68,710.75,415.61,710.69Z" transform="translate(-0.05 -488.9)"/><path class="cls-34" d="M414.21,722.89a3.53,3.53,0,0,1,.61-.72c.77-.82,1.56-1.62,2.33-2.43.55-.59,1.09-1.18,1.65-1.75.11-.11.2-.24.3-.36h1.07c-.05.23-.24.35-.37.51a6.14,6.14,0,0,1-.51.51,2.13,2.13,0,0,0-.36.49,1.7,1.7,0,0,0-.71,0,1,1,0,0,0-.56,1.35c0,.11.16.21.15.35a.25.25,0,0,0-.19.12c-.57.63-1.15,1.24-1.75,1.84a.2.2,0,0,0-.08.14A12,12,0,0,1,414.21,722.89Z" transform="translate(-0.05 -488.9)"/><path class="cls-29" d="M403.7,714a.52.52,0,0,0,.29-.18c1.16-1.16,2.35-2.3,3.48-3.49,1.51-1.58,3.1-3.1,4.63-4.66a1.14,1.14,0,0,0,.21-.28H413a1.46,1.46,0,0,1-.16.19c-.84.84-1.68,1.66-2.5,2.5-1.81,1.89-3.7,3.71-5.53,5.58-.24.25-.47.51-.72.76-.06.06-.1.14-.2.14A2.31,2.31,0,0,1,403.7,714Z" transform="translate(-0.05 -488.9)"/><path class="cls-35" d="M417.05,710.69l0,0,3.83-3.89.1-.06a6.66,6.66,0,0,1-.14,2,.31.31,0,0,1-.05.1l-.06,0c-.54.52-1.05,1.07-1.55,1.62a3,3,0,0,1-1.26.27A3.39,3.39,0,0,1,417.05,710.69Z" transform="translate(-0.05 -488.9)"/><path class="cls-19" d="M405.42,716.55c0-.1.09-.15.14-.2l.79-.79,2.33-2.37a1.62,1.62,0,0,1,.19-.17,9.9,9.9,0,0,0-.15,2,1.42,1.42,0,0,1-.32.42l-1.33,1.33a1,1,0,0,1-.25.2A2.25,2.25,0,0,1,405.42,716.55Z" transform="translate(-0.05 -488.9)"/><path class="cls-36" d="M417.47,717.63a1.18,1.18,0,0,1-.4.55c-.74.79-1.5,1.56-2.24,2.35-.57.61-1.15,1.23-1.74,1.83-.1.11-.19.24-.28.36a3.46,3.46,0,0,1-.78-.21c.17-.19.34-.4.52-.58.46-.49.93-1,1.4-1.46.87-.91,1.73-1.84,2.59-2.76a.26.26,0,0,1,.21-.08Z" transform="translate(-0.05 -488.9)"/><path class="cls-21" d="M425.42,705.82c-.47.43-.88.91-1.31,1.37l-.1.1c-.48.5-1,1-1.44,1.51s-.73.69-1,1.1a.25.25,0,0,1-.27.14,5.8,5.8,0,0,0,.42-1.07c.06,0,0-.11.09-.15s-.07,0,0-.08a2.21,2.21,0,0,1,.05-.51c.25-.25.47-.53.72-.78.62-.62,1.2-1.29,1.82-1.91.08-.08.16-.2.31-.15A2,2,0,0,1,425.42,705.82Z" transform="translate(-0.05 -488.9)"/><path class="cls-37" d="M423.33,716.74a.92.92,0,0,1,.3-.35,2.07,2.07,0,0,0,.55-.59c.11-.19.33-.27.46-.44.37-.48.86-.84,1.21-1.33a2.46,2.46,0,0,1,.44-.41,6.1,6.1,0,0,0,.52-.62c.07-.06.13-.13.24-.12-.07.33-.13.65-.22,1a3.77,3.77,0,0,1-2.15,2.69,2.41,2.41,0,0,1-.87.21Z" transform="translate(-0.05 -488.9)"/><path class="cls-38" d="M412.49,711.45a.38.38,0,0,1-.13.24l-1.16,1.2c-.49.52-1,1.05-1.48,1.57-.05.06-.1.14-.2.14A2.93,2.93,0,0,1,412.49,711.45Z" transform="translate(-0.05 -488.9)"/><path class="cls-25" d="M421.8,708v-1.17a.59.59,0,0,1,.15-.2c.43-.41.8-.87,1.23-1.29a.27.27,0,0,1,.19-.11,6.43,6.43,0,0,1,.76,0,.32.32,0,0,1,.23,0,.35.35,0,0,1-.14.28c-.18.18-.35.38-.53.57-.55.58-1.11,1.15-1.64,1.74C422,708,421.93,708.06,421.8,708Z" transform="translate(-0.05 -488.9)"/><path class="cls-37" d="M418.63,722.56c0-.18.12-.26.21-.36.28-.31.59-.59.86-.91s.71-.75,1.07-1.12c.06-.06.11-.18.2-.14s0,.16,0,.24a2.26,2.26,0,0,1,0,.26,1.74,1.74,0,0,1-.68,1.22A3.84,3.84,0,0,1,418.63,722.56Z" transform="translate(-0.05 -488.9)"/><path class="cls-27" d="M406.82,716.93l1.9-1.95v1.21c-.24.25-.48.5-.74.74Z" transform="translate(-0.05 -488.9)"/><path class="cls-39" d="M424.13,705.25h-.05c-.67-.15-1.05.27-1.43.73a9.74,9.74,0,0,1-.85.85c0-.48,0-1,0-1.46,0-.08,0-.16.11-.16h2.17Z" transform="translate(-0.05 -488.9)"/><path class="cls-21" d="M409.74,720.84c.13,0,.19-.12.27-.2.39-.41.76-.83,1.15-1.24.73-.76,1.47-1.51,2.18-2.28.52-.55,1-1.1,1.55-1.64.86-.89,1.72-1.78,2.55-2.69.36-.4.76-.75,1.09-1.17,0-.06.1-.1.1-.18h.19l-.47.54c-.47.49-.94,1-1.4,1.45-.85.91-1.7,1.8-2.56,2.7l-1.59,1.68c-.57.6-1.14,1.2-1.7,1.81-.39.42-.82.8-1.18,1.25a.25.25,0,0,0-.08.16A.27.27,0,0,1,409.74,720.84Z" transform="translate(-0.05 -488.9)"/><path class="cls-21" d="M421.8,708c.12,0,.17-.11.24-.18.51-.57,1.06-1.11,1.58-1.68a5.37,5.37,0,0,0,.74-.84.52.52,0,0,1,.29.09,3,3,0,0,0-.76.7s-.06.08-.1.12l-1.4,1.45c-.19.2-.32.46-.59.57Z" transform="translate(-0.05 -488.9)"/><path class="cls-40" d="M419.21,710.43c-.09-.07,0-.1,0-.13.47-.49.95-1,1.44-1.48,0,0,.06-.2.14,0A2.58,2.58,0,0,1,419.21,710.43Z" transform="translate(-0.05 -488.9)"/><path class="cls-31" d="M408,716.93a2.28,2.28,0,0,1,.74-.74c0,.2,0,.39,0,.59s-.05.16-.16.16Z" transform="translate(-0.05 -488.9)"/><path class="cls-22" d="M417.05,710.69h.9a.39.39,0,0,1-.21,0h-6.08a2.47,2.47,0,0,1,.72,0h4.67Z" transform="translate(-0.05 -488.9)"/><path class="cls-21" d="M419.42,711.35c0,.12-.11.17-.19.25s.16-.19-.05-.21A.34.34,0,0,1,419.42,711.35Z" transform="translate(-0.05 -488.9)"/><path class="cls-21" d="M421.75,708.74l.1,0c0,.09-.06.18-.16.21S421.69,708.81,421.75,708.74Z" transform="translate(-0.05 -488.9)"/><path class="cls-34" d="M416,722.92a1.23,1.23,0,0,1,.47,0A1.23,1.23,0,0,1,416,722.92Z" transform="translate(-0.05 -488.9)"/><path class="cls-36" d="M413.69,722.84c.1,0,.2,0,.29,0A.57.57,0,0,1,413.69,722.84Z" transform="translate(-0.05 -488.9)"/><path class="cls-21" d="M419.05,711.4c-.07.07-.16,0-.24,0A.41.41,0,0,1,419.05,711.4Z" transform="translate(-0.05 -488.9)"/><path class="cls-41" d="M413.1,699.35a1,1,0,0,1-.2.26l-1.47,1.48s-.15.06-.09.17-.06.13-.13.16a.72.72,0,0,0-.22.17l-1.23,1.23c-.07.07-.12.17-.24.15,0-.44,0-.88,0-1.32a1.8,1.8,0,0,1,.8-1.33,5,5,0,0,1,2.17-.88C412.68,699.4,412.89,699.38,413.1,699.35Z" transform="translate(-0.05 -488.9)"/><path class="cls-41" d="M407.14,705.39a1.71,1.71,0,0,1-.18.2l-3,3c-.14.14-.22.33-.4.44a4.38,4.38,0,0,1,1.91-3.24A2.72,2.72,0,0,1,407.14,705.39Z" transform="translate(-0.05 -488.9)"/><path class="cls-42" d="M409.52,703l1.5-1.48s.07-.15.17-.09,0,.15-.05.22a1,1,0,0,0,.16,1.15.24.24,0,0,1,.09.13c-.35.4-.75.76-1.12,1.14a2.51,2.51,0,0,1-.57.51c-.12,0-.2,0-.19-.15C409.52,703.92,409.52,703.45,409.52,703Z" transform="translate(-0.05 -488.9)"/><path class="cls-9" d="M403.38,711.25v-.32c.6-.58,1.21-1.15,1.75-1.78l.15-.15,3.42-3.42c.05-.06.11-.12.16-.19h.33a.48.48,0,0,1-.19.31l-1.94,1.94L403.7,711A.49.49,0,0,1,403.38,711.25Z" transform="translate(-0.05 -488.9)"/><path class="cls-9" d="M409.7,704.55l1.56-1.57s.07,0,.1-.05a3.39,3.39,0,0,1,.76.19.5.5,0,0,1-.18.29c-.38.36-.72.75-1.08,1.14Z" transform="translate(-0.05 -488.9)"/><path class="cls-6" d="M412.12,703.12a1.37,1.37,0,0,1-.76-.19,1.09,1.09,0,0,1-.17-1.53l.15-.14a1.07,1.07,0,0,1,1.48.17,1.34,1.34,0,0,1,.22.75A1.08,1.08,0,0,1,412.12,703.12Z" transform="translate(-0.05 -488.9)"/><path class="cls-43" d="M419,719.11c0-.07,0-.12,0-.18a2.66,2.66,0,0,1,.39-.43c.28-.27.54-.57.8-.87h.6a.79.79,0,0,1-.19.26l-1.34,1.4C419.09,719.32,419,719.22,419,719.11Z" transform="translate(-0.05 -488.9)"/><path class="cls-6" d="M419,719.11l.28.18a1.05,1.05,0,1,1-1.43,1.54,1.09,1.09,0,0,1-.23-1.15,1,1,0,0,1,1.22-.61Z" transform="translate(-0.05 -488.9)"/><path class="cls-44" d="M414,759.73c-.29.13-.51.3-.76.38-.56.17-.92,0-1.06-.47-.08-.25-.29-.45-.17-.74a1.57,1.57,0,0,1,.72-.76,2.44,2.44,0,0,1,1-.3c.21,0,.24-.08.23-.27-.05-1.43-.23-2.84-.3-4.27a15.48,15.48,0,0,1,.23-4c0-.17,0-.24-.14-.32a1.92,1.92,0,0,1-1.1-2.48,2.4,2.4,0,0,1,2.59-1.59,1.24,1.24,0,0,1,.44.11c.37.27.64.1,1-.13a9.47,9.47,0,0,1,3.71-1.41,14.89,14.89,0,0,1,6.2.11,6.42,6.42,0,0,1,2.56,1.17.36.36,0,0,0,.46,0,2.29,2.29,0,0,1,3.36,2.15,1.91,1.91,0,0,1-1.14,1.68c-.18.1-.22.17-.17.38a22,22,0,0,1,.49,4.79c0,1.21,0,2.43,0,3.65,0,.24.07.31.3.34a2,2,0,0,1,1.35.69.69.69,0,0,1,.06,1,1.34,1.34,0,0,0-.07.18.65.65,0,0,1-.79.45,4,4,0,0,1-.7-.27c0,.87.09,1.72.1,2.56a14.67,14.67,0,0,1-.76,5.54,6.55,6.55,0,0,1-1.27,2.16c-.13.14-.1.2,0,.32a2.69,2.69,0,0,1,.92,1.26c.14.49,0,.82-.54,1.18a.86.86,0,0,1-1.11,0,9.6,9.6,0,0,1-.93-1,.45.45,0,0,0-.61-.11,10.75,10.75,0,0,1-4,1,12.9,12.9,0,0,1-5.65-.64,1.39,1.39,0,0,0-1.55.3,6.27,6.27,0,0,1-.92.71.83.83,0,0,1-1.11-.13,1.08,1.08,0,0,1-.52-.9,1.39,1.39,0,0,1,.56-1,7.16,7.16,0,0,1,.61-.48c.12-.08.13-.13,0-.23a6.93,6.93,0,0,1-1.82-4.39,26.86,26.86,0,0,1,.11-4.91C413.94,760.6,414,760.19,414,759.73Z" transform="translate(-0.05 -488.9)"/><path class="cls-45" d="M414.13,751.66a8.29,8.29,0,0,1,1.74-5.49,6.74,6.74,0,0,1,3.59-2,14.58,14.58,0,0,1,6.76-.2,6,6,0,0,1,4.94,4.78,22.32,22.32,0,0,1,.57,5.33c0,2.65.14,5.29.27,7.93,0,.13,0,.26,0,.39a3.09,3.09,0,0,0,0,1,11.61,11.61,0,0,1-1,5.1,6.08,6.08,0,0,1-3.82,3.21,13,13,0,0,1-9-.15,6,6,0,0,1-3.94-5.37,27,27,0,0,1,.1-5.24,28.4,28.4,0,0,0,0-4.88c-.09-1.14-.24-2.28-.22-3.42A3.47,3.47,0,0,0,414.13,751.66Z" transform="translate(-0.05 -488.9)"/><path class="cls-46" d="M432.52,747.06a1.57,1.57,0,0,1-1,1.22c-.14-.39-.27-.76-.41-1.13a.29.29,0,0,1,0-.24.69.69,0,0,0-.61-1,.34.34,0,0,1-.3-.14c-.15-.19-.31-.36-.49-.56a1.75,1.75,0,0,1,1.63-.14,1.86,1.86,0,0,1,1.15,1.49A1.46,1.46,0,0,0,432.52,747.06Z" transform="translate(-0.05 -488.9)"/><path class="cls-46" d="M415.83,745.53c-.22.27-.44.53-.65.8-.09.12-.18.08-.28.06-.43-.1-.67,0-.85.33a.61.61,0,0,0,.21.87.23.23,0,0,1,.07.33,2,2,0,0,0-.14.43c-.05.23-.13.28-.35.15a1.5,1.5,0,0,1-.65-2A1.91,1.91,0,0,1,415.83,745.53Z" transform="translate(-0.05 -488.9)"/><path class="cls-47" d="M414.91,772.26a.57.57,0,0,1,.09-.61,3.89,3.89,0,0,1,1-.84c.1-.07.16,0,.23,0a7.32,7.32,0,0,0,1.15.74,9.55,9.55,0,0,0-1.27.95,2,2,0,0,1-.46.24.24.24,0,0,1-.29-.07c-.1-.1,0-.2,0-.29s.18-.27.26-.41.15-.29,0-.4-.27,0-.35.16Z" transform="translate(-0.05 -488.9)"/><path class="cls-48" d="M431,772.17c-.14-.24-.23-.41-.35-.58s-.21-.24-.37-.1-.09.24,0,.36a1.59,1.59,0,0,1,.22.43c.12.25,0,.28-.21.27a.68.68,0,0,1-.41-.25l-.83-.9c-.1-.1,0-.13,0-.19l.8-.59s.1-.1.17,0a2.15,2.15,0,0,1,1,1.36A1.27,1.27,0,0,1,431,772.17Z" transform="translate(-0.05 -488.9)"/><path class="cls-49" d="M412.41,759.19a.69.69,0,0,1,.3-.51,2.07,2.07,0,0,1,1.13-.41c.15,0,.22,0,.2.19s0,.45-.05.68a.16.16,0,0,1,0,.11,4.49,4.49,0,0,1-1,.49.22.22,0,0,1-.23-.07c-.05-.06,0-.1,0-.13s.35-.21.19-.43S412.59,759.09,412.41,759.19Z" transform="translate(-0.05 -488.9)"/><path class="cls-49" d="M433.63,759a.11.11,0,0,1-.16,0,.19.19,0,0,0-.31,0c-.11.13,0,.23,0,.35s.25.07.18.21-.25.11-.38.05a4.37,4.37,0,0,1-.49-.23.38.38,0,0,1-.25-.41,1.71,1.71,0,0,0,0-.32c0-.54,0-.54.52-.36A1.1,1.1,0,0,1,433.63,759Z" transform="translate(-0.05 -488.9)"/><path class="cls-50" d="M432,763.32a1.57,1.57,0,0,1,0-1Z" transform="translate(-0.05 -488.9)"/><path class="cls-51" d="M414.13,751.66a1.57,1.57,0,0,1,0,.91Z" transform="translate(-0.05 -488.9)"/><path class="cls-52" d="M432.52,747.06a.47.47,0,0,1,0-.51A.89.89,0,0,1,432.52,747.06Z" transform="translate(-0.05 -488.9)"/><path class="cls-53" d="M423.84,749.59a.23.23,0,0,0-.07-.17A2.73,2.73,0,0,1,424.9,745a3,3,0,0,1,3.67.86,2.75,2.75,0,0,1-2,4.4,3.13,3.13,0,0,1-2.61-.66.29.29,0,0,0-.14,0Z" transform="translate(-0.05 -488.9)"/><path class="cls-53" d="M419,750.63a2.74,2.74,0,0,1-2.78-2,2.79,2.79,0,0,1,2.39-3.53,3.31,3.31,0,0,1,1.87.2,2.59,2.59,0,0,1,1.61,2.45,2.55,2.55,0,0,1-1.33,2.39A3.3,3.3,0,0,1,419,750.63Z" transform="translate(-0.05 -488.9)"/><path class="cls-54" d="M421.29,752.45a1,1,0,0,1-.73-1.15,1.31,1.31,0,0,1,.84-1c.1,0,.23-.06.3-.17a1.67,1.67,0,0,1,.07.54c-.11.1-.25.13-.36.22a.74.74,0,0,0-.33.67.4.4,0,0,0,.5.4,2.79,2.79,0,0,0,.75-.21,1.74,1.74,0,0,1,1.38,0,2.32,2.32,0,0,0,.58.19.45.45,0,0,0,.4-.78,1.79,1.79,0,0,0-.46-.36,1,1,0,0,1-.33-.24.68.68,0,0,1,.21-.42,2.74,2.74,0,0,1,1,.75.87.87,0,0,1,.17,1,.9.9,0,0,1-.88.6c-.24,0-.2.13-.21.26-.16-.1-.24-.31-.46-.33a2.51,2.51,0,0,0-.72-.22,1.12,1.12,0,0,0-.41,0c-.32.09-.62.22-.94.29A.7.7,0,0,1,421.29,752.45Z" transform="translate(-0.05 -488.9)"/><path class="cls-55" d="M424.11,750.16a.49.49,0,0,1-.2.4c0,.14-.11.18-.2.23a2.35,2.35,0,0,1-1.65.1.36.36,0,0,1-.29-.27c-.18-.15-.12-.34-.07-.52.08-.38.38-.53.7-.64a2,2,0,0,1,1.44.13h0C423.93,749.78,424.13,749.91,424.11,750.16Z" transform="translate(-0.05 -488.9)"/><path class="cls-56" d="M423.78,752.38a.41.41,0,0,1,.44.38c0,.17,0,.35,0,.52a.68.68,0,0,1-.39.73.72.72,0,0,1-.92-.1c-.13-.12-.2-.07-.31,0a.7.7,0,0,1-1.11-.25,2.44,2.44,0,0,1-.22-1.22c.14,0,.31-.07.42.08a3,3,0,0,1,.17.65c.06.15.07.38.31.34s.26-.23.27-.42a1.77,1.77,0,0,1,.14-.91.69.69,0,0,1,.49-.06,2.59,2.59,0,0,1,.06.92c0,.22,0,.47.29.5s.32-.22.29-.56S423.62,752.57,423.78,752.38Z" transform="translate(-0.05 -488.9)"/><path class="cls-6" d="M426.1,749.92a2.75,2.75,0,0,1-1.71-.51,2.21,2.21,0,0,1-.58-2.89,2.83,2.83,0,0,1,3.68-1,2.41,2.41,0,0,1,1.17,2.41,2.33,2.33,0,0,1-1.92,1.93A2.71,2.71,0,0,1,426.1,749.92Z" transform="translate(-0.05 -488.9)"/><path class="cls-6" d="M416.57,747.91a2.41,2.41,0,0,1,2.25-2.4,2.92,2.92,0,0,1,1.25.09,2.15,2.15,0,0,1,1.62,1.86,2.19,2.19,0,0,1-1,2.3,2.76,2.76,0,0,1-3.59-.42A2.21,2.21,0,0,1,416.57,747.91Z" transform="translate(-0.05 -488.9)"/><path class="cls-48" d="M421.77,750.62a1.92,1.92,0,0,0,2.14-.06,2.08,2.08,0,0,1,.87.59.49.49,0,0,1,.09.65.56.56,0,0,1-.67.25h0a2.56,2.56,0,0,0-2.39-.07.49.49,0,0,1-.69-.14.68.68,0,0,1,0-.81A.87.87,0,0,1,421.77,750.62Z" transform="translate(-0.05 -488.9)"/><path class="cls-57" d="M423.78,752.38c0,.3,0,.6,0,.9a.34.34,0,0,1-.37.39.36.36,0,0,1-.39-.38,6.4,6.4,0,0,1,0-1.16A1.74,1.74,0,0,1,423.78,752.38Z" transform="translate(-0.05 -488.9)"/><path class="cls-58" d="M422.6,752.19a9.29,9.29,0,0,0-.05,1.06c0,.23-.17.34-.35.4s-.26-.11-.33-.24a2.05,2.05,0,0,1-.16-.88A2.42,2.42,0,0,1,422.6,752.19Z" transform="translate(-0.05 -488.9)"/><path class="cls-59" d="M424.7,746.87a.85.85,0,0,1,.82.89.89.89,0,0,1-.81.92.87.87,0,0,1-.82-.91A.84.84,0,0,1,424.7,746.87Z" transform="translate(-0.05 -488.9)"/><path class="cls-60" d="M418.6,748a.83.83,0,0,1-.81.9A.84.84,0,0,1,417,748a.88.88,0,0,1,.83-.93A.87.87,0,0,1,418.6,748Z" transform="translate(-0.05 -488.9)"/><path class="cls-61" d="M425.27,747.94c0,.16-.07.26-.21.26a.2.2,0,0,1-.18-.22c0-.14.06-.24.2-.24A.21.21,0,0,1,425.27,747.94Z" transform="translate(-0.05 -488.9)"/><path class="cls-62" d="M418.17,748.42a.2.2,0,0,1-.21-.2.2.2,0,0,1,.18-.25c.13,0,.19.07.2.19S418.31,748.39,418.17,748.42Z" transform="translate(-0.05 -488.9)"/><path class="cls-63" d="M488,651.8h-4c-.09,0-.1,0-.1.11V658c0,.09,0,.11-.11.08a4.51,4.51,0,0,0-.53-.1,8.68,8.68,0,0,0-3.95.34,6.1,6.1,0,0,0-4,4,8.38,8.38,0,0,0-.22,4.47,5.53,5.53,0,0,0,1.2,2.51,5.64,5.64,0,0,0,2.5,1.68,10.23,10.23,0,0,0,3,.58,22.52,22.52,0,0,0,3.18-.08c1-.1,2-.26,3-.44.09,0,.13,0,.12-.14v-19C488.07,651.82,488.05,651.8,488,651.8ZM484,668.13c0,.08,0,.11-.1.12a9.77,9.77,0,0,1-1.62.08,3.54,3.54,0,0,1-1.62-.44,2.67,2.67,0,0,1-1.23-1.62,4.91,4.91,0,0,1,0-2.84,2.8,2.8,0,0,1,2.33-2,4.7,4.7,0,0,1,2.11.11.12.12,0,0,1,.09.14Z" transform="translate(-0.05 -488.9)"/><path class="cls-63" d="M494.91,658.42v10c0,.26,0,.52,0,.78a19.55,19.55,0,0,1-.23,2.85,7,7,0,0,1-1.5,3.44,6.68,6.68,0,0,1-1.67,1.37c-.3.18-.6.34-.91.5a.17.17,0,0,1-.14,0l-3.74-1.77-.07,0,.11,0a11.46,11.46,0,0,0,1.7-1,4.9,4.9,0,0,0,1.92-2.9,10.17,10.17,0,0,0,.28-2c.07-1,.08-2.09.08-3.14v-8c0-.15,0-.13.13-.13h4.05Z" transform="translate(-0.05 -488.9)"/><path class="cls-63" d="M494.49,653.92c0,.68,0,1.35,0,2,0,.08,0,.11-.11.1h-4c-.09,0-.11,0-.11-.12v-4c0-.09,0-.1.11-.1h4c.09,0,.12,0,.12.11C494.49,652.58,494.49,653.25,494.49,653.92Z" transform="translate(-0.05 -488.9)"/><path class="cls-64" d="M473.78,701.92a1.88,1.88,0,1,0,0,3.75,1.88,1.88,0,0,0,0-3.75Zm0,0a1.88,1.88,0,1,0,0,3.75,1.88,1.88,0,0,0,0-3.75Zm0,0a1.88,1.88,0,1,0,0,3.75,1.88,1.88,0,0,0,0-3.75Zm0,0a1.88,1.88,0,1,0,0,3.75,1.88,1.88,0,0,0,0-3.75Zm0,0a1.88,1.88,0,1,0,0,3.75,1.88,1.88,0,0,0,0-3.75Zm0,0a1.88,1.88,0,1,0,0,3.75,1.88,1.88,0,0,0,0-3.75Zm0,0a1.88,1.88,0,1,0,0,3.75,1.88,1.88,0,0,0,0-3.75Zm0,0a1.88,1.88,0,1,0,0,3.75,1.88,1.88,0,0,0,0-3.75Zm10.27,1a3.62,3.62,0,0,0-1.23-1.29,9.16,9.16,0,0,0-2.73-1.26c-.19-.06-.22-.12-.18-.31a9.43,9.43,0,0,0,.28-2.34,4.87,4.87,0,0,0-.3-1.91,1.89,1.89,0,0,0-2-1.36,4.36,4.36,0,0,0-1.88.62,10.44,10.44,0,0,0-2.14,1.59c-.08.08-.13.11-.23,0a8.3,8.3,0,0,0-.9-.77,6.32,6.32,0,0,0-2.9-1.39,1.86,1.86,0,0,0-2.11,1,4.91,4.91,0,0,0-.41,2.54,10.35,10.35,0,0,0,.31,2.07c0,.11,0,.16-.11.19a9.1,9.1,0,0,0-1.51.55,5.74,5.74,0,0,0-2.23,1.57,1.9,1.9,0,0,0-.41,2,3.43,3.43,0,0,0,1.13,1.4,9,9,0,0,0,3,1.46c.1,0,.2.05.16.2a12,12,0,0,0-.3,1.89,5.41,5.41,0,0,0,.27,2.36,1.89,1.89,0,0,0,2,1.38,4,4,0,0,0,1.62-.43,9.4,9.4,0,0,0,2.47-1.73c.1-.1.16-.1.26,0a9.23,9.23,0,0,0,.88.76,6.16,6.16,0,0,0,2.95,1.39,1.84,1.84,0,0,0,1.7-.62,3.63,3.63,0,0,0,.75-2.19,9.59,9.59,0,0,0-.27-2.82c0-.17,0-.21.16-.25a11.08,11.08,0,0,0,1.81-.74,5.52,5.52,0,0,0,1.88-1.47A1.85,1.85,0,0,0,484.05,702.93Zm-9.55-5.59a8.4,8.4,0,0,1,2.68-1.81,2.8,2.8,0,0,1,.86-.17,1,1,0,0,1,.9.53,3.24,3.24,0,0,1,.32,1.1,6.39,6.39,0,0,1,.05.68,11.25,11.25,0,0,1-.28,2.25c0,.14-.08.16-.2.13a18.93,18.93,0,0,0-2.47-.39.37.37,0,0,1-.29-.17,19.72,19.72,0,0,0-1.56-2C474.44,697.46,474.41,697.42,474.5,697.34Zm-5,7.53c.38.74.79,1.43,1.24,2.16-.64-.08-1.23-.16-1.81-.29-.07,0-.11,0-.08-.12C469,706,469.21,705.47,469.47,704.87Zm-.17-2.53a12.51,12.51,0,0,1-.45-1.25c0-.08-.06-.15.06-.18a16.28,16.28,0,0,1,1.7-.28l.05,0c-.41.67-.81,1.35-1.18,2.07A1.23,1.23,0,0,1,469.3,702.34Zm.7,1.59a.26.26,0,0,1,0-.24,25.86,25.86,0,0,1,1.77-3.06.26.26,0,0,1,.21-.14,19.42,19.42,0,0,1,2.75,0,7.56,7.56,0,0,1,.83,0,.3.3,0,0,1,.21.12,33.37,33.37,0,0,1,1.78,3.06.3.3,0,0,1,0,.26,30.07,30.07,0,0,1-1.76,3.07.28.28,0,0,1-.26.14c-.6,0-1.2.07-1.78,0s-1.15,0-1.72,0a.29.29,0,0,1-.24-.14A26.19,26.19,0,0,1,470,703.93Zm8.08.9c.1.24.19.43.27.64s.25.69.39,1c.06.16,0,.2-.14.23-.57.11-1.14.21-1.76.28C477.28,706.29,477.7,705.6,478.08,704.83Zm0-2.08c-.4-.73-.79-1.42-1.23-2.12a4.1,4.1,0,0,1,.67.08l1.07.2c.11,0,.16.07.12.18C478.52,701.63,478.33,702.18,478.08,702.75Zm-4.38-4.6c.06-.06.09-.06.15,0a16,16,0,0,1,1.14,1.39h-2.44A16,16,0,0,1,473.7,698.15Zm-5.29-1.88a1.11,1.11,0,0,1,1.49-.84,5.79,5.79,0,0,1,2.15,1.07,10.32,10.32,0,0,1,1,.79c.1.08.13.14,0,.25a19.51,19.51,0,0,0-1.62,2,.29.29,0,0,1-.24.11,18.5,18.5,0,0,0-2.46.38c-.13,0-.18,0-.21-.15a9.54,9.54,0,0,1-.28-2.24A4.23,4.23,0,0,1,468.41,696.27Zm-.43,10c-.05.16-.11.18-.27.13a7.2,7.2,0,0,1-3.1-1.72,1.47,1.47,0,0,1-.45-.91,1.29,1.29,0,0,1,.38-.84,4.91,4.91,0,0,1,1.79-1.23,9.36,9.36,0,0,1,1.45-.54c.11,0,.16,0,.19.1a20.32,20.32,0,0,0,.92,2.39.28.28,0,0,1,0,.25A18.43,18.43,0,0,0,468,706.31Zm5.13,4a7.57,7.57,0,0,1-2.94,1.85,2.37,2.37,0,0,1-.7.1,1,1,0,0,1-.91-.55,3.18,3.18,0,0,1-.32-1.28,4.21,4.21,0,0,1,0-.5,9.18,9.18,0,0,1,.27-2.15c0-.14.08-.17.23-.14a17.64,17.64,0,0,0,2.51.36.29.29,0,0,1,.21.11,21.29,21.29,0,0,0,1.63,2S473.19,710.21,473.11,710.29Zm.79-.82c-.07.1-.12.08-.19,0-.41-.44-.78-.9-1.18-1.41a19,19,0,0,0,2.5,0c-.3.43-.59.78-.89,1.14Zm5.27,1.7a1.22,1.22,0,0,1-1.75,1,6.26,6.26,0,0,1-2.07-1.14c-.28-.22-.53-.45-.8-.68-.1-.08-.11-.15,0-.25a15.73,15.73,0,0,0,1.52-1.93.39.39,0,0,1,.32-.19,21,21,0,0,0,2.5-.39c.14,0,.18,0,.2.13a10.48,10.48,0,0,1,.26,2.08A4.93,4.93,0,0,1,479.17,711.17Zm3.73-6.44a6.07,6.07,0,0,1-2.1,1.32c-.32.13-.65.23-1,.36-.12,0-.17,0-.21-.11a20.55,20.55,0,0,0-1-2.39.21.21,0,0,1,0-.23,20.08,20.08,0,0,0,.93-2.37c0-.07,0-.14.14-.11a7.67,7.67,0,0,1,3.2,1.69,1.35,1.35,0,0,1,.44,1.06A1.3,1.3,0,0,1,482.9,704.73Zm-9.13.94a1.88,1.88,0,0,0,0-3.75,1.88,1.88,0,1,0,0,3.75Zm0-3.75a1.88,1.88,0,1,0,0,3.75,1.88,1.88,0,0,0,0-3.75Zm0,0a1.88,1.88,0,1,0,0,3.75,1.88,1.88,0,0,0,0-3.75Zm0,0a1.88,1.88,0,1,0,0,3.75,1.88,1.88,0,0,0,0-3.75Zm0,0a1.88,1.88,0,1,0,0,3.75,1.88,1.88,0,0,0,0-3.75Zm0,0a1.88,1.88,0,1,0,0,3.75,1.88,1.88,0,0,0,0-3.75Zm0,0a1.88,1.88,0,1,0,0,3.75,1.88,1.88,0,0,0,0-3.75Zm0,0a1.88,1.88,0,1,0,0,3.75,1.88,1.88,0,0,0,0-3.75Zm0,0a1.88,1.88,0,1,0,0,3.75,1.88,1.88,0,0,0,0-3.75Z" transform="translate(-0.05 -488.9)"/><path class="cls-6" d="M475.64,703.8a1.87,1.87,0,1,1-3.74,0,1.87,1.87,0,1,1,3.74,0Z" transform="translate(-0.05 -488.9)"/><path class="cls-64" d="M475.64,703.8a1.87,1.87,0,1,1-3.74,0,1.87,1.87,0,1,1,3.74,0Z" transform="translate(-0.05 -488.9)"/><path class="cls-65" d="M458.86,625.21a22.23,22.23,0,0,1-3.13-3.23,5,5,0,0,1-1.05-2.24,2.72,2.72,0,0,1,.54-2.06,12.43,12.43,0,0,1,2.34-2.3,33.47,33.47,0,0,0,2.89-2.43,6.41,6.41,0,0,0,1.57-2.31,5.14,5.14,0,0,0,.2-2.72,1.55,1.55,0,0,1,0-.21s0-.06,0-.15a3.38,3.38,0,0,1,.74,1.61,5.11,5.11,0,0,1-1.05,3.87,14.56,14.56,0,0,1-3.08,3.14,8,8,0,0,0-2,2.18,3.36,3.36,0,0,0-.19,3.14,12,12,0,0,0,1.21,2A8.93,8.93,0,0,1,458.86,625.21Z" transform="translate(-0.05 -488.9)"/><path class="cls-66" d="M451.83,635.14a6.46,6.46,0,0,0-2.28.63,1.57,1.57,0,0,0-.25.14c-.14.1-.33.19-.3.4s.2.25.36.32a10.52,10.52,0,0,0,2.65.61,41.71,41.71,0,0,0,5.59.3,54.43,54.43,0,0,0,8.56-.61,10.71,10.71,0,0,0,1.84-.44,2.38,2.38,0,0,0,.68-.33.59.59,0,0,0,.26-.8.5.5,0,0,1,.29.89,3.11,3.11,0,0,1-1.13.68,17.92,17.92,0,0,1-4.08,1,45.33,45.33,0,0,1-8.15.44,52.58,52.58,0,0,1-7.62-.75,2.82,2.82,0,0,1-1-.37.47.47,0,0,1-.11-.78,1.86,1.86,0,0,1,.45-.39,7.68,7.68,0,0,1,3.87-1.13,1.49,1.49,0,0,1,.47.07C451.93,635.1,451.87,635.12,451.83,635.14Z" transform="translate(-0.05 -488.9)"/><path class="cls-65" d="M460.19,626.29c.18-.25.33-.43.46-.64a2,2,0,0,0-.15-2.5,8.6,8.6,0,0,1-1.18-1.76,3.45,3.45,0,0,1,.67-4,10,10,0,0,1,3.48-2.33,15.92,15.92,0,0,1,2.51-.91.49.49,0,0,1-.29.23,24.29,24.29,0,0,0-3.6,2.53,5,5,0,0,0-1,1.13,2,2,0,0,0-.12,2,13.5,13.5,0,0,0,1.13,1.76,2.25,2.25,0,0,1,0,2.75l-.23.3a6.1,6.1,0,0,1-1.43,1.25A2.15,2.15,0,0,1,460.19,626.29Z" transform="translate(-0.05 -488.9)"/><path class="cls-66" d="M454.5,632.66c-.31.41-.26.58.19.73a9.29,9.29,0,0,0,2,.29,17.48,17.48,0,0,0,5.2-.35.77.77,0,0,1,.57.09c.47.26,1,.48,1.47.74a11.86,11.86,0,0,1-2.11.7,14.5,14.5,0,0,1-7.05,0,3.81,3.81,0,0,1-1.37-.63c-.47-.37-.46-.77,0-1.11A2.82,2.82,0,0,1,454.5,632.66Z" transform="translate(-0.05 -488.9)"/><path class="cls-66" d="M465.47,626.7a8,8,0,0,1-3.68,1.14,41.24,41.24,0,0,1-6.57.37,21.17,21.17,0,0,1-4.69-.49,2,2,0,0,1-.78-.32c-.26-.17-.27-.36,0-.56a1.87,1.87,0,0,1,.29-.2,11.68,11.68,0,0,1,4.7-1.27,1.1,1.1,0,0,1,.31,0c-.65.2-1.3.38-1.92.61a4,4,0,0,0-1,.48c-.31.23-.28.43.08.57a4.79,4.79,0,0,0,1.46.28,42.32,42.32,0,0,0,5.63,0c1.59-.09,3.16-.24,4.73-.47l1.41-.19C465.47,626.61,465.48,626.64,465.47,626.7Z" transform="translate(-0.05 -488.9)"/><path class="cls-66" d="M464.56,630.69a19.38,19.38,0,0,1-2.43.58,25,25,0,0,1-5.39.38,12.81,12.81,0,0,1-3.43-.5,2.94,2.94,0,0,1-.94-.46.53.53,0,0,1-.05-.85,3.28,3.28,0,0,1,1.3-.7c0,.07,0,.1,0,.11-.43.51-.16.81.38.94a13.72,13.72,0,0,0,2.48.25,26.64,26.64,0,0,0,6.55-.52.29.29,0,0,1,.32.05A4.25,4.25,0,0,0,464.56,630.69Z" transform="translate(-0.05 -488.9)"/><path class="cls-66" d="M451.72,639.08c1.07.1,2.14.24,3.22.29,1.32.06,2.64.12,4,.07s2.57-.09,3.86-.22a28,28,0,0,0,6.14-1.2,5.12,5.12,0,0,0,1.93-1.06,1.66,1.66,0,0,1-.66,1,6.41,6.41,0,0,1-2.24,1,26.5,26.5,0,0,1-4.77.77c-1.44.11-2.87.17-4.31.15a32.5,32.5,0,0,1-6.15-.48,5,5,0,0,1-1.12-.33C451.58,639,451.66,639.06,451.72,639.08Z" transform="translate(-0.05 -488.9)"/><path class="cls-66" d="M465.74,631.42c.09-.21.26-.24.4-.32a8.36,8.36,0,0,0,2.81-2.27,2.43,2.43,0,0,0,.52-1.17,2,2,0,0,0-2.56-2.14,1.07,1.07,0,0,1-.49.09,2.8,2.8,0,0,1,2.18-.53,2.55,2.55,0,0,1,1.64.81,2.18,2.18,0,0,1,.26,2.66,4.47,4.47,0,0,1-1.36,1.41A11,11,0,0,1,465.74,631.42Z" transform="translate(-0.05 -488.9)"/><path class="cls-67" d="M451.72,639.08l-.14.06-.28-.09A.57.57,0,0,1,451.72,639.08Z" transform="translate(-0.05 -488.9)"/><path class="cls-68" d="M451.83,635.14l.06-.11c.06,0,.16,0,.14.07S451.9,635.14,451.83,635.14Z" transform="translate(-0.05 -488.9)"/><path class="cls-69" d="M465.47,626.7l-.07-.06a.24.24,0,0,1,.23,0A.17.17,0,0,1,465.47,626.7Z" transform="translate(-0.05 -488.9)"/><path class="cls-70" d="M426.84,681.92a2.28,2.28,0,0,1-.29-1.12V669.4a2.21,2.21,0,0,1,1.2-2L431.9,665l4.22-2.4,1.32-.78a1.85,1.85,0,0,1,.85-.33,3.17,3.17,0,0,1,.87,0,2.83,2.83,0,0,1,1.18.54c1.34.76,2.67,1.52,4,2.3l2.4,1.4L449,667a4.47,4.47,0,0,1,1.2.77,3.57,3.57,0,0,1,.38.49,11.76,11.76,0,0,1-1.17.71c-1.18.68-2.37,1.35-3.55,2-.06,0-.1.09-.18.06a7.94,7.94,0,0,0-6-4l-.36-.08a12.68,12.68,0,0,0-1.51,0c-.05.09-.14.09-.22.1a8,8,0,0,0-4.09,1.77,8.2,8.2,0,0,0-2.53,3.7.78.78,0,0,1-.09.24.77.77,0,0,0-.1.45,9.49,9.49,0,0,0-.13,3c0,.1-.12.21,0,.32.15.37.19.77.34,1.15a7.11,7.11,0,0,0,.55,1.23.37.37,0,0,1,.07.23.4.4,0,0,1-.24.22c-1.44.82-2.86,1.66-4.3,2.48C427.06,681.89,427,682,426.84,681.92Z" transform="translate(-0.05 -488.9)"/><path class="cls-71" d="M426.84,681.92l3-1.74c.6-.33,1.19-.67,1.78-1,.16,0,.21.19.28.3a7.52,7.52,0,0,0,1.47,1.71,8.45,8.45,0,0,0,2.08,1.3.53.53,0,0,1,.24.14s0,.1-.05.09.11-.05.18-.05c.37.11.75.19,1.11.32a.53.53,0,0,0,.28,0,1,1,0,0,1,.37.08l.12.06a1,1,0,0,0,.55,0,3.66,3.66,0,0,1,.81,0,1.18,1.18,0,0,0,.56,0l.15,0h.08s0,0,.08,0-.05,0,0-.07a.78.78,0,0,1,.42-.14c.35-.08.71-.16,1.06-.26.11,0,.24,0,.33-.1.4-.24.83-.41,1.23-.66a8,8,0,0,0,2.47-2.39,1.9,1.9,0,0,1,.26-.37.21.21,0,0,1,.24,0c1,.53,1.92,1.11,2.89,1.66l1.53.88c.09,0,.21.09.2.23a2.43,2.43,0,0,1-1.15,1l-9.49,5.46a2.24,2.24,0,0,1-2.39,0l-9.94-5.74A1.76,1.76,0,0,1,426.84,681.92Z" transform="translate(-0.05 -488.9)"/><path class="cls-72" d="M450.56,682a14.27,14.27,0,0,0-1.35-.82c-.76-.46-1.53-.89-2.3-1.32l-1.11-.63-.05,0c-1.05-.63-2.11-1.23-3.17-1.84a3,3,0,0,0-.4-.2l-3.32-1.92a.55.55,0,0,1-.17-.13c0-.13.1-.17.19-.22l3.12-1.81c.09-.05.19-.07.28-.11,1-.63,2.07-1.2,3.1-1.81a.45.45,0,0,1,.34-.11c.5-.35,1-.63,1.58-.94l3-1.72a.65.65,0,0,1,.33-.14,2,2,0,0,1,.28.84.53.53,0,0,0,0,.25v11.47a.53.53,0,0,0,0,.25A1.93,1.93,0,0,1,450.56,682Z" transform="translate(-0.05 -488.9)"/><path class="cls-73" d="M450.89,681.07c-.09-.09-.05-.2-.05-.3V669.4c0-.1,0-.21.05-.3,0,.08,0,.15,0,.22v11.52C450.9,680.92,450.89,681,450.89,681.07Z" transform="translate(-0.05 -488.9)"/><path class="cls-74" d="M439.16,661.45h-.87A1.44,1.44,0,0,1,439.16,661.45Z" transform="translate(-0.05 -488.9)"/><path class="cls-6" d="M442.19,677.14c.11,0,.18,0,.26.07l3.12,1.81c.08,0,.19.07.18.19a7.79,7.79,0,0,1-1.05,1.42,8.16,8.16,0,0,1-2.37,1.74l-.56.26c-.08.11-.21.07-.31.12-.51.17-1,.27-1.54.39,0,0,0,0,0,0h-.06c-.11.05-.24,0-.35.08a1.13,1.13,0,0,1-.32,0h-.9a.62.62,0,0,1-.27,0c-.11,0-.24,0-.35-.08l-.39-.06c-.08-.06-.19,0-.28-.05l-1.13-.33c-.05,0-.09,0-.12-.05a8.74,8.74,0,0,1-2.35-1.44,7.78,7.78,0,0,1-1.61-1.91,1.1,1.1,0,0,0-.09-.14,9.69,9.69,0,0,1-1-2.66.2.2,0,0,1,0-.21,9,9,0,0,1,.12-3.1,3.74,3.74,0,0,1,.12-.45,9.1,9.1,0,0,1,1.14-2.32A8.06,8.06,0,0,1,437.7,667a.75.75,0,0,0,.16,0,8.24,8.24,0,0,1,1.57,0,8.37,8.37,0,0,1,4,1.51,8.27,8.27,0,0,1,2.17,2.28c.06.1.14.19.1.31l-3.1,1.78c-.11.06-.17.2-.32.19s-.21-.08-.27-.17a4.11,4.11,0,0,0-2.35-1.64,2,2,0,0,0-.59-.09,3.53,3.53,0,0,0-2.14.4,4,4,0,0,0-1.64,5.62,4.08,4.08,0,0,0,2.75,1.85l.45,0h.4a1.71,1.71,0,0,0,.39,0l.21,0a3.91,3.91,0,0,0,2.35-1.46C442,677.38,442,677.22,442.19,677.14Z" transform="translate(-0.05 -488.9)"/><path class="cls-75" d="M439.43,667h-1.59l0,0,.07,0h1.41A.17.17,0,0,1,439.43,667Z" transform="translate(-0.05 -488.9)"/><path class="cls-76" d="M430.89,672.75a1.16,1.16,0,0,1-.12.45A.61.61,0,0,1,430.89,672.75Z" transform="translate(-0.05 -488.9)"/><path class="cls-77" d="M430.65,676.3l0,.21C430.56,676.45,430.6,676.37,430.65,676.3Z" transform="translate(-0.05 -488.9)"/><path class="cls-78" d="M439.15,683.22l.31,0c.08,0,.17-.05.24,0A.75.75,0,0,1,439.15,683.22Z" transform="translate(-0.05 -488.9)"/><path class="cls-79" d="M438,683.2h.27a.7.7,0,0,1-.55,0C437.79,683.15,437.88,683.18,438,683.2Z" transform="translate(-0.05 -488.9)"/><path class="cls-80" d="M441.46,682.75a.69.69,0,0,1,.31-.12C441.72,682.81,441.57,682.74,441.46,682.75Z" transform="translate(-0.05 -488.9)"/><path class="cls-81" d="M438,683.2l-.28,0-.07-.07A.83.83,0,0,1,438,683.2Z" transform="translate(-0.05 -488.9)"/><path class="cls-82" d="M439.7,683.22l-.24,0a.9.9,0,0,1,.36-.05C439.8,683.2,439.75,683.21,439.7,683.22Z" transform="translate(-0.05 -488.9)"/><path class="cls-83" d="M435.71,682.66l.12.05a.15.15,0,0,1-.18,0Z" transform="translate(-0.05 -488.9)"/><path class="cls-84" d="M439.88,683.15a0,0,0,0,1,0,0l.23,0C440,683.22,440,683.23,439.88,683.15Z" transform="translate(-0.05 -488.9)"/><path class="cls-85" d="M437,683a.44.44,0,0,1,.28.05C437.15,683.09,437,683.13,437,683Z" transform="translate(-0.05 -488.9)"/><path class="cls-70" d="M435.26,677.2a4,4,0,0,1,2.08-5.92,3.38,3.38,0,0,1,1.75-.22c.21.05.42.06.63.11a4,4,0,0,1,2.35,1.63c.06.09.1.21.23.23-.82.41-1.59.9-2.38,1.35a10.09,10.09,0,0,0-1.22.73,2.58,2.58,0,0,1-.79.52C437,676.16,436.12,676.63,435.26,677.2Z" transform="translate(-0.05 -488.9)"/><path class="cls-71" d="M435.26,677.2c0-.12.08-.16.16-.2l3.28-1.89a11.94,11.94,0,0,1,1.21.67c.7.39,1.39.8,2.09,1.21a.4.4,0,0,1,.19.15,3.91,3.91,0,0,1-2.65,1.89,2.46,2.46,0,0,0-.47,0c.09,0,.18,0,.26,0a1,1,0,0,1-.41.05.67.67,0,0,0-.44,0,3.72,3.72,0,0,1-2.84-1.43A4.33,4.33,0,0,1,435.26,677.2Z" transform="translate(-0.05 -488.9)"/><path class="cls-86" d="M448.36,674.59c.12-.2,0-.42.05-.64s0-.24.23-.24c.71,0,.71,0,.72.7,0,.07-.08.18.07.19a0,0,0,0,1,.06,0c.26,0,.53-.06.78.07a1.49,1.49,0,0,1,0,.91,3.39,3.39,0,0,1-.78,0c-.18.08-.08.23-.08.33,0,.56,0,.56-.54.56s-.39,0-.41-.4c0-.16.06-.33-.05-.48a2.32,2.32,0,0,1-.83,0,.27.27,0,0,1,0-.09c0-.27-.09-.6,0-.79s.49,0,.74-.07C448.33,674.58,448.34,674.58,448.36,674.59Z" transform="translate(-0.05 -488.9)"/><path class="cls-87" d="M445,674.59a1.84,1.84,0,0,0,0-.66c0-.16.05-.23.22-.22h.7a2,2,0,0,1,0,.6c0,.1,0,.2,0,.29h.67c.12,0,.19,0,.18.16a5,5,0,0,1,0,.78,2.14,2.14,0,0,1-.62,0c-.08,0-.18-.05-.24.06a3.05,3.05,0,0,1-.05.8h-.67c-.19,0-.24-.06-.24-.24a1.48,1.48,0,0,0,0-.63h-.09a3,3,0,0,1-.74,0,5.89,5.89,0,0,1,0-.94,3.78,3.78,0,0,1,.75-.05Z" transform="translate(-0.05 -488.9)"/><path class="cls-88" d="M447.53,675.55l.83,0v.83h-.05c0-.18,0-.36,0-.54s-.07-.24-.25-.25S447.69,675.69,447.53,675.55Z" transform="translate(-0.05 -488.9)"/><path class="cls-89" d="M444.94,674.6h-.79c0-.06,0-.11.1-.09a.66.66,0,0,0,.69-.19A.32.32,0,0,1,444.94,674.6Z" transform="translate(-0.05 -488.9)"/><path class="cls-90" d="M450.22,675.56a5.26,5.26,0,0,0,0-.89,1.3,1.3,0,0,1,0,1s0,0,0,0S450.21,675.56,450.22,675.56Z" transform="translate(-0.05 -488.9)"/><path class="cls-91" d="M449.31,676.56h-.83v0h.83Z" transform="translate(-0.05 -488.9)"/><path class="cls-92" d="M445.06,676.53h.83v0h-.83Z" transform="translate(-0.05 -488.9)"/><path class="cls-93" d="M445.89,673.64h-.83v0h.83Z" transform="translate(-0.05 -488.9)"/><path class="cls-93" d="M449.32,673.64h-.83v0h.83Z" transform="translate(-0.05 -488.9)"/><path class="cls-94" d="M446.92,675.48v-.81h0v.83Z" transform="translate(-0.05 -488.9)"/><path class="cls-95" d="M446,674.6c-.14-.17,0-.37-.06-.55a1.9,1.9,0,0,1,0-.34C446.09,674,446,674.31,446,674.6Z" transform="translate(-0.05 -488.9)"/><path class="cls-96" d="M448.36,674.59h-.05v-.83h.05Z" transform="translate(-0.05 -488.9)"/><path class="cls-97" d="M449.49,674.6h-.06v-.83h.06Z" transform="translate(-0.05 -488.9)"/><path class="cls-98" d="M444.94,675.56l.05,0v.82h-.06v-.78s0,0,0,0Z" transform="translate(-0.05 -488.9)"/><path class="cls-99" d="M446,675.61c.28-.13.59,0,.88-.06-.27.15-.55,0-.83.07C446,675.65,446,675.65,446,675.61Z" transform="translate(-0.05 -488.9)"/><path class="cls-98" d="M444.94,674.6v-.83H445v.82Z" transform="translate(-0.05 -488.9)"/><path class="cls-100" d="M446,675.61H446c-.05.27.09.57-.08.83Z" transform="translate(-0.05 -488.9)"/><path class="cls-97" d="M449.49,675.62v.77h-.06v-.77A0,0,0,0,1,449.49,675.62Z" transform="translate(-0.05 -488.9)"/><path class="cls-101" d="M449.49,675.62h-.06a.13.13,0,0,1,0-.06h.78v.06Z" transform="translate(-0.05 -488.9)"/><path class="cls-102" d="M444.94,675.56a.13.13,0,0,1,0,.06c-.25,0-.52.07-.77-.07Z" transform="translate(-0.05 -488.9)"/><path class="cls-103" d="M439.72,671.17a1.24,1.24,0,0,1-.63-.11A1.36,1.36,0,0,1,439.72,671.17Z" transform="translate(-0.05 -488.9)"/><path class="cls-104" d="M439.33,679.06l-.3,0a.81.81,0,0,1,.51,0Z" transform="translate(-0.05 -488.9)"/><path class="cls-105" d="M438.48,679.1a.39.39,0,0,1,.44,0A.93.93,0,0,1,438.48,679.1Z" transform="translate(-0.05 -488.9)"/><ellipse class="cls-106" cx="434.69" cy="186.18" rx="0.02" ry="0.28"/><path class="cls-107" d="M438.47,671.1a.86.86,0,0,1,.45,0A1,1,0,0,1,438.47,671.1Z" transform="translate(-0.05 -488.9)"/><path class="cls-108" d="M457.85,591.38c-.45-.38-.3-.9-.3-1.37,0-3.7,0-7.39,0-11.08a2.12,2.12,0,0,1,1.18-2.12c3.42-1.88,6.82-3.8,10.23-5.72a1.72,1.72,0,0,1,1.84-.1c3.69,2.08,7.38,4.14,11.06,6.22.13.07.18.26.27.39-1.35,1-2.64,2.11-4.39,2.37-1.56-1.59-3-3.3-5.32-3.89a8.79,8.79,0,0,0-10.87,10.66A5.26,5.26,0,0,1,462,589,8.57,8.57,0,0,1,457.85,591.38Z" transform="translate(-0.05 -488.9)"/><path class="cls-109" d="M477.77,579.88c1.46-.72,2.69-1.89,4.33-2.28.47.44.29,1,.29,1.54q0,5.36,0,10.73c0,.67.2,1.44-.63,1.84a44.82,44.82,0,0,0-4-2.38,27.7,27.7,0,0,0-4.32-2.17c-1.07-1.08-2.82-1.24-3.63-2.69.94-1.64,2.81-1.91,4.22-2.88C475.32,581.11,476.23,579.82,477.77,579.88Z" transform="translate(-0.05 -488.9)"/><path class="cls-110" d="M477.87,589.07c1.28.91,3.17.92,3.89,2.64l-10.87,6.21a1.59,1.59,0,0,1-1.69.07L458,591.64c-.08,0-.11-.17-.16-.26a24.44,24.44,0,0,1,4-2.39c.65,0,.9.55,1.26.94,4,4.45,9.59,4.47,13.63.05C477.09,589.62,477.32,589.15,477.87,589.07Z" transform="translate(-0.05 -488.9)"/><path class="cls-6" d="M477.87,589.07a9.12,9.12,0,0,1-15.41.69l-.58-.77c-1.85-4.73-1.16-8.57,2.08-11.42,4.3-3.8,11.25-2.64,13.81,2.31L474.23,582c-.68.2-1.12-.23-1.6-.57-1.86-1.3-3.53-1.33-5.11-.16a4.08,4.08,0,0,0-1.21,5.08c1.63,2.55,3.82,3,6.29,1.34a1.88,1.88,0,0,1,1-.5C475.35,587,476.48,588.33,477.87,589.07Z" transform="translate(-0.05 -488.9)"/><path class="cls-108" d="M466,586.46a4.34,4.34,0,0,1,1.24-5.61A4.5,4.5,0,0,1,473,581c.4.34.63.92,1.28.91a25.47,25.47,0,0,0-4.27,2.52C468.8,585.43,467.69,586.51,466,586.46Z" transform="translate(-0.05 -488.9)"/><path class="cls-110" d="M466,586.46l4-2c1,.58,1.89,1.18,2.85,1.75.37.22.77.4.78.92C471.22,590,467.54,589.64,466,586.46Z" transform="translate(-0.05 -488.9)"/><path class="cls-111" d="M556.71,762.27l-12.48-.48-13.78-99q-7.29,50.4-14.3,98.8l-12.6,0,3.19-98.75.08-13.66.1-15.37H554l.09,15.3.09,13.73Z" transform="translate(-0.05 -488.9)"/><path class="cls-112" d="M530.15,656.63s3.83,1.87,3.67-22.92" transform="translate(-0.05 -488.9)"/><path class="cls-112" d="M530.44,661.88s-2.07-19.79.17-28.17" transform="translate(-0.05 -488.9)"/><path class="cls-113" d="M554,648.49c-3.82-.73-6.74-4.59-6.74-9.25a10.34,10.34,0,0,1,1.56-5.53h5Z" transform="translate(-0.05 -488.9)"/><path class="cls-113" d="M514.3,638.26c0,4.84-3.15,8.82-7.19,9.33l.19-14.86h5.44A10.34,10.34,0,0,1,514.3,638.26Z" transform="translate(-0.05 -488.9)"/><polygon class="cls-114" points="494.89 77.85 494.89 77.85 494.89 77.85 494.89 77.85"/><path class="cls-114" d="M570.07,595.63c-3.31,1.53-9.75,2.52-13.72,3-.06.72-.11,1.45-.16,2.17-.82,11.72-1.6,22.75-2.33,33.16a131.41,131.41,0,0,1-46.57,0c-.08-.07-.23-.11-.24-.22-.75-11.32-1.54-23.39-2.39-36.28l-.15-2.33c-7.44,0-13.73-.76-13.73-.76.43-12,1.74-21.55,4.16-27.62h0a6.76,6.76,0,0,1,.82-1.52h0c.11-.21,4-6.83,16.85-6.83h35.65s15.41.19,17.69,10.07c.83,3.68,1.59,7.59,2.26,11.7C569.09,585.62,569.68,590.79,570.07,595.63Z" transform="translate(-0.05 -488.9)"/><path class="cls-114" d="M553.1,599c-.7-6.21-2.13-19.37-3.7-27.44h0a6.82,6.82,0,0,1-.19-1.57" transform="translate(-0.05 -488.9)"/><path class="cls-114" d="M509,595.08s1.47-15,2.1-23.61h0" transform="translate(-0.05 -488.9)"/><path class="cls-115" d="M543.66,560.45c0,4.63-6,8.39-13.42,8.39s-13.42-3.76-13.42-8.39a5.36,5.36,0,0,1,.41-2.05h26A5.54,5.54,0,0,1,543.66,560.45Z" transform="translate(-0.05 -488.9)"/><ellipse class="cls-115" cx="514.31" cy="597.31" rx="1.46" ry="1.89" transform="translate(-273.42 79.05) rotate(-47.14)"/><path class="cls-115" d="M508.44,589.77c.77.29,3,3.19,3.79,4.19a5.8,5.8,0,0,0,1.8,1.69c.08.93.17,2.34.27,3.28a8,8,0,0,1-3.65-1.17c-2.49-1.47-2.11-3.71-2.53-3.87s-3.1-.47-3.41-.78.49-.52.49-.52-.8-.45-.75-.65a5.19,5.19,0,0,1,2.06-.7,12.25,12.25,0,0,1,2.89.64s-.85-.92-1.08-1.1-2.91,0-2.9-.41S507.67,589.47,508.44,589.77Z" transform="translate(-0.05 -488.9)"/><path class="cls-116" d="M566.16,596.93c-.31,6.17-1.58,11.23-3.52,12.69-2.82,2.09-10.52,1.28-19.43-.43s-26.86-4.84-26.86-4.84,13.78-5.83,24.91-7.09a46.16,46.16,0,0,1,11.65,0,19.15,19.15,0,0,1,4.85,1.18A79.85,79.85,0,0,0,566.16,596.93Z" transform="translate(-0.05 -488.9)"/><path class="cls-117" d="M522.83,605.49l5.67,1c7.87-2.78,24.14-6.45,23.9-9.26l-5.24-.33Z" transform="translate(-0.05 -488.9)"/><path class="cls-116" d="M557.76,598.45s-32.36,6.35-41.58,9.25c-11.38,3.59-16.26,1.74-18.76-2.43-2-3.28-2.22-4.83-2.61-10.55a123.09,123.09,0,0,0,14.19.36s16.77-1.3,27.56-1.54C550.77,593.23,555.7,595.53,557.76,598.45Z" transform="translate(-0.05 -488.9)"/><path class="cls-118" d="M530.44,661.88" transform="translate(-0.05 -488.9)"/><path class="cls-119" d="M504.1,761.51l.38,4.23a15.41,15.41,0,0,0-4.83,1.22c-2.11.92-4.12,1.78-4.69,3.84a5.47,5.47,0,0,0,.24,3.22l19.41.14.3-12.72Z" transform="translate(-0.05 -488.9)"/><path class="cls-119" d="M545.05,761.82v3.92a12.62,12.62,0,0,0-.62,4.39c.06,1.29.14,3.19,1.28,3.74a1.68,1.68,0,0,0,.91.15h8.74c.29-.14,2.18-1.11,2.41-2.86a5,5,0,0,0-.68-2.75,6.8,6.8,0,0,1-.87-1.45,4.89,4.89,0,0,1-.2-1.75,13.68,13.68,0,0,1,.4-2.93Z" transform="translate(-0.05 -488.9)"/><path class="cls-120" d="M538.17,560.74l-15,.18c0-1.54,0-3.08-.05-4.62q0-3.76,0-7.55a38.72,38.72,0,0,0,4.22,1.81,13.78,13.78,0,0,0,3.92,1.13,9.39,9.39,0,0,0,6.63-3c.08,2.57.15,5.16.19,7.8C538.14,558,538.16,559.35,538.17,560.74Z" transform="translate(-0.05 -488.9)"/><path class="cls-121" d="M540,551.16a16.13,16.13,0,0,1-2.74,3.06,9.36,9.36,0,0,1-6.62,2.95c-2.69-.1-5.33-1.72-7.38-3.55a19.67,19.67,0,0,1-3.08-3.44c-1.43-2.14-2.62-5-3.08-13.89-.34-6.58-.51-9.87.57-11.69,3.22-5.48,10.85-5.8,11.8-5.83.78,0,8.72-.12,12.52,5.55,1.58,2.36,1.52,5.61,1.4,12.11C543.2,545.72,541.12,549.49,540,551.16Z" transform="translate(-0.05 -488.9)"/><path class="cls-122" d="M517.79,537.09a.44.44,0,0,0,.05-.19,34.47,34.47,0,0,0,1-7.75h0a4.08,4.08,0,0,1,1-.78,50,50,0,0,1,19.09-.16,4,4,0,0,1,2.09,1c2.63,2.28,1.53,7.19,1.3,8.13l1,.06c3-7.22,1.59-14.69-3-18.4-1.92-1.55-5.06-2.37-7.63-2.57-1.82-.14-3.71.13-7.48.67a35.93,35.93,0,0,0-4,.83,9.21,9.21,0,0,0-3.45,1.29c-1.34,1.09-1.63,2.75-1.91,4.55-.82,5.24.86,11,1,12.28,0,.23.06.45.08.67.05.49,0,.64.13.7S517.67,537.34,517.79,537.09Z" transform="translate(-0.05 -488.9)"/><path class="cls-122" d="M517.79,537.09l1,7.17a5.23,5.23,0,0,0,1.15,1.93c1,1,1.64,1.57,2.35,2.34.86.94.68,1.05,2.13,2.81a10,10,0,0,0,1.2,1.35,7.58,7.58,0,0,0,7.94,1.51,5.92,5.92,0,0,0,2.57-1.63,16.53,16.53,0,0,0,1.12-1.67c.42-.64.72-1.08,1.32-2,.8-1.16,1.54-2.37,2.38-3.51a6.58,6.58,0,0,0,.69-1.24c.08-.2.13-.37.18-.51a8.38,8.38,0,0,0,.2-1,33.42,33.42,0,0,0,.42-4.57c0-.48-.1-1.06.23-1.3a.83.83,0,0,1,.72-.07,51.15,51.15,0,0,1-.74,7.49c-.53,3-.87,4.84-2,6.93a14.82,14.82,0,0,1-3.52,4.17,10.85,10.85,0,0,1-6,2.19c-5.62.2-10-4.59-11.84-8.55a14.5,14.5,0,0,1-1.17-4.19c-.18-.94-.3-1.8-.47-3.11,0,0-.22-1.67-.31-2.84a8.63,8.63,0,0,0-.1-1.4.22.22,0,0,1,0-.2C517.22,537.07,517.54,537.06,517.79,537.09Z" transform="translate(-0.05 -488.9)"/><path class="cls-122" d="M536.61,549.93l-.05,1.53a4.26,4.26,0,0,0-1-1.92,4.93,4.93,0,0,0-1.23-.84,4.75,4.75,0,0,0-1.68-.76,2.68,2.68,0,0,0-1.47.24.32.32,0,0,1-.28,0,2.67,2.67,0,0,0-1.47-.24,4.75,4.75,0,0,0-1.68.76,4.93,4.93,0,0,0-1.23.84,4.26,4.26,0,0,0-1,1.92c0-.51,0-1,0-1.53.1-1.1.6-1.31.6-1.31l2.71-1.7a1.47,1.47,0,0,1,.69-.27,1.51,1.51,0,0,1,.54.09,1.67,1.67,0,0,1,.54.3.51.51,0,0,0,.94,0,1.67,1.67,0,0,1,.54-.3,1.51,1.51,0,0,1,.54-.09,1.47,1.47,0,0,1,.69.27l2.71,1.7S536.51,548.83,536.61,549.93Z" transform="translate(-0.05 -488.9)"/><path d="M541.05,581.26a8.09,8.09,0,0,1,7.19,3.56c.2.31.74-.43.69-.67l-1.78-8.43-.25-1.2c-.07-.32-.66.39-.69.52l-1.68,8.41-.24,1.22c-.11.52.62-.1.67-.37l1.69-8.41.24-1.21-.69.52,1.78,8.42.26,1.2.69-.67a8.29,8.29,0,0,0-7.36-3.71.73.73,0,0,0-.5.38c0,.06-.22.45,0,.44Z" transform="translate(-0.05 -488.9)"/></svg>