<svg id="Layer_2" data-name="Layer 2" xmlns="http://www.w3.org/2000/svg" viewBox="0 0 612 303"><defs><style>.cls-1,.cls-114,.cls-2,.cls-6{fill:#fff;}.cls-1{opacity:0.41;}.cls-111,.cls-112,.cls-118,.cls-2{stroke:#000;}.cls-111,.cls-112,.cls-113,.cls-114,.cls-115,.cls-116,.cls-118,.cls-121,.cls-2,.cls-3{stroke-miterlimit:10;}.cls-2{stroke-width:2px;}.cls-3,.cls-4{fill:#231f20;opacity:0.29;}.cls-3{stroke:#fff;}.cls-5{fill:#69bd45;}.cls-7{fill:#3a78ae;}.cls-8{fill:#3977ab;}.cls-9{fill:#3978ac;}.cls-10{fill:#6089b8;}.cls-11{fill:#7898c1;}.cls-12{fill:#7495c0;}.cls-13{fill:#8ba4c9;}.cls-14{fill:#8aa3c9;}.cls-15{fill:#ffd444;}.cls-16{fill:#3973a6;}.cls-17{fill:#ffd94b;}.cls-18{fill:#ffcf3e;}.cls-19{fill:#3871a1;}.cls-20{fill:#ffd242;}.cls-21{fill:#ffd647;}.cls-22{fill:#3972a3;}.cls-23{fill:#fedc4f;}.cls-24{fill:#3873a4;}.cls-25{fill:#ffd749;}.cls-26{fill:#3876aa;}.cls-27{fill:#39709f;}.cls-28{fill:#ffcd3b;}.cls-29{fill:#3975a8;}.cls-30{fill:#ffcc3a;}.cls-31{fill:#386e9c;}.cls-32{fill:#ffd040;}.cls-33{fill:#386d9a;}.cls-34{fill:#ffcf3d;}.cls-35{fill:#376c98;}.cls-36{fill:#ffd241;}.cls-37{fill:#ffca38;}.cls-38{fill:#fede52;}.cls-39{fill:#ffd84b;}.cls-40{fill:#386b96;}.cls-41{fill:#3b7bb2;}.cls-42{fill:#3a79ae;}.cls-43{fill:#ffce3d;}.cls-44{fill:#070909;}.cls-45{fill:#74cddd;}.cls-46{fill:#74cddc;}.cls-47{fill:#f6d3a2;}.cls-48{fill:#f6d3a3;}.cls-49{fill:#f6d2a2;}.cls-50{fill:#81d1e3;}.cls-51{fill:#7ed0e1;}.cls-52{fill:#7fd1e2;}.cls-53{fill:#07090a;}.cls-54{fill:#232020;}.cls-55{fill:#080a0a;}.cls-56{fill:#080b0b;}.cls-57{fill:#fcfcfc;}.cls-58{fill:#fbfafa;}.cls-59{fill:#090b0c;}.cls-60{fill:#080a0b;}.cls-61{fill:#ebeae9;}.cls-62{fill:#f1f0f0;}.cls-63{fill:#2caa78;}.cls-64{fill:#54c1de;}.cls-65{fill:#e67125;}.cls-66{fill:#5482a2;}.cls-67{fill:#5b84a3;}.cls-68{fill:#839fb8;}.cls-69{fill:#6f90ad;}.cls-70{fill:#689ad2;}.cls-71{fill:#1a4780;}.cls-72{fill:#025a9d;}.cls-73{fill:#174990;}.cls-74{fill:#7295ba;}.cls-75{fill:#7695b5;}.cls-76{fill:#7aa2ce;}.cls-77{fill:#6894c2;}.cls-78{fill:#163258;}.cls-79{fill:#173258;}.cls-80{fill:#325278;}.cls-81{fill:#295585;}.cls-82{fill:#255284;}.cls-83{fill:#1b406f;}.cls-84{fill:#223c75;}.cls-85{fill:#37577d;}.cls-86{fill:#fdfdfe;}.cls-87{fill:#fdfefe;}.cls-88{fill:#104d94;}.cls-89{fill:#02569d;}.cls-90{fill:#055197;}.cls-91{fill:#02549b;}.cls-92{fill:#01549a;}.cls-93{fill:#00539a;}.cls-94{fill:#154983;}.cls-95{fill:#225682;}.cls-96{fill:#0c4f95;}.cls-97{fill:#025596;}.cls-98{fill:#134a81;}.cls-99{fill:#144c92;}.cls-100{fill:#225782;}.cls-101{fill:#134c93;}.cls-102{fill:#144c93;}.cls-103{fill:#7da2c9;}.cls-104{fill:#1c4072;}.cls-105{fill:#233871;}.cls-106{fill:#6493c6;}.cls-107{fill:#5993ce;}.cls-108{fill:#5f6bb2;}.cls-109{fill:#414da1;}.cls-110{fill:#2a3a91;}.cls-111,.cls-118{fill:#6aa6da;}.cls-111,.cls-112,.cls-113,.cls-114,.cls-115{stroke-width:0.5px;}.cls-112,.cls-113{fill:none;}.cls-113,.cls-114{stroke:#231f20;}.cls-115,.cls-116,.cls-120,.cls-121{fill:#fbc1a4;}.cls-115,.cls-116,.cls-121{stroke:#070808;}.cls-116{stroke-width:0.25px;}.cls-117{fill:#f79d7d;}.cls-118{stroke-width:7px;}.cls-119{fill:#070808;}.cls-122{fill:#151314;}</style></defs><rect width="612" height="303"/><polyline class="cls-1" points="369.42 286.43 457.45 0.51 550.41 0.06 597.58 286.43"/><ellipse class="cls-2" cx="483.5" cy="286.43" rx="114.08" ry="10.68"/><ellipse class="cls-3" cx="521.65" cy="284.79" rx="39.1" ry="3.78"/><ellipse class="cls-4" cx="464.6" cy="288.93" rx="7.67" ry="1.25"/><ellipse class="cls-4" cx="417.03" cy="284.29" rx="8.73" ry="1.25"/><rect class="cls-5" x="455.06" y="259.59" width="19.6" height="19.6"/><rect class="cls-5" x="457.66" y="277.21" width="4.31" height="11.98" rx="2.15"/><rect class="cls-5" x="449.78" y="750.99" width="4.31" height="11.98" rx="2.15" transform="translate(903.83 1025.05) rotate(-180)"/><rect class="cls-5" x="467.7" y="277.21" width="4.31" height="11.98" rx="2.15"/><rect class="cls-5" x="478.17" y="744.38" width="4.31" height="11.98" rx="2.15" transform="translate(289.32 1131.69) rotate(-135)"/><path class="cls-5" d="M474.8,747.66H455a9.9,9.9,0,0,1,19.8,0Z" transform="translate(-0.05 -488.9)"/><circle class="cls-6" cx="460.9" cy="253.8" r="1.08"/><circle class="cls-6" cx="468.78" cy="253.8" r="1.08"/><rect class="cls-5" x="458.07" y="734.04" width="0.57" height="6.31" rx="0.29" transform="translate(-307.24 -160.96) rotate(-30)"/><rect class="cls-5" x="471.06" y="734.04" width="0.57" height="6.31" rx="0.29" transform="translate(431.7 -625.81) rotate(30)"/><path class="cls-7" d="M402.36,699h1.72c0,.15-.1.2-.18.28-1.08,1.09-2.18,2.17-3.26,3.27-.59.62-1.19,1.23-1.8,1.84-.07.07-.12.19-.26.15a.34.34,0,0,1,0-.1c0-.09,0-.19,0-.27v-.37a5.25,5.25,0,0,0,.14-.87,2.21,2.21,0,0,0,.05-.25,2.28,2.28,0,0,1,.36-.46l3.07-3.07A.43.43,0,0,1,402.36,699Z" transform="translate(-0.05 -488.9)"/><path class="cls-8" d="M407.34,698.14h-1.26c0-.09.05-.14.1-.19.3-.33.59-.66.91-1a3.76,3.76,0,0,0,.25-.31,1.25,1.25,0,0,0,.9-.93,1.38,1.38,0,0,0,.26-.22l2.41-2.4c.1-.11.19-.23.29-.33h.28a2,2,0,0,0,.54.09l.34.05c0,.17-.1.25-.2.34-1.17,1.18-2.36,2.35-3.52,3.54C408.2,697.26,407.79,697.72,407.34,698.14Z" transform="translate(-0.05 -488.9)"/><path class="cls-9" d="M404.41,699h.69c.07.15-.06.21-.13.29-.74.74-1.49,1.46-2.21,2.22-1.27,1.33-2.59,2.6-3.87,3.9-.08.08-.15.22-.31.16h0v-.32a.77.77,0,0,0,0-.3.17.17,0,0,1,0-.07,18.8,18.8,0,0,0,1.67-1.67c.18-.2.38-.38.58-.58l2.89-2.89A7.94,7.94,0,0,0,404.41,699Z" transform="translate(-0.05 -488.9)"/><path class="cls-7" d="M408.31,692.94l.8-.09c.06,0,.14,0,.18-.05h.42c.1.05.21,0,.31,0h.1c.06.09,0,.14-.07.19-.6.67-1.24,1.3-1.88,1.93a.31.31,0,0,1-.15.1,1.3,1.3,0,0,0-.81-.35,2.34,2.34,0,0,0-.64.18c-.13,0-.07-.12,0-.17a3.06,3.06,0,0,1,.3-.32c.46-.46.93-.91,1.37-1.38Z" transform="translate(-0.05 -488.9)"/><path class="cls-9" d="M408,695c.35-.36.7-.71,1-1.08s.69-.73,1-1.1a2.73,2.73,0,0,1,.57,0c.1,0,.21,0,.31,0h.19a.48.48,0,0,1-.17.29l-2.56,2.55c-.06.06-.11.14-.21.13A4.83,4.83,0,0,1,408,695Z" transform="translate(-0.05 -488.9)"/><path class="cls-10" d="M410.74,692.84H410a0,0,0,0,1,0,0h.71s0,0,0,0Z" transform="translate(-0.05 -488.9)"/><path class="cls-11" d="M398.6,704.85v0s0,0,0,0v-.46s0,0,0,0v.09A.26.26,0,0,1,398.6,704.85Z" transform="translate(-0.05 -488.9)"/><path class="cls-12" d="M410,692.8v0c-.1,0-.22,0-.32,0Z" transform="translate(-0.05 -488.9)"/><path class="cls-13" d="M398.54,704.89h0c0,.1.05.22,0,.32Z" transform="translate(-0.05 -488.9)"/><path class="cls-12" d="M410.74,692.84v0H411C410.93,692.89,410.83,692.83,410.74,692.84Z" transform="translate(-0.05 -488.9)"/><path class="cls-14" d="M398.59,704.43h0v-.28C398.63,704.23,398.58,704.33,398.59,704.43Z" transform="translate(-0.05 -488.9)"/><path class="cls-15" d="M407.24,716.11a3.87,3.87,0,0,1-1.62-.84c0-.12.06-.17.12-.23.76-.75,1.48-1.55,2.22-2.32s1.67-1.76,2.51-2.64l2.47-2.62,2.25-2.38a3.65,3.65,0,0,0,.47-.57,3.86,3.86,0,0,0,.83-.88c.19-.09.29-.27.43-.41.76-.76,1.49-1.57,2.24-2.35.41-.43.84-.86,1.23-1.31.06-.07.12-.17.24-.15a3.33,3.33,0,0,1,1.07,1.39,1.45,1.45,0,0,1-.33.44c-.29.32-.59.62-.88.92-.74.76-1.46,1.53-2.18,2.29l-3,3.18c-.79.84-1.58,1.68-2.38,2.51a.22.22,0,0,0-.08.14c.55,0,1.09,0,1.64,0h4c.17,0,.34-.06.49.07a.67.67,0,0,1-.34,0h-8c-.2,0-.27,0-.27.25,0,.56,0,.56.56.56h5c.08,0,.17,0,.24,0a.31.31,0,0,1-.24.07h-3.21a1.4,1.4,0,0,0-1.43.53c-.87,1-1.8,1.92-2.7,2.87-.4.42-.81.81-1.18,1.25A.41.41,0,0,1,407.24,716.11Z" transform="translate(-0.05 -488.9)"/><path class="cls-16" d="M408.22,699H410c.07.14-.06.2-.13.27l-1.54,1.55c-.62.62-1.25,1.22-1.85,1.86-1.74,1.82-3.55,3.55-5.3,5.35l-1.2,1.23c-.07.07-.12.15-.22.17a4.11,4.11,0,0,1-.7-1.26c.35-.35.68-.72,1-1.07,1.5-1.52,3-3,4.52-4.55,1.09-1.11,2.2-2.2,3.29-3.31A1.08,1.08,0,0,1,408.22,699Z" transform="translate(-0.05 -488.9)"/><path class="cls-17" d="M410.18,705h2.46a.19.19,0,0,1-.07.2c-.13.13-.22.28-.35.41-.74.73-1.43,1.5-2.15,2.25s-1.65,1.74-2.47,2.61-1.73,1.84-2.61,2.75c-.07.07-.13.16-.25.1v-2.6c.27-.29.53-.59.81-.87.71-.73,1.4-1.48,2.11-2.22s1.55-1.65,2.33-2.46A1.54,1.54,0,0,1,410.18,705Z" transform="translate(-0.05 -488.9)"/><path class="cls-18" d="M416.78,710.33h-2.37c-.06-.07,0-.13,0-.18s.2-.25.32-.37c.76-.75,1.48-1.55,2.23-2.33,1-1.06,2-2.15,3-3.22.52-.55,1-1.12,1.56-1.65.13-.13.22-.28.36-.4s.17-.09.21.06a9.91,9.91,0,0,1,.23,2.24,1.76,1.76,0,0,0-.49.41c-.31.39-.68.73-1,1.09l-1.23,1.3c-.91.94-1.79,1.91-2.71,2.84A1.81,1.81,0,0,1,416.78,710.33Z" transform="translate(-0.05 -488.9)"/><path class="cls-19" d="M415.89,694.71a2,2,0,0,1,.33,1.48,1.08,1.08,0,0,1-.18.24c-1.91,1.89-3.76,3.84-5.68,5.73-.38.37-.76.75-1.13,1.14s-.54.59-.84.87c-.07.07-.14.15-.25.14-.42,0-.84,0-1.27,0l-.46,0c-.12,0-.07-.07-.05-.12a.7.7,0,0,1,.16-.19c1.67-1.72,3.39-3.39,5.05-5.11,1.34-1.37,2.71-2.71,4.05-4.07C415.69,694.81,415.75,694.69,415.89,694.71Z" transform="translate(-0.05 -488.9)"/><path class="cls-20" d="M422.17,702.24c-.06-.09-.12-.09-.2,0l-1.82,2c-.28.3-.58.58-.85.89s-.76.79-1.14,1.19c-.84.91-1.7,1.81-2.56,2.71-.36.39-.76.75-1.09,1.17,0,.06-.1.09-.1.17h-1.49c-.06,0-.14,0-.16-.05s0-.09.08-.13c.42-.44.85-.87,1.27-1.32l1.8-1.9c.51-.53,1-1.07,1.51-1.6.75-.81,1.51-1.61,2.26-2.4.53-.55,1-1.13,1.58-1.66a3.39,3.39,0,0,1,.44-.48A5.28,5.28,0,0,1,422.17,702.24Z" transform="translate(-0.05 -488.9)"/><path class="cls-21" d="M415.66,704.51a.25.25,0,0,1-.07.21l-1.22,1.3-2,2.12c-.52.57-1.06,1.12-1.59,1.69l-1.71,1.8c-.54.58-1.09,1.16-1.64,1.73s-1.2,1.27-1.79,1.91a1.84,1.84,0,0,1-.56-.65.14.14,0,0,1,0-.19c.13-.13.23-.29.37-.41.48-.46.92-1,1.38-1.45l2.54-2.67c.53-.56,1.05-1.12,1.58-1.67.86-.91,1.71-1.82,2.57-2.72a2.53,2.53,0,0,1,.5-.48h0c.08,0,.16,0,.24,0l.13,0s.05,0,.06,0,.13,0,.18,0A4.59,4.59,0,0,0,415.66,704.51Z" transform="translate(-0.05 -488.9)"/><path class="cls-22" d="M415.89,694.71l-.19.17c-.87.87-1.75,1.73-2.61,2.61-1.66,1.7-3.35,3.37-5,5.07-.54.55-1.08,1.09-1.61,1.64,0,0-.16.08-.06.18a3.36,3.36,0,0,0-1.53.82,2.85,2.85,0,0,0-.75,1.33l0,.08a2.31,2.31,0,0,1-.14.19c-1.09,1.09-2.15,2.22-3.25,3.3l-.06,0a1.16,1.16,0,0,1-.47-.35c-.06-.16.07-.22.15-.31.89-.89,1.79-1.76,2.66-2.66,1.68-1.76,3.44-3.42,5.12-5.17,1.48-1.54,3-3,4.5-4.54.87-.92,1.78-1.81,2.67-2.72.07-.07.13-.18.26-.15A1,1,0,0,1,415.89,694.71Z" transform="translate(-0.05 -488.9)"/><path class="cls-23" d="M410.18,705a.21.21,0,0,1-.09.15l-1.25,1.29-2.6,2.74c-.43.46-.86.93-1.3,1.39-.05.06-.1.14-.2.15V708.2c.19-.22.39-.44.59-.65.73-.74,1.41-1.52,2.15-2.25a2.85,2.85,0,0,1,.23-.26Z" transform="translate(-0.05 -488.9)"/><path class="cls-24" d="M415.53,694.24a3.56,3.56,0,0,0-.45.42c-.64.64-1.3,1.27-1.92,1.93-1.54,1.62-3.16,3.15-4.71,4.75s-3.39,3.38-5.05,5.1c-1,1.06-2.07,2.09-3.1,3.14-.06.06-.13.11-.13.21a1.9,1.9,0,0,1-.37-.38l.12-.14c2-2,4-4,5.95-6,1.34-1.37,2.71-2.71,4.05-4.08.05,0,.12-.1.12-.19h.44c.09-.12,0-.26,0-.4a.33.33,0,0,1,.1-.24c1.43-1.41,2.84-2.84,4.26-4.25.08-.08.13-.19.26-.17A.94.94,0,0,1,415.53,694.24Z" transform="translate(-0.05 -488.9)"/><path class="cls-25" d="M404.74,713.36c.15,0,.2-.13.28-.22.49-.5,1-1,1.45-1.5l1.71-1.8c.53-.57,1.07-1.14,1.61-1.7s1.1-1.15,1.63-1.74a15,15,0,0,0,1.09-1.17,2.14,2.14,0,0,0,.13-.19h1.21c0,.07,0,.12,0,.17s-.2.25-.32.36c-.49.47-.93,1-1.39,1.46s-1.14,1.2-1.71,1.8l-1.59,1.68c-.57.61-1.15,1.21-1.72,1.81s-1.06,1.15-1.62,1.7a3.27,3.27,0,0,1-.3.35c-.06,0-.11.14-.21.07A1.73,1.73,0,0,1,404.74,713.36Z" transform="translate(-0.05 -488.9)"/><path class="cls-26" d="M406.27,699h1.25c0,.17-.1.25-.19.35l-2.78,2.77-1.47,1.46c-.3.29-.57.63-.87.93l-2.92,2.92c-.1.1-.19.25-.37.18a3.51,3.51,0,0,1-.19-.91c-.05-.09,0-.14.07-.2,1.47-1.45,2.94-2.91,4.39-4.39l2.89-2.93Z" transform="translate(-0.05 -488.9)"/><path class="cls-27" d="M408.22,704.28c.3-.34.62-.67.94-1,1.35-1.37,2.73-2.71,4.07-4.09.92-1,1.87-1.89,2.8-2.84l.19-.17v1.31a1.3,1.3,0,0,1-.18.23c-1.7,1.76-3.44,3.48-5.16,5.21-.39.41-.77.82-1.17,1.22-.08.08-.15.16-.28.15h-1C408.37,704.31,408.29,704.34,408.22,704.28Z" transform="translate(-0.05 -488.9)"/><path class="cls-28" d="M416.78,710.33a.41.41,0,0,1,.13-.24c.34-.34.68-.69,1-1.05.7-.75,1.43-1.48,2.13-2.23.52-.56,1.05-1.13,1.59-1.68.17-.18.32-.37.5-.55a.26.26,0,0,1,.26-.1,8.42,8.42,0,0,1-.13,2,1.21,1.21,0,0,0-.41.43.24.24,0,0,1-.06.08c-.46.38-.8.89-1.26,1.28a1.3,1.3,0,0,0-.31.35.18.18,0,0,1-.06.09c-.49.4-.82,1-1.32,1.34-.11.08-.18.21-.3.28Z" transform="translate(-0.05 -488.9)"/><path class="cls-29" d="M407.34,698.14c0-.09.07-.13.12-.19,1.54-1.59,3.11-3.15,4.68-4.72a.89.89,0,0,0,.22-.29,5.42,5.42,0,0,1,1.59.37c-.06.12-.19.19-.29.29l-3.94,3.94a5.34,5.34,0,0,1-.57.6Z" transform="translate(-0.05 -488.9)"/><path class="cls-16" d="M409.15,698.14a2.12,2.12,0,0,1,.47-.56q2-2.05,4.07-4.09a.76.76,0,0,1,.26-.18,3.76,3.76,0,0,1,1,.46c.06,0,.15.06.17.15l-.58.56-3.94,3.93c-.08.07-.06.15-.07.23s.06.25-.07.34a4.24,4.24,0,0,0,0-.71c0-.14-.09-.12-.17-.12Z" transform="translate(-0.05 -488.9)"/><path class="cls-8" d="M406.27,699c0,.1-.08.15-.14.21l-4.7,4.75-2.66,2.64a.23.23,0,0,0,0,.1,7.14,7.14,0,0,1-.15-1.13c.1,0,.15-.08.21-.14,1.15-1.14,2.32-2.27,3.44-3.45.9-.94,1.83-1.84,2.74-2.77.06-.06.14-.11.13-.21Z" transform="translate(-0.05 -488.9)"/><path class="cls-30" d="M416,711.22h.23c0,.18,0,.36,0,.53,0,.72,0,1.43,0,2.14a.36.36,0,0,1,0,.23c-.12-.11,0-.27-.1-.41-.22.2-.43.4-.63.62-.42.48-.85.95-1.3,1.39a2.44,2.44,0,0,0-.35.43,7.64,7.64,0,0,1-2.13.33c-.15,0-.32,0-.47,0H411c-.06-.12,0-.18.1-.23.44-.42.83-.9,1.26-1.32a3.33,3.33,0,0,0,.36-.39c.08-.1.16-.2.3-.19a1.36,1.36,0,0,1,.21.1,1,1,0,0,0,1.2-.12,1,1,0,0,0,.14-1.23,1.64,1.64,0,0,1-.14-.22.21.21,0,0,1,.09-.2c.49-.47.92-1,1.4-1.46Z" transform="translate(-0.05 -488.9)"/><path class="cls-31" d="M409.53,704.28l.08-.1c1.25-1.31,2.53-2.57,3.8-3.85l2.62-2.67.19-.16v1.3a1.3,1.3,0,0,1-.32.42L413,702.08c-.68.68-1.32,1.4-2,2.06-.09.08-.16.18-.29.17h-1C409.67,704.31,409.59,704.34,409.53,704.28Z" transform="translate(-0.05 -488.9)"/><path class="cls-32" d="M412.69,711.22h1.63a.64.64,0,0,1-.26.4c-.47.45-.9.94-1.35,1.41-.9.93-1.77,1.88-2.67,2.81-.21.21-.39.45-.61.64h-.23c-.09,0-.2,0-.29,0a2.92,2.92,0,0,1-.88-.12c0-.19.15-.29.26-.41.31-.34.62-.66.94-1,.73-.75,1.45-1.52,2.17-2.29A15.5,15.5,0,0,0,412.69,711.22Z" transform="translate(-0.05 -488.9)"/><path class="cls-33" d="M410.83,704.28l.1-.12c1.65-1.7,3.32-3.37,5-5,.1-.1.16-.25.29-.32v1.49a1,1,0,0,1-.2.25c-.3.3-.59.61-.9.9-.9.88-1.74,1.82-2.64,2.69-.08.08-.16.19-.3.18h-1.13C411,704.31,410.89,704.34,410.83,704.28Z" transform="translate(-0.05 -488.9)"/><path class="cls-34" d="M409.43,716.48a3.53,3.53,0,0,1,.61-.72c.76-.82,1.56-1.61,2.32-2.43.55-.59,1.1-1.18,1.66-1.75.11-.11.2-.24.3-.36h1.06c0,.23-.23.35-.37.51a4.81,4.81,0,0,1-.5.51,2.13,2.13,0,0,0-.36.49,1.7,1.7,0,0,0-.71,0,1,1,0,0,0-.57,1.34c.06.12.17.21.16.36a.24.24,0,0,0-.19.11c-.57.63-1.15,1.24-1.75,1.84a.2.2,0,0,0-.08.14A9.27,9.27,0,0,1,409.43,716.48Z" transform="translate(-0.05 -488.9)"/><path class="cls-29" d="M398.92,707.59a.43.43,0,0,0,.29-.18c1.16-1.16,2.35-2.3,3.48-3.49,1.51-1.58,3.1-3.09,4.63-4.66a.72.72,0,0,0,.2-.28h.7a1,1,0,0,1-.17.19c-.83.84-1.68,1.66-2.49,2.51-1.82,1.89-3.7,3.71-5.53,5.58-.24.24-.47.51-.72.75-.06.06-.11.14-.21.14A2.16,2.16,0,0,1,398.92,707.59Z" transform="translate(-0.05 -488.9)"/><path class="cls-35" d="M412.27,704.28s0,0,0,0l3.83-3.88.09-.07a6.33,6.33,0,0,1-.13,2,.54.54,0,0,0,0,.11.08.08,0,0,0-.07,0c-.53.52-1,1.07-1.55,1.62a4.88,4.88,0,0,1-2.15.26Z" transform="translate(-0.05 -488.9)"/><path class="cls-19" d="M400.64,710.14c0-.1.08-.14.14-.2l.79-.79,2.32-2.37.2-.17a9.9,9.9,0,0,0-.15,2,1.61,1.61,0,0,1-.32.42l-1.33,1.33a1,1,0,0,1-.26.2A2.21,2.21,0,0,1,400.64,710.14Z" transform="translate(-0.05 -488.9)"/><path class="cls-36" d="M412.69,711.22c-.05.25-.25.39-.4.56-.74.79-1.5,1.55-2.24,2.34-.58.61-1.15,1.23-1.74,1.83a3.17,3.17,0,0,0-.28.36,3.52,3.52,0,0,1-.79-.2c.18-.2.34-.4.52-.59.47-.49.94-1,1.4-1.45l2.6-2.77a.26.26,0,0,1,.21-.08Z" transform="translate(-0.05 -488.9)"/><path class="cls-21" d="M420.63,699.41c-.46.43-.87.91-1.31,1.37l-.09.1c-.48.5-1,1-1.44,1.51s-.73.7-1,1.1a.25.25,0,0,1-.27.14,5.8,5.8,0,0,0,.42-1.07c.06,0,0-.11.09-.15s-.07,0,0-.08a2.22,2.22,0,0,1,.06-.51c.25-.25.47-.53.72-.78.62-.62,1.2-1.28,1.82-1.91.08-.08.15-.2.31-.15A1.86,1.86,0,0,1,420.63,699.41Z" transform="translate(-0.05 -488.9)"/><path class="cls-37" d="M418.55,710.33a.84.84,0,0,1,.3-.35,2.17,2.17,0,0,0,.55-.58c.1-.2.33-.28.46-.45.37-.48.86-.83,1.21-1.33a1.88,1.88,0,0,1,.44-.4c.22-.18.32-.44.52-.62s.13-.14.24-.12c-.07.32-.13.64-.22,1a3.77,3.77,0,0,1-2.15,2.69,2.41,2.41,0,0,1-.87.21Z" transform="translate(-0.05 -488.9)"/><path class="cls-38" d="M407.71,705a.44.44,0,0,1-.13.24c-.39.4-.78.8-1.16,1.21l-1.48,1.56c-.05.06-.1.14-.2.15A2.94,2.94,0,0,1,407.71,705Z" transform="translate(-0.05 -488.9)"/><path class="cls-25" d="M417,701.59v-1.16a.77.77,0,0,1,.14-.21c.44-.41.81-.87,1.24-1.29a.27.27,0,0,1,.19-.11c.25,0,.51,0,.76,0a.32.32,0,0,1,.23,0,.35.35,0,0,1-.14.28l-.53.58c-.55.57-1.11,1.14-1.64,1.73C417.21,701.55,417.15,701.65,417,701.59Z" transform="translate(-0.05 -488.9)"/><path class="cls-37" d="M413.85,716.15c0-.18.12-.26.21-.36.27-.31.59-.59.86-.91s.71-.75,1.07-1.12c.06-.06.11-.18.2-.13s0,.15,0,.23a2.26,2.26,0,0,1,0,.26,1.72,1.72,0,0,1-.68,1.22A3.84,3.84,0,0,1,413.85,716.15Z" transform="translate(-0.05 -488.9)"/><path class="cls-27" d="M402,710.52l1.91-1.95v1.21l-.74.74Z" transform="translate(-0.05 -488.9)"/><path class="cls-39" d="M419.35,698.84h-.05c-.68-.15-1.05.27-1.43.73a11.47,11.47,0,0,1-.85.86c0-.49,0-1,0-1.47,0-.08,0-.16.11-.16l2.17,0Z" transform="translate(-0.05 -488.9)"/><path class="cls-21" d="M405,714.43c.13,0,.19-.12.27-.2.39-.41.76-.83,1.15-1.24.73-.76,1.46-1.51,2.18-2.28.51-.55,1-1.09,1.55-1.63.86-.9,1.71-1.79,2.55-2.7.36-.4.76-.75,1.09-1.17,0-.06.1-.1.1-.18H414c-.16.18-.31.37-.47.54-.47.49-.95,1-1.41,1.45-.84.91-1.69,1.8-2.55,2.7L408,711.41c-.57.6-1.15,1.19-1.71,1.8-.38.42-.81.8-1.17,1.25a.25.25,0,0,0-.08.16A.24.24,0,0,1,405,714.43Z" transform="translate(-0.05 -488.9)"/><path class="cls-21" d="M417,701.59c.12,0,.17-.1.24-.17.51-.58,1.06-1.12,1.58-1.69a5,5,0,0,0,.74-.84.52.52,0,0,1,.29.09,3,3,0,0,0-.76.7l-.1.12-1.4,1.45c-.19.2-.32.46-.59.57Z" transform="translate(-0.05 -488.9)"/><path class="cls-40" d="M414.42,704c-.08-.07,0-.09,0-.12.47-.5,1-1,1.43-1.48,0,0,.07-.2.15,0A2.55,2.55,0,0,1,414.42,704Z" transform="translate(-0.05 -488.9)"/><path class="cls-31" d="M403.2,710.52a2.38,2.38,0,0,1,.74-.74c0,.2,0,.4,0,.6s0,.16-.17.15Z" transform="translate(-0.05 -488.9)"/><path class="cls-22" d="M412.27,704.28h.9a.39.39,0,0,1-.21,0h-6.09a2.25,2.25,0,0,1,.73,0h4.67Z" transform="translate(-0.05 -488.9)"/><path class="cls-21" d="M414.64,704.94c0,.12-.11.17-.19.25s.16-.19-.05-.21A.41.41,0,0,1,414.64,704.94Z" transform="translate(-0.05 -488.9)"/><path class="cls-21" d="M417,702.33l.11,0c0,.09-.06.18-.16.21S416.91,702.4,417,702.33Z" transform="translate(-0.05 -488.9)"/><path class="cls-34" d="M411.25,716.52a1.06,1.06,0,0,1,.47,0A1.23,1.23,0,0,1,411.25,716.52Z" transform="translate(-0.05 -488.9)"/><path class="cls-36" d="M408.91,716.43c.1,0,.2,0,.29,0A.48.48,0,0,1,408.91,716.43Z" transform="translate(-0.05 -488.9)"/><path class="cls-21" d="M414.27,705c-.07.06-.16,0-.24,0A.33.33,0,0,1,414.27,705Z" transform="translate(-0.05 -488.9)"/><path class="cls-41" d="M408.31,692.94a.79.79,0,0,1-.19.26l-1.47,1.48s-.15.07-.09.17-.06.13-.13.16a.65.65,0,0,0-.22.18L405,696.42c-.07.06-.12.17-.24.15,0-.45,0-.89,0-1.33a1.8,1.8,0,0,1,.8-1.33,5.17,5.17,0,0,1,2.17-.88C407.9,693,408.11,693,408.31,692.94Z" transform="translate(-0.05 -488.9)"/><path class="cls-41" d="M402.36,699c-.06.07-.11.14-.18.21l-3,3c-.14.14-.23.34-.41.44a4.44,4.44,0,0,1,1.92-3.24A2.78,2.78,0,0,1,402.36,699Z" transform="translate(-0.05 -488.9)"/><path class="cls-42" d="M404.74,696.57l1.5-1.48c0-.05.07-.15.17-.1a.33.33,0,0,1-.05.22.93.93,0,0,0,.16,1.15.28.28,0,0,1,.09.13c-.36.4-.75.76-1.13,1.14a2.27,2.27,0,0,1-.56.51c-.13,0-.2,0-.19-.15C404.74,697.51,404.73,697,404.74,696.57Z" transform="translate(-0.05 -488.9)"/><path class="cls-9" d="M398.6,704.85v-.33c.6-.58,1.22-1.15,1.76-1.78l.15-.15,3.41-3.42a1.54,1.54,0,0,0,.17-.19h.33a.58.58,0,0,1-.19.31l-1.94,1.94-3.36,3.41A.58.58,0,0,1,398.6,704.85Z" transform="translate(-0.05 -488.9)"/><path class="cls-9" d="M404.92,698.14l1.56-1.57s.07,0,.1-.05a4,4,0,0,1,.76.19.52.52,0,0,1-.18.29c-.38.36-.72.76-1.08,1.14Z" transform="translate(-0.05 -488.9)"/><path class="cls-6" d="M407.34,696.71a1.25,1.25,0,0,1-.76-.19,1.08,1.08,0,0,1-.17-1.53l.15-.14A1.08,1.08,0,0,1,408,695a1.29,1.29,0,0,1,.22.74A1.1,1.1,0,0,1,407.34,696.71Z" transform="translate(-0.05 -488.9)"/><path class="cls-43" d="M414.18,712.7c-.05-.07,0-.11,0-.18a3.16,3.16,0,0,1,.39-.43,9.38,9.38,0,0,0,.79-.87H416a.7.7,0,0,1-.19.26l-1.34,1.4C414.31,712.91,414.24,712.81,414.18,712.7Z" transform="translate(-0.05 -488.9)"/><path class="cls-6" d="M414.18,712.7l.28.18a1.06,1.06,0,0,1-.33,1.76,1,1,0,0,1-1.33-1.37,1,1,0,0,1,1.22-.61Z" transform="translate(-0.05 -488.9)"/><path class="cls-44" d="M408,759.7a6.73,6.73,0,0,1-.76.38c-.56.17-.91,0-1.05-.47-.08-.24-.29-.45-.17-.74a1.57,1.57,0,0,1,.72-.76,2.44,2.44,0,0,1,1.05-.3c.21,0,.23-.08.23-.27,0-1.43-.23-2.84-.31-4.27a15.94,15.94,0,0,1,.24-4c0-.17,0-.24-.14-.32a1.92,1.92,0,0,1-1.1-2.48,2.4,2.4,0,0,1,2.59-1.59,1.24,1.24,0,0,1,.44.11c.37.27.64.1,1-.13a9.3,9.3,0,0,1,3.71-1.4,14.73,14.73,0,0,1,6.2.1,6.42,6.42,0,0,1,2.56,1.17.35.35,0,0,0,.45,0,2.29,2.29,0,0,1,3.37,2.15,1.91,1.91,0,0,1-1.14,1.68c-.19.1-.22.17-.17.38a22.64,22.64,0,0,1,.49,4.79c0,1.22,0,2.44,0,3.65,0,.24.06.31.3.34a2,2,0,0,1,1.34.69.7.7,0,0,1,.07,1,1.34,1.34,0,0,0-.07.18.65.65,0,0,1-.79.45,3.16,3.16,0,0,1-.7-.27c0,.87.08,1.72.1,2.56a14.67,14.67,0,0,1-.76,5.54,6.55,6.55,0,0,1-1.27,2.16c-.13.14-.1.21,0,.32a2.69,2.69,0,0,1,.92,1.26c.14.49,0,.82-.54,1.19a.88.88,0,0,1-1.11,0,8.62,8.62,0,0,1-.93-1,.44.44,0,0,0-.61-.1,10.93,10.93,0,0,1-4,1,12.87,12.87,0,0,1-5.64-.64,1.39,1.39,0,0,0-1.55.3,6.27,6.27,0,0,1-.92.71.82.82,0,0,1-1.11-.13,1.08,1.08,0,0,1-.52-.9,1.39,1.39,0,0,1,.56-1,5.5,5.5,0,0,1,.61-.47c.12-.09.13-.14,0-.24a6.87,6.87,0,0,1-1.82-4.38,27,27,0,0,1,.11-4.92C408,760.57,408,760.17,408,759.7Z" transform="translate(-0.05 -488.9)"/><path class="cls-45" d="M408.14,751.63a8.29,8.29,0,0,1,1.74-5.49,6.74,6.74,0,0,1,3.59-2,14.58,14.58,0,0,1,6.76-.2,6,6,0,0,1,4.94,4.78,21.81,21.81,0,0,1,.56,5.33c0,2.65.15,5.29.28,7.93,0,.13,0,.26,0,.39a3.09,3.09,0,0,0,0,1,11.61,11.61,0,0,1-1,5.1,6.08,6.08,0,0,1-3.82,3.21,13,13,0,0,1-9-.15,6,6,0,0,1-3.94-5.37,27,27,0,0,1,.1-5.24,29.45,29.45,0,0,0,0-4.88,32.71,32.71,0,0,1-.22-3.42A3.47,3.47,0,0,0,408.14,751.63Z" transform="translate(-0.05 -488.9)"/><path class="cls-46" d="M426.52,747a1.54,1.54,0,0,1-1,1.22c-.14-.39-.27-.76-.41-1.13a.29.29,0,0,1,0-.24.69.69,0,0,0-.61-1,.34.34,0,0,1-.3-.14c-.15-.19-.31-.36-.49-.56a1.75,1.75,0,0,1,1.63-.14,1.84,1.84,0,0,1,1.14,1.49A2.18,2.18,0,0,0,426.52,747Z" transform="translate(-0.05 -488.9)"/><path class="cls-46" d="M409.84,745.51c-.22.26-.45.52-.65.79s-.18.09-.28.06a.65.65,0,0,0-.85.33.63.63,0,0,0,.2.88.22.22,0,0,1,.08.32,2,2,0,0,0-.14.43c-.05.23-.13.28-.35.15a1.5,1.5,0,0,1-.65-2.05A1.9,1.9,0,0,1,409.84,745.51Z" transform="translate(-0.05 -488.9)"/><path class="cls-47" d="M408.92,772.23a.57.57,0,0,1,.09-.61,3.89,3.89,0,0,1,1-.84c.1-.07.16,0,.23,0a7.61,7.61,0,0,0,1.15.75,8.8,8.8,0,0,0-1.28.94,2.17,2.17,0,0,1-.45.25.26.26,0,0,1-.29-.08c-.1-.1,0-.2,0-.29s.18-.27.26-.41.15-.29,0-.4-.27,0-.35.16Z" transform="translate(-0.05 -488.9)"/><path class="cls-48" d="M425,772.14c-.14-.24-.23-.41-.35-.58s-.21-.24-.37-.1-.09.25,0,.36a1.59,1.59,0,0,1,.22.43c.12.25,0,.28-.21.27a.68.68,0,0,1-.41-.25c-.28-.29-.55-.6-.83-.9-.1-.1,0-.13,0-.19l.8-.59c.05,0,.09-.1.17,0a2.15,2.15,0,0,1,1,1.36A1.27,1.27,0,0,1,425,772.14Z" transform="translate(-0.05 -488.9)"/><path class="cls-49" d="M406.42,759.16a.65.65,0,0,1,.3-.5,2,2,0,0,1,1.13-.42c.15,0,.22,0,.2.19s0,.45-.05.68a.16.16,0,0,1,0,.11,4.69,4.69,0,0,1-1,.49.22.22,0,0,1-.23-.07c-.05-.06,0-.1,0-.13s.34-.21.19-.43S406.6,759.06,406.42,759.16Z" transform="translate(-0.05 -488.9)"/><path class="cls-49" d="M427.64,759a.11.11,0,0,1-.16,0,.19.19,0,0,0-.31,0c-.11.13-.05.23.05.35s.25.07.18.21-.25.11-.38,0a4.37,4.37,0,0,1-.49-.23.38.38,0,0,1-.25-.41,1.71,1.71,0,0,0,0-.32c0-.54,0-.54.51-.36S427.53,758.54,427.64,759Z" transform="translate(-0.05 -488.9)"/><path class="cls-50" d="M426,763.29a1.57,1.57,0,0,1,0-1Z" transform="translate(-0.05 -488.9)"/><path class="cls-51" d="M408.14,751.63a1.57,1.57,0,0,1,0,.91Z" transform="translate(-0.05 -488.9)"/><path class="cls-52" d="M426.52,747a.52.52,0,0,1,0-.51A.75.75,0,0,1,426.52,747Z" transform="translate(-0.05 -488.9)"/><path class="cls-53" d="M417.85,749.57a.31.31,0,0,0-.07-.18,2.73,2.73,0,0,1,1.13-4.38,3,3,0,0,1,3.67.86,2.75,2.75,0,0,1-2,4.4,3.13,3.13,0,0,1-2.61-.66s-.09,0-.14-.05Z" transform="translate(-0.05 -488.9)"/><path class="cls-53" d="M413.05,750.6a2.74,2.74,0,0,1-2.78-2,2.79,2.79,0,0,1,2.39-3.53,3.32,3.32,0,0,1,1.87.2,2.59,2.59,0,0,1,1.61,2.45,2.55,2.55,0,0,1-1.33,2.39A3.21,3.21,0,0,1,413.05,750.6Z" transform="translate(-0.05 -488.9)"/><path class="cls-54" d="M415.3,752.42a1,1,0,0,1-.73-1.15,1.31,1.31,0,0,1,.83-1c.11,0,.24-.06.31-.17a2,2,0,0,1,.07.55c-.11.09-.25.12-.36.21a.72.72,0,0,0-.33.67.4.4,0,0,0,.5.4,2.79,2.79,0,0,0,.75-.21,1.74,1.74,0,0,1,1.38,0,2.32,2.32,0,0,0,.58.19.45.45,0,0,0,.4-.78,1.79,1.79,0,0,0-.46-.36,1.16,1.16,0,0,1-.34-.24.75.75,0,0,1,.22-.42,2.74,2.74,0,0,1,1,.75.85.85,0,0,1,.16,1,.9.9,0,0,1-.87.61c-.24,0-.2.12-.21.25-.16-.1-.25-.31-.47-.33a2.54,2.54,0,0,0-.71-.22,1,1,0,0,0-.41.05c-.32.08-.62.21-.94.28A.7.7,0,0,1,415.3,752.42Z" transform="translate(-0.05 -488.9)"/><path class="cls-55" d="M418.12,750.13a.53.53,0,0,1-.21.4c0,.14-.1.19-.19.23a2.35,2.35,0,0,1-1.65.1.36.36,0,0,1-.29-.27c-.18-.15-.12-.33-.07-.52a.89.89,0,0,1,.7-.63,1.9,1.9,0,0,1,1.44.13h0C417.94,749.75,418.14,749.89,418.12,750.13Z" transform="translate(-0.05 -488.9)"/><path class="cls-56" d="M417.79,752.35a.41.41,0,0,1,.44.38c0,.18,0,.35,0,.52a.69.69,0,0,1-.4.74.72.72,0,0,1-.91-.11c-.13-.12-.2-.07-.32,0a.69.69,0,0,1-1.1-.25,2.44,2.44,0,0,1-.22-1.22c.14,0,.31-.07.42.08a3,3,0,0,1,.17.65c.06.15.07.38.31.34s.26-.22.27-.42a1.77,1.77,0,0,1,.14-.91.69.69,0,0,1,.49-.06,2.86,2.86,0,0,1,.06.92c0,.22,0,.47.29.5s.32-.22.29-.55S417.63,752.54,417.79,752.35Z" transform="translate(-0.05 -488.9)"/><path class="cls-6" d="M420.11,749.89a2.75,2.75,0,0,1-1.71-.51,2.2,2.2,0,0,1-.58-2.89,2.84,2.84,0,0,1,3.68-1,2.39,2.39,0,0,1,1.16,2.41,2.31,2.31,0,0,1-1.92,1.93A2.58,2.58,0,0,1,420.11,749.89Z" transform="translate(-0.05 -488.9)"/><path class="cls-6" d="M410.58,747.88a2.41,2.41,0,0,1,2.25-2.4,2.94,2.94,0,0,1,1.25.09,2.31,2.31,0,0,1,.58,4.16,2.75,2.75,0,0,1-3.58-.42A2.21,2.21,0,0,1,410.58,747.88Z" transform="translate(-0.05 -488.9)"/><path class="cls-48" d="M415.78,750.59a1.91,1.91,0,0,0,2.13-.06,2.14,2.14,0,0,1,.88.59.5.5,0,0,1,.09.65.56.56,0,0,1-.67.25h0a2.56,2.56,0,0,0-2.39-.07.49.49,0,0,1-.69-.14.68.68,0,0,1,0-.81A.87.87,0,0,1,415.78,750.59Z" transform="translate(-0.05 -488.9)"/><path class="cls-57" d="M417.79,752.35c0,.3,0,.6,0,.9a.33.33,0,0,1-.37.39.38.38,0,0,1-.4-.38,7.46,7.46,0,0,1,0-1.16A1.74,1.74,0,0,1,417.79,752.35Z" transform="translate(-0.05 -488.9)"/><path class="cls-58" d="M416.61,752.16a9.29,9.29,0,0,0-.05,1.06c0,.23-.18.34-.35.4s-.26-.11-.33-.24a2.05,2.05,0,0,1-.16-.88A2.42,2.42,0,0,1,416.61,752.16Z" transform="translate(-0.05 -488.9)"/><path class="cls-59" d="M418.71,746.84a.85.85,0,0,1,.82.89.89.89,0,0,1-.81.92.87.87,0,0,1-.82-.91A.85.85,0,0,1,418.71,746.84Z" transform="translate(-0.05 -488.9)"/><path class="cls-60" d="M412.61,748a.83.83,0,1,1-1.65,0,.83.83,0,1,1,1.65,0Z" transform="translate(-0.05 -488.9)"/><path class="cls-61" d="M419.28,747.91c0,.16-.07.26-.21.26a.2.2,0,0,1-.18-.22c0-.14.06-.24.2-.23A.19.19,0,0,1,419.28,747.91Z" transform="translate(-0.05 -488.9)"/><path class="cls-62" d="M412.18,748.39a.2.2,0,0,1-.21-.19.2.2,0,0,1,.18-.26c.13,0,.19.07.2.19S412.32,748.36,412.18,748.39Z" transform="translate(-0.05 -488.9)"/><path class="cls-63" d="M481.8,660.78h-4c-.09,0-.1,0-.1.11V667c0,.09,0,.11-.11.08a4.51,4.51,0,0,0-.53-.1,8.68,8.68,0,0,0-3.95.34,6.1,6.1,0,0,0-4,4,8.38,8.38,0,0,0-.22,4.47,5.53,5.53,0,0,0,1.2,2.51,5.64,5.64,0,0,0,2.5,1.68,10.23,10.23,0,0,0,3,.58,22.52,22.52,0,0,0,3.18-.08c1-.1,2-.26,3-.44.09,0,.13,0,.12-.14v-19C481.9,660.8,481.88,660.78,481.8,660.78Zm-3.94,16.33c0,.08,0,.11-.1.12a9.77,9.77,0,0,1-1.62.08,3.54,3.54,0,0,1-1.62-.44,2.67,2.67,0,0,1-1.23-1.62,4.91,4.91,0,0,1,0-2.84,2.8,2.8,0,0,1,2.33-2,4.7,4.7,0,0,1,2.11.11.12.12,0,0,1,.09.14Z" transform="translate(-0.05 -488.9)"/><path class="cls-63" d="M488.74,667.41v9.84s0,.08,0,.12c0,.26,0,.52,0,.78a20.79,20.79,0,0,1-.22,2.85,7,7,0,0,1-1.51,3.44,6.34,6.34,0,0,1-1.67,1.37c-.29.18-.6.34-.91.5a.14.14,0,0,1-.14,0l-3.74-1.77-.07,0,.12-.06a10.88,10.88,0,0,0,1.69-1,4.9,4.9,0,0,0,1.92-2.9,10.17,10.17,0,0,0,.28-2c.08-1,.08-2.09.08-3.14v-8c0-.15,0-.13.13-.13h4.05Z" transform="translate(-0.05 -488.9)"/><path class="cls-63" d="M488.33,662.9v2c0,.09,0,.11-.11.11h-4c-.09,0-.11,0-.11-.11v-4c0-.09,0-.1.11-.1h4c.09,0,.12,0,.12.11C488.32,661.56,488.33,662.23,488.33,662.9Z" transform="translate(-0.05 -488.9)"/><path class="cls-64" d="M459.45,705.89a1.88,1.88,0,1,0,0,3.75,1.88,1.88,0,0,0,0-3.75Zm0,0a1.88,1.88,0,1,0,0,3.75,1.88,1.88,0,0,0,0-3.75Zm0,0a1.88,1.88,0,1,0,0,3.75,1.88,1.88,0,0,0,0-3.75Zm0,0a1.88,1.88,0,1,0,0,3.75,1.88,1.88,0,0,0,0-3.75Zm0,0a1.88,1.88,0,1,0,0,3.75,1.88,1.88,0,0,0,0-3.75Zm0,0a1.88,1.88,0,1,0,0,3.75,1.88,1.88,0,0,0,0-3.75Zm0,0a1.88,1.88,0,1,0,0,3.75,1.88,1.88,0,0,0,0-3.75Zm0,0a1.88,1.88,0,1,0,0,3.75,1.88,1.88,0,0,0,0-3.75Zm10.27,1a3.62,3.62,0,0,0-1.23-1.29,9.16,9.16,0,0,0-2.73-1.26c-.19-.06-.22-.12-.18-.31a9.43,9.43,0,0,0,.28-2.34,4.87,4.87,0,0,0-.3-1.91,1.89,1.89,0,0,0-2-1.36,4.36,4.36,0,0,0-1.88.62,10.44,10.44,0,0,0-2.14,1.59c-.08.08-.13.11-.23,0a8.3,8.3,0,0,0-.9-.77,6.32,6.32,0,0,0-2.9-1.39,1.86,1.86,0,0,0-2.11,1,4.91,4.91,0,0,0-.41,2.54,10.35,10.35,0,0,0,.31,2.07c0,.11,0,.16-.11.19a9.1,9.1,0,0,0-1.51.55,5.74,5.74,0,0,0-2.23,1.57,1.9,1.9,0,0,0-.41,2,3.43,3.43,0,0,0,1.13,1.4,9,9,0,0,0,3,1.46c.1,0,.2.05.16.2a12,12,0,0,0-.3,1.89,5.41,5.41,0,0,0,.27,2.36,1.89,1.89,0,0,0,2,1.38,4,4,0,0,0,1.62-.43,9.4,9.4,0,0,0,2.47-1.73c.1-.1.16-.1.26,0a9.23,9.23,0,0,0,.88.76,6.16,6.16,0,0,0,2.95,1.39,1.84,1.84,0,0,0,1.7-.62,3.63,3.63,0,0,0,.75-2.19,9.59,9.59,0,0,0-.27-2.82c0-.17,0-.21.16-.25a11.08,11.08,0,0,0,1.81-.74,5.52,5.52,0,0,0,1.88-1.47A1.85,1.85,0,0,0,469.72,706.9Zm-9.55-5.59a8.4,8.4,0,0,1,2.68-1.81,2.8,2.8,0,0,1,.86-.17,1,1,0,0,1,.9.53,3.24,3.24,0,0,1,.32,1.1,6.39,6.39,0,0,1,.05.68,11.25,11.25,0,0,1-.28,2.25c0,.14-.08.16-.2.13a18.93,18.93,0,0,0-2.47-.39.37.37,0,0,1-.29-.17,19.72,19.72,0,0,0-1.56-2C460.11,701.43,460.08,701.39,460.17,701.31Zm-5,7.53c.38.74.79,1.43,1.24,2.16-.64-.08-1.23-.16-1.81-.29-.07,0-.11,0-.08-.12C454.68,710,454.88,709.44,455.14,708.84Zm-.17-2.53a12.51,12.51,0,0,1-.45-1.25c0-.08-.06-.15.06-.18a16.28,16.28,0,0,1,1.7-.28l.05,0c-.41.67-.81,1.35-1.18,2.07A1.23,1.23,0,0,1,455,706.31Zm.7,1.59a.26.26,0,0,1,0-.24,25.86,25.86,0,0,1,1.77-3.06.26.26,0,0,1,.21-.14,19.42,19.42,0,0,1,2.75,0,7.56,7.56,0,0,1,.83,0,.3.3,0,0,1,.21.12,33.37,33.37,0,0,1,1.78,3.06.3.3,0,0,1,0,.26,30.07,30.07,0,0,1-1.76,3.07.28.28,0,0,1-.26.14c-.6,0-1.2.07-1.78,0s-1.15,0-1.72,0a.29.29,0,0,1-.24-.14A26.19,26.19,0,0,1,455.67,707.9Zm8.08.9c.1.24.19.43.27.64s.25.69.39,1c.06.16,0,.2-.14.23-.57.11-1.14.21-1.76.28C463,710.26,463.37,709.57,463.75,708.8Zm0-2.08c-.4-.73-.79-1.42-1.23-2.12a4.1,4.1,0,0,1,.67.08l1.07.2c.11,0,.16.07.12.18C464.19,705.6,464,706.15,463.75,706.72Zm-4.38-4.6c.06-.06.09-.06.15,0a16,16,0,0,1,1.14,1.39h-2.44A16,16,0,0,1,459.37,702.12Zm-5.29-1.88a1.11,1.11,0,0,1,1.49-.84,5.79,5.79,0,0,1,2.15,1.07,10.32,10.32,0,0,1,1,.79c.1.08.13.14,0,.25a19.51,19.51,0,0,0-1.62,2,.29.29,0,0,1-.24.11,18.5,18.5,0,0,0-2.46.38c-.13,0-.18,0-.21-.15a9.54,9.54,0,0,1-.28-2.24A4.23,4.23,0,0,1,454.08,700.24Zm-.43,10c0,.16-.11.18-.27.13a7.2,7.2,0,0,1-3.1-1.72,1.47,1.47,0,0,1-.45-.91,1.29,1.29,0,0,1,.38-.84,4.91,4.91,0,0,1,1.79-1.23,9.36,9.36,0,0,1,1.45-.54c.11,0,.16,0,.19.1a20.32,20.32,0,0,0,.92,2.39.28.28,0,0,1,0,.25A18.43,18.43,0,0,0,453.65,710.28Zm5.13,4a7.57,7.57,0,0,1-2.94,1.85,2.37,2.37,0,0,1-.7.1,1,1,0,0,1-.91-.55,3.18,3.18,0,0,1-.32-1.28,4.21,4.21,0,0,1,0-.5,9.18,9.18,0,0,1,.27-2.15c0-.14.08-.17.23-.14a17.64,17.64,0,0,0,2.51.36.29.29,0,0,1,.21.11,21.29,21.29,0,0,0,1.63,2S458.86,714.18,458.78,714.26Zm.79-.82c-.07.1-.12.08-.19,0-.41-.44-.78-.9-1.18-1.41a19,19,0,0,0,2.5,0c-.3.43-.59.78-.89,1.14Zm5.27,1.7a1.22,1.22,0,0,1-1.75,1A6.26,6.26,0,0,1,461,715c-.28-.22-.53-.45-.8-.68-.1-.08-.11-.15,0-.25a15.73,15.73,0,0,0,1.52-1.93.39.39,0,0,1,.32-.19,21,21,0,0,0,2.5-.39c.14,0,.18,0,.2.13a10.48,10.48,0,0,1,.26,2.08A4.93,4.93,0,0,1,464.84,715.14Zm3.73-6.44a6.07,6.07,0,0,1-2.1,1.32c-.32.13-.65.23-1,.36-.12,0-.17,0-.21-.11a20.55,20.55,0,0,0-1-2.39.21.21,0,0,1,0-.23,20.08,20.08,0,0,0,.93-2.37c0-.07,0-.14.14-.11a7.67,7.67,0,0,1,3.2,1.69,1.35,1.35,0,0,1,.44,1.06A1.3,1.3,0,0,1,468.57,708.7Zm-9.13.94a1.88,1.88,0,0,0,0-3.75,1.88,1.88,0,1,0,0,3.75Zm0-3.75a1.88,1.88,0,1,0,0,3.75,1.88,1.88,0,0,0,0-3.75Zm0,0a1.88,1.88,0,1,0,0,3.75,1.88,1.88,0,0,0,0-3.75Zm0,0a1.88,1.88,0,1,0,0,3.75,1.88,1.88,0,0,0,0-3.75Zm0,0a1.88,1.88,0,1,0,0,3.75,1.88,1.88,0,0,0,0-3.75Zm0,0a1.88,1.88,0,1,0,0,3.75,1.88,1.88,0,0,0,0-3.75Zm0,0a1.88,1.88,0,1,0,0,3.75,1.88,1.88,0,0,0,0-3.75Zm0,0a1.88,1.88,0,1,0,0,3.75,1.88,1.88,0,0,0,0-3.75Zm0,0a1.88,1.88,0,1,0,0,3.75,1.88,1.88,0,0,0,0-3.75Z" transform="translate(-0.05 -488.9)"/><path class="cls-6" d="M461.31,707.77a1.87,1.87,0,1,1-3.74,0,1.87,1.87,0,1,1,3.74,0Z" transform="translate(-0.05 -488.9)"/><path class="cls-64" d="M461.31,707.77a1.87,1.87,0,1,1-3.74,0,1.87,1.87,0,1,1,3.74,0Z" transform="translate(-0.05 -488.9)"/><path class="cls-65" d="M467.17,624.82A22.16,22.16,0,0,1,464,621.6a5.09,5.09,0,0,1-1.05-2.24,2.72,2.72,0,0,1,.54-2.06,11.91,11.91,0,0,1,2.34-2.31,35.25,35.25,0,0,0,2.89-2.42,6.54,6.54,0,0,0,1.57-2.32,5.1,5.1,0,0,0,.2-2.71c0-.07,0-.15,0-.22s0-.06,0-.14a3.3,3.3,0,0,1,.74,1.61,5.14,5.14,0,0,1-1.05,3.87,14.51,14.51,0,0,1-3.08,3.13,8,8,0,0,0-2,2.19,3.31,3.31,0,0,0-.19,3.13,11.57,11.57,0,0,0,1.21,2A9.25,9.25,0,0,1,467.17,624.82Z" transform="translate(-0.05 -488.9)"/><path class="cls-66" d="M460.14,634.76a6.45,6.45,0,0,0-2.28.62l-.25.14c-.14.1-.33.2-.3.41s.2.25.36.31a10.52,10.52,0,0,0,2.65.61,40.12,40.12,0,0,0,5.59.3,53.34,53.34,0,0,0,8.56-.61,11.7,11.7,0,0,0,1.84-.43,2.38,2.38,0,0,0,.68-.33.59.59,0,0,0,.26-.8c.48.12.62.53.29.88a2.86,2.86,0,0,1-1.13.68,17.92,17.92,0,0,1-4.08,1,45.33,45.33,0,0,1-8.15.45,52.6,52.6,0,0,1-7.62-.76,2.5,2.5,0,0,1-1-.37.46.46,0,0,1-.11-.77,1.72,1.72,0,0,1,.45-.4,7.68,7.68,0,0,1,3.87-1.13,1.26,1.26,0,0,1,.47.08C460.24,634.72,460.18,634.73,460.14,634.76Z" transform="translate(-0.05 -488.9)"/><path class="cls-65" d="M468.5,625.91c.18-.25.33-.44.46-.64a2.06,2.06,0,0,0-.15-2.51,8.34,8.34,0,0,1-1.18-1.76,3.46,3.46,0,0,1,.67-4,10,10,0,0,1,3.48-2.33,15.89,15.89,0,0,1,2.51-.9c-.07.15-.19.17-.29.23a22.89,22.89,0,0,0-3.6,2.53,5.47,5.47,0,0,0-1,1.12,2,2,0,0,0-.11,2,12.76,12.76,0,0,0,1.13,1.75,2.25,2.25,0,0,1,0,2.75,3.46,3.46,0,0,1-.22.31,6.56,6.56,0,0,1-1.43,1.25Z" transform="translate(-0.05 -488.9)"/><path class="cls-66" d="M462.81,632.27c-.31.42-.26.58.19.73a9.3,9.3,0,0,0,2,.3,17.49,17.49,0,0,0,5.2-.36.77.77,0,0,1,.57.1c.47.25,1,.48,1.47.74a11.07,11.07,0,0,1-2.11.69,14.38,14.38,0,0,1-7.05,0,3.64,3.64,0,0,1-1.37-.63c-.47-.36-.46-.76,0-1.1A3,3,0,0,1,462.81,632.27Z" transform="translate(-0.05 -488.9)"/><path class="cls-66" d="M473.78,626.32a7.85,7.85,0,0,1-3.68,1.13,40.1,40.1,0,0,1-6.57.37,21.77,21.77,0,0,1-4.69-.48,2.48,2.48,0,0,1-.79-.32c-.25-.17-.26-.37,0-.57a1.81,1.81,0,0,1,.29-.19A11.69,11.69,0,0,1,463,625a1.12,1.12,0,0,1,.31,0c-.65.2-1.3.37-1.92.61a3.69,3.69,0,0,0-1,.48c-.31.23-.28.42.08.57a5.09,5.09,0,0,0,1.45.27,44.23,44.23,0,0,0,5.64,0c1.59-.09,3.16-.25,4.73-.47l1.41-.2C473.78,626.22,473.79,626.26,473.78,626.32Z" transform="translate(-0.05 -488.9)"/><path class="cls-66" d="M472.87,630.31a19.29,19.29,0,0,1-2.43.57,25,25,0,0,1-5.39.39,13,13,0,0,1-3.44-.51,2.79,2.79,0,0,1-.93-.46.51.51,0,0,1-.05-.84,3.16,3.16,0,0,1,1.3-.7c0,.07,0,.09,0,.1-.43.51-.16.82.38.94a13.73,13.73,0,0,0,2.48.26,26.65,26.65,0,0,0,6.55-.53.33.33,0,0,1,.32.05A4.27,4.27,0,0,0,472.87,630.31Z" transform="translate(-0.05 -488.9)"/><path class="cls-66" d="M460,638.7c1.07.09,2.14.23,3.22.28,1.32.07,2.64.12,4,.08s2.57-.09,3.86-.23a28,28,0,0,0,6.14-1.19,5.12,5.12,0,0,0,1.93-1.06,1.66,1.66,0,0,1-.66,1,6.24,6.24,0,0,1-2.24,1,24.84,24.84,0,0,1-4.77.77c-1.44.12-2.87.18-4.31.16a33.36,33.36,0,0,1-6.15-.49,4.47,4.47,0,0,1-1.12-.32C459.89,638.64,460,638.68,460,638.7Z" transform="translate(-0.05 -488.9)"/><path class="cls-66" d="M474.05,631c.09-.21.26-.24.4-.31a8.59,8.59,0,0,0,2.81-2.27,2.57,2.57,0,0,0,.52-1.18,2,2,0,0,0-2.56-2.13,1.08,1.08,0,0,1-.49.08,2.79,2.79,0,0,1,2.18-.52,2.59,2.59,0,0,1,1.64.8,2.19,2.19,0,0,1,.26,2.67,4.33,4.33,0,0,1-1.36,1.4A10.77,10.77,0,0,1,474.05,631Z" transform="translate(-0.05 -488.9)"/><path class="cls-67" d="M460,638.7l-.14.06-.28-.09A.53.53,0,0,1,460,638.7Z" transform="translate(-0.05 -488.9)"/><path class="cls-68" d="M460.14,634.76l.06-.11c.06,0,.16,0,.14.07S460.21,634.76,460.14,634.76Z" transform="translate(-0.05 -488.9)"/><path class="cls-69" d="M473.78,626.32l-.07-.07a.26.26,0,0,1,.23,0C473.91,626.29,473.84,626.3,473.78,626.32Z" transform="translate(-0.05 -488.9)"/><path class="cls-70" d="M420.83,665.71a2.43,2.43,0,0,1-.3-1.12q0-5.7,0-11.4a2.22,2.22,0,0,1,1.21-2c1.38-.81,2.76-1.62,4.15-2.41s2.81-1.6,4.22-2.41l1.31-.77a1.93,1.93,0,0,1,.86-.33,3.17,3.17,0,0,1,.87,0,3,3,0,0,1,1.18.54c1.33.76,2.66,1.52,4,2.3l2.4,1.4,2.29,1.31a4.68,4.68,0,0,1,1.21.77,4.57,4.57,0,0,1,.38.49,12.72,12.72,0,0,1-1.18.71l-3.54,2c-.06,0-.11.09-.18.06a8,8,0,0,0-6-4,2.17,2.17,0,0,1-.35-.07,12.68,12.68,0,0,0-1.51,0c-.06.09-.14.09-.23.1a8,8,0,0,0-4.08,1.77,8.13,8.13,0,0,0-2.53,3.7.92.92,0,0,1-.09.23.74.74,0,0,0-.1.46,8.91,8.91,0,0,0-.13,3c0,.1-.12.21,0,.31.15.38.2.78.34,1.16a7.45,7.45,0,0,0,.55,1.22.37.37,0,0,1,.08.24.43.43,0,0,1-.24.22c-1.44.82-2.87,1.66-4.31,2.47C421,665.68,421,665.78,420.83,665.71Z" transform="translate(-0.05 -488.9)"/><path class="cls-71" d="M420.83,665.71l3-1.74,1.78-1c.16,0,.2.19.27.3A7.56,7.56,0,0,0,427.4,665a8.1,8.1,0,0,0,2.08,1.3c.08,0,.18.06.23.14s0,.09,0,.09.12,0,.19,0c.37.11.75.19,1.11.32a.5.5,0,0,0,.27,0,1,1,0,0,1,.38.08l.11.06a1.07,1.07,0,0,0,.56,0,3.66,3.66,0,0,1,.81,0,1.14,1.14,0,0,0,.55,0l.16-.05h.07s.05.05.09,0-.06,0,0-.07a.81.81,0,0,1,.42-.14c.36-.08.71-.16,1.06-.27.12,0,.25,0,.34-.09.4-.24.83-.42,1.23-.67a7.93,7.93,0,0,0,2.47-2.39,2.18,2.18,0,0,1,.26-.36c.08-.06.15,0,.23,0,1,.53,1.93,1.11,2.9,1.65l1.52.89c.09.05.22.09.21.23a2.5,2.5,0,0,1-1.16,1l-9.48,5.46a2.26,2.26,0,0,1-2.39,0l-9.94-5.74A1.76,1.76,0,0,1,420.83,665.71Z" transform="translate(-0.05 -488.9)"/><path class="cls-72" d="M444.55,665.75a11.68,11.68,0,0,0-1.36-.82c-.76-.46-1.53-.89-2.29-1.33l-1.11-.62s0,0-.06,0c-1-.63-2.11-1.23-3.16-1.84a3.11,3.11,0,0,0-.41-.2L432.85,659a.75.75,0,0,1-.18-.13c0-.13.11-.17.19-.22,1-.61,2.09-1.2,3.12-1.81.09,0,.2-.07.29-.11,1-.63,2.07-1.2,3.1-1.81a.44.44,0,0,1,.33-.11c.5-.35,1.05-.63,1.59-.94l3-1.72a.65.65,0,0,1,.33-.14,1.89,1.89,0,0,1,.27.84.71.71,0,0,0,0,.25v11.47a.65.65,0,0,0,0,.24A2,2,0,0,1,444.55,665.75Z" transform="translate(-0.05 -488.9)"/><path class="cls-73" d="M444.87,664.85c-.08-.08,0-.19,0-.29q0-5.68,0-11.38c0-.09,0-.2,0-.29a1.64,1.64,0,0,1,0,.22v11.52A1.5,1.5,0,0,1,444.87,664.85Z" transform="translate(-0.05 -488.9)"/><path class="cls-74" d="M433.15,645.24h-.87A1.44,1.44,0,0,1,433.15,645.24Z" transform="translate(-0.05 -488.9)"/><path class="cls-6" d="M436.18,660.93c.1,0,.18,0,.25.07l3.13,1.81c.08,0,.18.07.17.19a8.1,8.1,0,0,1-1,1.42,8.34,8.34,0,0,1-2.38,1.74l-.55.26c-.08.11-.21.07-.32.12-.5.16-1,.27-1.53.39,0,0,0,0,0,0h-.06c-.12,0-.24,0-.36.08a1.15,1.15,0,0,1-.32,0h-.89a.62.62,0,0,1-.27,0c-.12,0-.25,0-.35-.08l-.39-.06c-.09-.06-.2,0-.28,0l-1.14-.33c-.05,0-.08,0-.11,0a9.06,9.06,0,0,1-2.36-1.44,8,8,0,0,1-1.6-1.91l-.09-.14a9.72,9.72,0,0,1-1-2.66c-.06-.07,0-.14,0-.22a8.93,8.93,0,0,1,.13-3.09,3.69,3.69,0,0,1,.11-.45,9.13,9.13,0,0,1,1.15-2.32,8,8,0,0,1,5.67-3.42l.16,0a9,9,0,0,1,1.56,0,8.5,8.5,0,0,1,4,1.5,8.26,8.26,0,0,1,2.16,2.29c.06.09.14.18.1.31l-3.09,1.78c-.11.06-.18.2-.33.19s-.2-.08-.27-.17a4.12,4.12,0,0,0-2.34-1.64,1.69,1.69,0,0,0-.59-.09,3.45,3.45,0,0,0-2.14.4,3.86,3.86,0,0,0-2.19,3.06,3.91,3.91,0,0,0,.55,2.56,4,4,0,0,0,2.75,1.85,3.25,3.25,0,0,0,.44,0h.4a1.35,1.35,0,0,0,.4,0l.21,0a3.89,3.89,0,0,0,2.34-1.46C436,661.17,436,661,436.18,660.93Z" transform="translate(-0.05 -488.9)"/><path class="cls-75" d="M433.41,650.75h-1.59l0,0,.07,0h1.4C433.32,650.7,433.38,650.7,433.41,650.75Z" transform="translate(-0.05 -488.9)"/><path class="cls-76" d="M424.87,656.54a1,1,0,0,1-.11.45A.6.6,0,0,1,424.87,656.54Z" transform="translate(-0.05 -488.9)"/><path class="cls-77" d="M424.63,660.08l0,.22C424.54,660.23,424.58,660.16,424.63,660.08Z" transform="translate(-0.05 -488.9)"/><path class="cls-78" d="M433.13,667l.32,0c.08,0,.16,0,.23,0A.75.75,0,0,1,433.13,667Z" transform="translate(-0.05 -488.9)"/><path class="cls-79" d="M432,667h.27a.77.77,0,0,1-.56,0A.33.33,0,0,1,432,667Z" transform="translate(-0.05 -488.9)"/><path class="cls-80" d="M435.44,666.54a.73.73,0,0,1,.32-.12C435.71,666.6,435.56,666.53,435.44,666.54Z" transform="translate(-0.05 -488.9)"/><path class="cls-81" d="M432,667l-.29,0-.06-.07A.85.85,0,0,1,432,667Z" transform="translate(-0.05 -488.9)"/><path class="cls-82" d="M433.68,667l-.23,0a.87.87,0,0,1,.36,0A.17.17,0,0,1,433.68,667Z" transform="translate(-0.05 -488.9)"/><path class="cls-83" d="M429.7,666.45l.11,0a.14.14,0,0,1-.17,0Z" transform="translate(-0.05 -488.9)"/><path class="cls-84" d="M433.87,666.94s0,0,0,0l.22,0C434,667,433.93,667,433.87,666.94Z" transform="translate(-0.05 -488.9)"/><path class="cls-85" d="M431,666.83a.47.47,0,0,1,.28,0C431.13,666.88,431,666.92,431,666.83Z" transform="translate(-0.05 -488.9)"/><path class="cls-70" d="M429.25,661a4,4,0,0,1,2.07-5.92,3.41,3.41,0,0,1,1.76-.22c.2,0,.42.06.62.11a4,4,0,0,1,2.35,1.63c.07.09.1.21.23.23-.81.41-1.59.9-2.38,1.35a10.09,10.09,0,0,0-1.22.73,2.54,2.54,0,0,1-.78.52C431,660,430.11,660.42,429.25,661Z" transform="translate(-0.05 -488.9)"/><path class="cls-71" d="M429.25,661c0-.13.08-.16.16-.21l3.27-1.88a12.81,12.81,0,0,1,1.21.66c.71.4,1.4.81,2.1,1.22a.4.4,0,0,1,.19.15,3.93,3.93,0,0,1-2.66,1.89,2.46,2.46,0,0,0-.47,0,.29.29,0,0,1,.27,0,1,1,0,0,1-.41,0,.63.63,0,0,0-.45,0,3.75,3.75,0,0,1-2.84-1.43A3.32,3.32,0,0,1,429.25,661Z" transform="translate(-0.05 -488.9)"/><path class="cls-86" d="M442.35,658.38a1.26,1.26,0,0,0,0-.64c0-.17,0-.24.23-.25.71,0,.71,0,.72.71,0,.06-.07.18.08.19a0,0,0,0,1,.06,0c.25.05.53-.06.78.07a1.49,1.49,0,0,1-.06.91,3.39,3.39,0,0,1-.78,0c-.17.08-.07.23-.08.33,0,.56,0,.56-.54.56s-.39,0-.4-.4c0-.16.06-.33,0-.48a2.11,2.11,0,0,1-.83,0,.19.19,0,0,1,0-.08c0-.27-.09-.61,0-.79s.49,0,.75-.07C442.31,658.37,442.33,658.37,442.35,658.38Z" transform="translate(-0.05 -488.9)"/><path class="cls-87" d="M439,658.38a1.84,1.84,0,0,0,0-.66c0-.16,0-.23.22-.22h.69a2,2,0,0,1,0,.6c0,.09,0,.2,0,.29h.67c.12,0,.2,0,.19.16s0,.52,0,.78a2.18,2.18,0,0,1-.62,0c-.09,0-.19,0-.25.06a3.05,3.05,0,0,1,0,.8h-.67c-.2,0-.24-.06-.24-.24a2,2,0,0,0,0-.64.16.16,0,0,1-.1,0,3.09,3.09,0,0,1-.74,0,5.9,5.9,0,0,1,0-.94,4.62,4.62,0,0,1,.74-.06Z" transform="translate(-0.05 -488.9)"/><path class="cls-88" d="M441.52,659.33l.83,0v.83h-.05a4.86,4.86,0,0,1,0-.54c0-.2-.07-.25-.26-.25S441.68,659.48,441.52,659.33Z" transform="translate(-0.05 -488.9)"/><path class="cls-89" d="M438.92,658.39h-.78c0-.06,0-.11.1-.09a.65.65,0,0,0,.68-.2A.31.31,0,0,1,438.92,658.39Z" transform="translate(-0.05 -488.9)"/><path class="cls-90" d="M444.2,659.35a5.33,5.33,0,0,0,.06-.89,1.3,1.3,0,0,1-.05.95s0,0,0,0S444.2,659.35,444.2,659.35Z" transform="translate(-0.05 -488.9)"/><path class="cls-91" d="M443.3,660.35h-.83v0h.82Z" transform="translate(-0.05 -488.9)"/><path class="cls-92" d="M439.05,660.32h.83v0h-.83Z" transform="translate(-0.05 -488.9)"/><path class="cls-93" d="M439.87,657.43h-.82v0h.82Z" transform="translate(-0.05 -488.9)"/><path class="cls-93" d="M443.31,657.42h-.83v0h.83Z" transform="translate(-0.05 -488.9)"/><path class="cls-94" d="M440.9,659.27v-.81h0v.83Z" transform="translate(-0.05 -488.9)"/><path class="cls-95" d="M440,658.39c-.13-.17,0-.37-.06-.55s0-.22,0-.34C440.07,657.79,440,658.1,440,658.39Z" transform="translate(-0.05 -488.9)"/><path class="cls-96" d="M442.35,658.38h-.05v-.83h.05Z" transform="translate(-0.05 -488.9)"/><path class="cls-97" d="M443.48,658.39h-.06v-.83h.06Z" transform="translate(-0.05 -488.9)"/><path class="cls-98" d="M438.92,659.35H439v.83h-.06v-.78a0,0,0,0,1,0,0Z" transform="translate(-0.05 -488.9)"/><path class="cls-99" d="M439.94,659.4c.29-.13.59,0,.89-.06-.27.15-.56,0-.84.07C440,659.43,440,659.43,439.94,659.4Z" transform="translate(-0.05 -488.9)"/><path class="cls-98" d="M438.92,658.39v-.83H439v.82Z" transform="translate(-0.05 -488.9)"/><path class="cls-100" d="M439.94,659.4H440c0,.27.09.56-.07.83C439.93,660,439.93,659.68,439.94,659.4Z" transform="translate(-0.05 -488.9)"/><path class="cls-97" d="M443.48,659.41v.77h-.06v-.77S443.46,659.38,443.48,659.41Z" transform="translate(-0.05 -488.9)"/><path class="cls-101" d="M443.48,659.41h-.06v-.06h.78v.06Z" transform="translate(-0.05 -488.9)"/><path class="cls-102" d="M438.92,659.35v.06c-.26,0-.53.07-.78-.07Z" transform="translate(-0.05 -488.9)"/><path class="cls-103" d="M433.7,655a1.22,1.22,0,0,1-.62-.11A1.32,1.32,0,0,1,433.7,655Z" transform="translate(-0.05 -488.9)"/><path class="cls-104" d="M433.32,662.85l-.3,0a.72.72,0,0,1,.5,0Z" transform="translate(-0.05 -488.9)"/><path class="cls-105" d="M432.46,662.89a.41.41,0,0,1,.45,0A1,1,0,0,1,432.46,662.89Z" transform="translate(-0.05 -488.9)"/><ellipse class="cls-106" cx="428.67" cy="169.97" rx="0.02" ry="0.28"/><path class="cls-107" d="M432.46,654.89a.86.86,0,0,1,.45,0A1,1,0,0,1,432.46,654.89Z" transform="translate(-0.05 -488.9)"/><path class="cls-108" d="M439.82,597.64c-.46-.38-.31-.9-.31-1.37,0-3.7,0-7.39,0-11.08a2.11,2.11,0,0,1,1.17-2.12c3.43-1.88,6.83-3.8,10.23-5.72a1.74,1.74,0,0,1,1.85-.1c3.68,2.08,7.37,4.14,11.06,6.23.12.06.18.25.27.38-1.35,1-2.64,2.11-4.4,2.37-1.55-1.59-3-3.3-5.32-3.89A8.79,8.79,0,0,0,443.49,593a5.25,5.25,0,0,1,.46,2.21A8.54,8.54,0,0,1,439.82,597.64Z" transform="translate(-0.05 -488.9)"/><path class="cls-109" d="M459.74,586.14c1.46-.72,2.69-1.89,4.33-2.28.46.44.28,1,.29,1.54q0,5.36,0,10.73c0,.67.2,1.44-.64,1.84a43.28,43.28,0,0,0-4-2.38,27.7,27.7,0,0,0-4.32-2.17c-1.08-1.08-2.83-1.24-3.63-2.69.94-1.64,2.81-1.91,4.21-2.88C457.28,587.37,458.2,586.08,459.74,586.14Z" transform="translate(-0.05 -488.9)"/><path class="cls-110" d="M459.83,595.33c1.28.91,3.17.92,3.89,2.64l-10.87,6.21a1.57,1.57,0,0,1-1.69.07L440,597.9c-.08,0-.11-.17-.16-.26a24,24,0,0,1,4-2.39c.64,0,.9.55,1.25.94,4,4.45,9.59,4.47,13.63,0C459.05,595.89,459.29,595.41,459.83,595.33Z" transform="translate(-0.05 -488.9)"/><path class="cls-6" d="M459.83,595.33a9.11,9.11,0,0,1-15.4.69l-.58-.77c-1.86-4.73-1.16-8.57,2.07-11.42,4.31-3.8,11.26-2.64,13.82,2.31l-3.55,2.07c-.67.2-1.11-.23-1.6-.57-1.85-1.3-3.52-1.33-5.1-.16a4.08,4.08,0,0,0-1.21,5.08c1.63,2.55,3.82,3,6.29,1.34a1.85,1.85,0,0,1,1-.5C457.32,593.29,458.45,594.59,459.83,595.33Z" transform="translate(-0.05 -488.9)"/><path class="cls-108" d="M448,592.72a4.35,4.35,0,0,1,1.23-5.61,4.5,4.5,0,0,1,5.71.19c.4.34.64.92,1.28.91a25.39,25.39,0,0,0-4.26,2.52C450.76,591.7,449.65,592.77,448,592.72Z" transform="translate(-0.05 -488.9)"/><path class="cls-110" d="M448,592.72l4-2c.95.58,1.89,1.18,2.85,1.75.37.22.76.4.77.92C453.19,596.24,449.5,595.9,448,592.72Z" transform="translate(-0.05 -488.9)"/><path class="cls-111" d="M550.72,762.24l-12.48-.48-13.78-99q-7.29,50.4-14.3,98.8l-12.6,0,3.18-98.75.09-13.66.1-15.37H548l.09,15.3.09,13.73Z" transform="translate(-0.05 -488.9)"/><path class="cls-112" d="M524.16,656.6s3.83,1.87,3.67-22.92" transform="translate(-0.05 -488.9)"/><path class="cls-112" d="M524.45,661.85s-2.08-19.78.17-28.17" transform="translate(-0.05 -488.9)"/><path class="cls-113" d="M548,648.46c-3.82-.73-6.74-4.59-6.74-9.25a10.34,10.34,0,0,1,1.56-5.53h5Z" transform="translate(-0.05 -488.9)"/><path class="cls-113" d="M508.31,638.24c0,4.83-3.15,8.81-7.2,9.32l.2-14.86h5.44A10.38,10.38,0,0,1,508.31,638.24Z" transform="translate(-0.05 -488.9)"/><polygon class="cls-114" points="488.9 77.82 488.9 77.82 488.9 77.82 488.9 77.82"/><path class="cls-114" d="M564.08,595.6c-3.31,1.53-9.75,2.52-13.73,3l-.15,2.17c-.82,11.72-1.6,22.75-2.33,33.16a131.41,131.41,0,0,1-46.57,0c-.08-.07-.24-.11-.24-.22-.75-11.32-1.54-23.39-2.39-36.28-.05-.77-.1-1.55-.16-2.33-7.43-.05-13.72-.75-13.72-.75.43-12,1.74-21.56,4.15-27.63h0a6.76,6.76,0,0,1,.82-1.52h0c.11-.21,4-6.83,16.85-6.83h35.65s15.41.19,17.69,10.07q1.24,5.52,2.26,11.71C563.09,585.59,563.69,590.76,564.08,595.6Z" transform="translate(-0.05 -488.9)"/><path class="cls-114" d="M547.11,599c-.7-6.21-2.13-19.37-3.7-27.44h0a6.82,6.82,0,0,1-.19-1.57" transform="translate(-0.05 -488.9)"/><path class="cls-114" d="M503,595.05s1.47-15,2.1-23.61h0" transform="translate(-0.05 -488.9)"/><path class="cls-115" d="M537.67,560.42c0,4.63-6,8.39-13.42,8.39s-13.42-3.76-13.42-8.39a5.36,5.36,0,0,1,.41-2h26A5.54,5.54,0,0,1,537.67,560.42Z" transform="translate(-0.05 -488.9)"/><ellipse class="cls-115" cx="508.32" cy="597.29" rx="1.46" ry="1.89" transform="translate(-275.31 74.65) rotate(-47.14)"/><path class="cls-115" d="M502.45,589.74c.76.3,3,3.19,3.79,4.19a5.8,5.8,0,0,0,1.8,1.69c.08.93.17,2.34.27,3.28a7.93,7.93,0,0,1-3.65-1.17c-2.49-1.47-2.11-3.71-2.53-3.87s-3.1-.47-3.41-.78.49-.52.49-.52-.81-.45-.76-.65a5.31,5.31,0,0,1,2.07-.7,12.78,12.78,0,0,1,2.89.64s-.85-.92-1.08-1.1-2.91,0-2.9-.41S501.68,589.44,502.45,589.74Z" transform="translate(-0.05 -488.9)"/><path class="cls-116" d="M560.16,596.9c-.3,6.17-1.57,11.23-3.51,12.69-2.82,2.09-10.52,1.29-19.43-.43s-26.86-4.83-26.86-4.83,13.78-5.84,24.91-7.1a46.07,46.07,0,0,1,11.64,0,19.17,19.17,0,0,1,4.86,1.18A79.22,79.22,0,0,0,560.16,596.9Z" transform="translate(-0.05 -488.9)"/><path class="cls-117" d="M516.84,605.46l5.67,1c7.87-2.78,24.14-6.45,23.9-9.26l-5.24-.33Z" transform="translate(-0.05 -488.9)"/><path class="cls-116" d="M551.77,598.42s-32.36,6.35-41.58,9.25c-11.38,3.59-16.26,1.74-18.76-2.43-2-3.28-2.22-4.82-2.61-10.55a123.09,123.09,0,0,0,14.19.36s16.77-1.3,27.56-1.54C544.78,593.2,549.71,595.5,551.77,598.42Z" transform="translate(-0.05 -488.9)"/><path class="cls-118" d="M524.45,661.85" transform="translate(-0.05 -488.9)"/><path class="cls-119" d="M498.11,761.48l.38,4.23a15.7,15.7,0,0,0-4.83,1.22c-2.11.92-4.12,1.78-4.69,3.85a5.45,5.45,0,0,0,.24,3.21l19.41.14.3-12.72Z" transform="translate(-0.05 -488.9)"/><path class="cls-119" d="M539.06,761.79v3.92a12.38,12.38,0,0,0-.62,4.39c.06,1.29.14,3.19,1.28,3.74a1.68,1.68,0,0,0,.91.15h8.74c.29-.14,2.18-1.11,2.41-2.86a4.9,4.9,0,0,0-.69-2.75,7.21,7.21,0,0,1-.86-1.45,4.66,4.66,0,0,1-.2-1.75,13.68,13.68,0,0,1,.4-2.93Z" transform="translate(-0.05 -488.9)"/><path class="cls-120" d="M532.17,560.71l-14.95.18c0-1.54,0-3.08-.05-4.62,0-2.51,0-5,0-7.54a43.13,43.13,0,0,0,4.22,1.81,14,14,0,0,0,3.92,1.12,9.34,9.34,0,0,0,6.62-2.95q.14,3.85.2,7.8C532.15,557.92,532.17,559.32,532.17,560.71Z" transform="translate(-0.05 -488.9)"/><path class="cls-121" d="M534,551.13a16.13,16.13,0,0,1-2.74,3.06,9.36,9.36,0,0,1-6.62,2.95c-2.69-.1-5.33-1.72-7.38-3.55a19.67,19.67,0,0,1-3.08-3.44c-1.43-2.14-2.62-5-3.08-13.89-.34-6.58-.51-9.87.56-11.69,3.23-5.48,10.86-5.8,11.81-5.83.78,0,8.72-.12,12.52,5.55,1.58,2.36,1.52,5.61,1.39,12.11C537.21,545.69,535.13,549.46,534,551.13Z" transform="translate(-0.05 -488.9)"/><path class="cls-122" d="M511.8,537.06a.57.57,0,0,0,.05-.19,34.74,34.74,0,0,0,1-7.75h0a4.28,4.28,0,0,1,1-.78,50,50,0,0,1,19.09-.16,4,4,0,0,1,2.09,1c2.63,2.28,1.53,7.19,1.3,8.13l1,.06c3-7.22,1.6-14.69-3-18.4-1.92-1.55-5.06-2.37-7.63-2.57-1.83-.14-3.71.13-7.48.67a35.93,35.93,0,0,0-4,.83,9.21,9.21,0,0,0-3.45,1.29c-1.34,1.09-1.63,2.75-1.91,4.55-.82,5.24.86,11,1,12.28,0,.23.07.45.09.67,0,.49,0,.64.13.7S511.68,537.31,511.8,537.06Z" transform="translate(-0.05 -488.9)"/><path class="cls-122" d="M511.8,537.06l1,7.17a5.23,5.23,0,0,0,1.15,1.93c1,1.05,1.64,1.57,2.34,2.34.87.94.69,1,2.14,2.81a10.85,10.85,0,0,0,1.19,1.35,8.13,8.13,0,0,0,2.59,1.59,7.91,7.91,0,0,0,5.36-.07,6,6,0,0,0,2.56-1.64,14.12,14.12,0,0,0,1.13-1.67c.42-.64.72-1.08,1.32-2,.8-1.17,1.54-2.38,2.37-3.52a6.42,6.42,0,0,0,.7-1.24,5,5,0,0,0,.17-.51,7.17,7.17,0,0,0,.21-1,33.42,33.42,0,0,0,.42-4.57c0-.48-.1-1.06.23-1.3a.83.83,0,0,1,.72-.07,51.15,51.15,0,0,1-.74,7.49c-.53,3-.87,4.84-2,6.93a15,15,0,0,1-3.52,4.17,10.85,10.85,0,0,1-6,2.19c-5.63.2-10-4.59-11.84-8.55a14.18,14.18,0,0,1-1.17-4.19c-.18-.94-.3-1.8-.47-3.11,0,0-.22-1.67-.31-2.83a8.85,8.85,0,0,0-.1-1.41.25.25,0,0,1,0-.2C511.23,537,511.55,537,511.8,537.06Z" transform="translate(-0.05 -488.9)"/><path class="cls-122" d="M530.62,549.9l0,1.53a4.26,4.26,0,0,0-1-1.92,9.57,9.57,0,0,0-2.91-1.6,2.67,2.67,0,0,0-1.47.24.32.32,0,0,1-.28,0,2.68,2.68,0,0,0-1.47-.24,9.57,9.57,0,0,0-2.91,1.6,4.26,4.26,0,0,0-1,1.92c0-.51,0-1-.05-1.53.1-1.1.6-1.31.6-1.31l2.71-1.69a1.37,1.37,0,0,1,.68-.28,1.53,1.53,0,0,1,.55.09,1.88,1.88,0,0,1,.54.3.51.51,0,0,0,.94,0,1.88,1.88,0,0,1,.54-.3,1.51,1.51,0,0,1,.54-.09,1.37,1.37,0,0,1,.69.28l2.71,1.69S530.52,548.8,530.62,549.9Z" transform="translate(-0.05 -488.9)"/><path d="M535.06,581.23a8.11,8.11,0,0,1,7.19,3.56c.2.31.74-.43.69-.67l-1.78-8.43-.25-1.2c-.07-.32-.66.39-.69.52l-1.68,8.41-.24,1.22c-.11.52.62-.1.67-.37l1.69-8.41.24-1.21-.69.52,1.78,8.42.26,1.2.69-.67a8.29,8.29,0,0,0-7.36-3.71.74.74,0,0,0-.5.38c0,.06-.23.45,0,.44Z" transform="translate(-0.05 -488.9)"/></svg>