<svg id="Layer_2" data-name="Layer 2" xmlns="http://www.w3.org/2000/svg" viewBox="0 0 612 303"><defs><style>.cls-1,.cls-2,.cls-6{fill:#fff;}.cls-1{opacity:0.41;}.cls-111,.cls-112,.cls-118,.cls-2{stroke:#000;}.cls-111,.cls-112,.cls-113,.cls-114,.cls-115,.cls-116,.cls-118,.cls-121,.cls-2,.cls-3{stroke-miterlimit:10;}.cls-2{stroke-width:2px;}.cls-3,.cls-4{fill:#231f20;opacity:0.29;}.cls-3{stroke:#fff;}.cls-5{fill:#69bd45;}.cls-7{fill:#3a78ae;}.cls-8{fill:#3977ab;}.cls-9{fill:#3978ac;}.cls-10{fill:#6089b8;}.cls-11{fill:#7898c1;}.cls-12{fill:#7495c0;}.cls-13{fill:#8ba4c9;}.cls-14{fill:#8aa3c9;}.cls-15{fill:#ffd444;}.cls-16{fill:#3973a6;}.cls-17{fill:#ffd94b;}.cls-18{fill:#ffcf3e;}.cls-19{fill:#3871a1;}.cls-20{fill:#ffd242;}.cls-21{fill:#ffd647;}.cls-22{fill:#3972a3;}.cls-23{fill:#fedc4f;}.cls-24{fill:#3873a4;}.cls-25{fill:#ffd749;}.cls-26{fill:#3876aa;}.cls-27{fill:#39709f;}.cls-28{fill:#ffcd3b;}.cls-29{fill:#3975a8;}.cls-30{fill:#ffcc3a;}.cls-31{fill:#386e9c;}.cls-32{fill:#ffd040;}.cls-33{fill:#386d9a;}.cls-34{fill:#ffcf3d;}.cls-35{fill:#376c98;}.cls-36{fill:#ffd241;}.cls-37{fill:#ffca38;}.cls-38{fill:#fede52;}.cls-39{fill:#ffd84b;}.cls-40{fill:#386b96;}.cls-41{fill:#3b7bb2;}.cls-42{fill:#3a79ae;}.cls-43{fill:#ffce3d;}.cls-44{fill:#070909;}.cls-45{fill:#74cddd;}.cls-46{fill:#74cddc;}.cls-47{fill:#f6d3a2;}.cls-48{fill:#f6d3a3;}.cls-49{fill:#f6d2a2;}.cls-50{fill:#81d1e3;}.cls-51{fill:#7ed0e1;}.cls-52{fill:#7fd1e2;}.cls-53{fill:#07090a;}.cls-54{fill:#232020;}.cls-55{fill:#080a0a;}.cls-56{fill:#080b0b;}.cls-57{fill:#fcfcfc;}.cls-58{fill:#fbfafa;}.cls-59{fill:#090b0c;}.cls-60{fill:#080a0b;}.cls-61{fill:#ebeae9;}.cls-62{fill:#f1f0f0;}.cls-63{fill:#2caa78;}.cls-64{fill:#54c1de;}.cls-65{fill:#e67125;}.cls-66{fill:#5482a2;}.cls-67{fill:#5b84a3;}.cls-68{fill:#839fb8;}.cls-69{fill:#6f90ad;}.cls-70{fill:#689ad2;}.cls-71{fill:#1a4780;}.cls-72{fill:#025a9d;}.cls-73{fill:#174990;}.cls-74{fill:#7295ba;}.cls-75{fill:#7695b5;}.cls-76{fill:#7aa2ce;}.cls-77{fill:#6894c2;}.cls-78{fill:#163258;}.cls-79{fill:#173258;}.cls-80{fill:#325278;}.cls-81{fill:#295585;}.cls-82{fill:#255284;}.cls-83{fill:#1b406f;}.cls-84{fill:#223c75;}.cls-85{fill:#37577d;}.cls-86{fill:#fdfdfe;}.cls-87{fill:#fdfefe;}.cls-88{fill:#104d94;}.cls-89{fill:#02569d;}.cls-90{fill:#055197;}.cls-91{fill:#02549b;}.cls-92{fill:#01549a;}.cls-93{fill:#00539a;}.cls-94{fill:#154983;}.cls-95{fill:#225682;}.cls-96{fill:#0c4f95;}.cls-97{fill:#025596;}.cls-98{fill:#134a81;}.cls-99{fill:#144c92;}.cls-100{fill:#225782;}.cls-101{fill:#134c93;}.cls-102{fill:#144c93;}.cls-103{fill:#7da2c9;}.cls-104{fill:#1c4072;}.cls-105{fill:#233871;}.cls-106{fill:#6493c6;}.cls-107{fill:#5993ce;}.cls-108{fill:#5f6bb2;}.cls-109{fill:#414da1;}.cls-110{fill:#2a3a91;}.cls-111,.cls-118{fill:#6aa6da;}.cls-111,.cls-112,.cls-113,.cls-114,.cls-115{stroke-width:0.5px;}.cls-112,.cls-113{fill:none;}.cls-113,.cls-114{stroke:#231f20;}.cls-114{fill:#f68c35;}.cls-115,.cls-116,.cls-120,.cls-121{fill:#fbc1a4;}.cls-115,.cls-116,.cls-121{stroke:#070808;}.cls-116{stroke-width:0.25px;}.cls-117{fill:#f79d7d;}.cls-118{stroke-width:7px;}.cls-119{fill:#070808;}.cls-122{fill:#151314;}</style></defs><rect width="612" height="303"/><polyline class="cls-1" points="205.92 287.02 293.95 1.09 386.92 0.65 434.09 287.02"/><ellipse class="cls-2" cx="320" cy="287.02" rx="114.08" ry="10.68"/><ellipse class="cls-3" cx="358.16" cy="285.37" rx="39.1" ry="3.78"/><ellipse class="cls-4" cx="301.1" cy="289.51" rx="7.67" ry="1.25"/><ellipse class="cls-4" cx="253.53" cy="284.88" rx="8.73" ry="1.25"/><rect class="cls-5" x="291.56" y="260.18" width="19.6" height="19.6"/><rect class="cls-5" x="294.17" y="277.79" width="4.31" height="11.98" rx="2.15"/><rect class="cls-5" x="286.29" y="751.58" width="4.31" height="11.98" rx="2.15" transform="translate(576.83 1026.22) rotate(180)"/><rect class="cls-5" x="304.2" y="277.79" width="4.31" height="11.98" rx="2.15"/><rect class="cls-5" x="314.67" y="744.96" width="4.31" height="11.98" rx="2.15" transform="translate(9.8 1017.08) rotate(-135)"/><path class="cls-5" d="M311.3,748.24H291.51a9.9,9.9,0,1,1,19.79,0Z" transform="translate(-0.05 -488.9)"/><circle class="cls-6" cx="297.4" cy="254.39" r="1.08"/><circle class="cls-6" cx="305.28" cy="254.39" r="1.08"/><rect class="cls-5" x="294.57" y="734.63" width="0.57" height="6.31" rx="0.29" transform="translate(-329.44 -242.63) rotate(-30)"/><rect class="cls-5" x="307.57" y="734.63" width="0.57" height="6.31" rx="0.29" transform="translate(410.09 -543.99) rotate(30)"/><path class="cls-7" d="M237.66,705.94h1.71c0,.14-.1.2-.17.27-1.09,1.09-2.19,2.17-3.26,3.28-.6.61-1.2,1.23-1.81,1.83-.07.07-.12.19-.26.15a.34.34,0,0,1,0-.1c0-.09,0-.18,0-.27v-.37a8.3,8.3,0,0,0,.14-.87c0-.08,0-.16.05-.25a1.94,1.94,0,0,1,.35-.45l3.07-3.08A.45.45,0,0,1,237.66,705.94Z" transform="translate(-0.05 -488.9)"/><path class="cls-8" d="M242.63,705.11h-1.25c0-.1.05-.14.1-.2.29-.32.58-.66.91-1,.09-.09.15-.21.24-.3a1.28,1.28,0,0,0,.9-.94,1.09,1.09,0,0,0,.27-.21l2.4-2.41c.11-.1.19-.22.29-.33h.28c.17.1.37,0,.55.09l.33,0c0,.17-.1.25-.19.34-1.18,1.18-2.36,2.35-3.53,3.54C243.5,704.22,243.08,704.68,242.63,705.11Z" transform="translate(-0.05 -488.9)"/><path class="cls-9" d="M239.7,706h.7c.07.15-.07.21-.14.28-.73.74-1.49,1.46-2.21,2.22-1.26,1.33-2.58,2.6-3.87,3.91-.08.08-.14.22-.3.15h0v-.33c0-.09,0-.2,0-.3a.2.2,0,0,1,0-.07,17.54,17.54,0,0,0,1.68-1.66c.18-.21.38-.39.57-.58l2.89-2.9A7.82,7.82,0,0,0,239.7,706Z" transform="translate(-0.05 -488.9)"/><path class="cls-7" d="M243.61,699.91l.79-.1c.06,0,.14,0,.18,0H245c.1,0,.21,0,.31,0h.1c.06.1,0,.14-.07.2-.6.66-1.24,1.29-1.88,1.92a.23.23,0,0,1-.15.1,1.33,1.33,0,0,0-.81-.35,2.91,2.91,0,0,0-.64.18c-.13,0-.06-.11,0-.17a3.11,3.11,0,0,1,.31-.32c.45-.46.92-.9,1.36-1.38A.33.33,0,0,1,243.61,699.91Z" transform="translate(-0.05 -488.9)"/><path class="cls-9" d="M243.33,702l1-1.07,1-1.11a2.18,2.18,0,0,1,.57,0c.11,0,.22,0,.32,0h.18a.46.46,0,0,1-.17.29l-2.56,2.56c-.06,0-.1.13-.2.13A6.49,6.49,0,0,1,243.33,702Z" transform="translate(-0.05 -488.9)"/><path class="cls-10" d="M246,699.81h-.7s0,0,0,0l0,0h.7s0,0,0,0Z" transform="translate(-0.05 -488.9)"/><path class="cls-11" d="M233.89,711.81v.05s0,0,0,0v-.47s0,0,0,0v.09A.27.27,0,0,1,233.89,711.81Z" transform="translate(-0.05 -488.9)"/><path class="cls-12" d="M245.33,699.76v0c-.11,0-.23,0-.33,0Z" transform="translate(-0.05 -488.9)"/><path class="cls-13" d="M233.84,711.86h0c0,.11.05.22,0,.32Z" transform="translate(-0.05 -488.9)"/><path class="cls-12" d="M246,699.81v0h.28C246.22,699.85,246.12,699.79,246,699.81Z" transform="translate(-0.05 -488.9)"/><path class="cls-14" d="M233.88,711.39h0v-.28C233.93,711.19,233.87,711.3,233.88,711.39Z" transform="translate(-0.05 -488.9)"/><path class="cls-15" d="M242.54,723.07a3.85,3.85,0,0,1-1.63-.84c0-.11.06-.16.13-.22.75-.76,1.47-1.55,2.21-2.32l2.51-2.65,2.47-2.61c.75-.8,1.51-1.59,2.25-2.39a2.85,2.85,0,0,0,.47-.57,3.8,3.8,0,0,0,.83-.87c.19-.09.29-.28.43-.42.77-.76,1.49-1.57,2.24-2.34.42-.44.84-.87,1.24-1.32.06-.07.12-.17.24-.15a3.44,3.44,0,0,1,1.07,1.4,1.58,1.58,0,0,1-.34.43c-.29.32-.58.62-.88.93-.73.75-1.45,1.52-2.17,2.29l-3,3.17c-.79.84-1.58,1.68-2.38,2.51a.35.35,0,0,0-.07.14c.55,0,1.09,0,1.63,0h4.05c.16,0,.34-.05.48.08a.66.66,0,0,1-.34,0h-8c-.19,0-.27,0-.26.25,0,.56,0,.56.55.56h5c.08,0,.17,0,.24,0a.3.3,0,0,1-.24.07h-3.2a1.43,1.43,0,0,0-1.44.53c-.86,1-1.8,1.92-2.7,2.87-.39.42-.81.81-1.17,1.26A.4.4,0,0,1,242.54,723.07Z" transform="translate(-0.05 -488.9)"/><path class="cls-16" d="M243.51,706h1.82c.07.14-.05.19-.12.26l-1.55,1.55c-.61.62-1.25,1.23-1.85,1.86-1.73,1.82-3.55,3.55-5.3,5.35l-1.2,1.23a.41.41,0,0,1-.22.17,3.69,3.69,0,0,1-.69-1.26c.34-.35.67-.72,1-1.07,1.51-1.52,3-3,4.53-4.54,1.08-1.12,2.19-2.21,3.28-3.32A1.23,1.23,0,0,1,243.51,706Z" transform="translate(-0.05 -488.9)"/><path class="cls-17" d="M245.47,712h2.46c0,.09,0,.15-.07.21s-.22.28-.35.4c-.73.73-1.43,1.51-2.15,2.25s-1.65,1.74-2.47,2.62-1.73,1.84-2.61,2.74c-.06.07-.12.17-.25.1v-2.6c.28-.29.53-.59.81-.87.72-.72,1.41-1.48,2.11-2.22s1.55-1.64,2.33-2.45A1.62,1.62,0,0,1,245.47,712Z" transform="translate(-0.05 -488.9)"/><path class="cls-18" d="M252.08,717.3H249.7c-.06-.08,0-.14.05-.18s.2-.26.31-.37c.77-.76,1.49-1.56,2.23-2.33,1-1.07,2-2.16,3-3.23.52-.55,1-1.11,1.56-1.65.13-.12.22-.28.36-.39s.18-.1.22.05a10,10,0,0,1,.23,2.24,1.42,1.42,0,0,0-.49.42c-.31.39-.68.72-1,1.08s-.82.87-1.23,1.3c-.9,1-1.79,1.91-2.71,2.84A1.84,1.84,0,0,1,252.08,717.3Z" transform="translate(-0.05 -488.9)"/><path class="cls-19" d="M251.19,701.67a2.06,2.06,0,0,1,.33,1.49,1.33,1.33,0,0,1-.19.24c-1.91,1.88-3.76,3.84-5.68,5.72-.38.38-.76.75-1.13,1.14s-.54.59-.83.87a.37.37,0,0,1-.26.15c-.42,0-.84,0-1.26,0l-.47.06c-.11,0-.07-.07,0-.12a1.06,1.06,0,0,1,.17-.2c1.66-1.72,3.38-3.38,5.05-5.1,1.33-1.38,2.7-2.71,4-4.08C251,701.77,251.05,701.65,251.19,701.67Z" transform="translate(-0.05 -488.9)"/><path class="cls-20" d="M257.47,709.2c-.07-.09-.13-.08-.2,0l-1.83,2c-.28.3-.58.57-.85.88s-.76.79-1.13,1.2c-.85.9-1.71,1.8-2.56,2.71a13.24,13.24,0,0,0-1.09,1.16c0,.06-.11.1-.11.18h-1.48c-.06,0-.14,0-.17,0s0-.09.08-.13c.43-.44.86-.87,1.28-1.32l1.8-1.9c.5-.53,1-1.06,1.51-1.6l2.26-2.4c.52-.55,1-1.12,1.58-1.66a2.79,2.79,0,0,1,.44-.47A5.11,5.11,0,0,1,257.47,709.2Z" transform="translate(-0.05 -488.9)"/><path class="cls-21" d="M251,711.47a.21.21,0,0,1-.07.21L249.67,713c-.68.7-1.36,1.4-2,2.11l-1.59,1.69-1.71,1.8c-.55.58-1.09,1.16-1.65,1.74s-1.19,1.27-1.79,1.9a1.77,1.77,0,0,1-.56-.65c0-.07,0-.13,0-.18s.24-.29.37-.42c.48-.46.92-1,1.38-1.44l2.54-2.68c.53-.56,1.06-1.11,1.58-1.67.86-.9,1.71-1.82,2.58-2.71a2.28,2.28,0,0,1,.49-.49h0c.07,0,.16,0,.23,0h.14s.05,0,.06,0,.12,0,.17,0A4.59,4.59,0,0,0,251,711.47Z" transform="translate(-0.05 -488.9)"/><path class="cls-22" d="M251.19,701.67l-.19.17c-.87.87-1.75,1.73-2.61,2.61-1.66,1.71-3.36,3.38-5,5.07-.53.55-1.08,1.09-1.6,1.65-.05,0-.17.08-.07.18a3.34,3.34,0,0,0-1.53.81,2.93,2.93,0,0,0-.75,1.34.59.59,0,0,0,0,.08,1.24,1.24,0,0,1-.14.18c-1.09,1.1-2.14,2.23-3.25,3.31l-.06,0a1.08,1.08,0,0,1-.47-.35c-.06-.16.08-.22.16-.3.88-.89,1.79-1.76,2.65-2.67,1.68-1.75,3.44-3.42,5.12-5.17,1.48-1.53,3-3,4.5-4.54.88-.92,1.79-1.8,2.68-2.71.07-.07.12-.19.26-.16A1.12,1.12,0,0,1,251.19,701.67Z" transform="translate(-0.05 -488.9)"/><path class="cls-23" d="M245.47,712c0,.07-.05.11-.09.16l-1.24,1.28-2.61,2.75-1.29,1.39c-.06.06-.11.13-.21.14v-2.56c.2-.22.39-.44.6-.65.73-.73,1.41-1.52,2.14-2.24A3,3,0,0,1,243,712Z" transform="translate(-0.05 -488.9)"/><path class="cls-24" d="M250.83,701.2a3.12,3.12,0,0,0-.46.43c-.64.64-1.29,1.27-1.92,1.92-1.53,1.62-3.16,3.15-4.7,4.76s-3.4,3.37-5.05,5.1c-1,1.06-2.08,2.08-3.11,3.13-.05.06-.13.12-.13.21a1.91,1.91,0,0,1-.37-.38l.12-.14c2-2,4-4,6-6,1.33-1.37,2.7-2.71,4-4.07,0-.06.12-.1.12-.19h.45c.09-.13,0-.27,0-.4a.37.37,0,0,1,.1-.25c1.43-1.41,2.84-2.84,4.27-4.25.07-.07.13-.18.26-.17A1.2,1.2,0,0,1,250.83,701.2Z" transform="translate(-0.05 -488.9)"/><path class="cls-25" d="M240,720.32c.15,0,.2-.13.28-.22.49-.49,1-1,1.46-1.5l1.7-1.8,1.61-1.7c.55-.58,1.1-1.15,1.64-1.74.36-.39.76-.74,1.09-1.17l.12-.19h1.21c.06.06,0,.12,0,.16s-.2.26-.31.37c-.49.46-.93,1-1.4,1.45l-1.71,1.8-1.59,1.68-1.72,1.82c-.54.56-1.06,1.15-1.61,1.69a3.44,3.44,0,0,1-.3.35c-.07.06-.12.14-.22.08A1.78,1.78,0,0,1,240,720.32Z" transform="translate(-0.05 -488.9)"/><path class="cls-26" d="M241.56,706h1.26c0,.17-.11.25-.2.34l-2.78,2.78-1.47,1.45c-.3.29-.56.63-.86.93l-2.93,2.93c-.1.09-.18.24-.37.18a3.59,3.59,0,0,1-.19-.92c0-.09,0-.14.08-.2,1.47-1.45,2.94-2.91,4.39-4.39l2.89-2.93Z" transform="translate(-0.05 -488.9)"/><path class="cls-27" d="M243.51,711.25c.31-.35.63-.67.94-1,1.35-1.37,2.73-2.7,4.07-4.08.92-1,1.87-1.89,2.81-2.84a1.54,1.54,0,0,1,.19-.17v1.3a1.37,1.37,0,0,1-.18.24c-1.7,1.75-3.44,3.47-5.16,5.21-.4.4-.78.82-1.18,1.21-.08.08-.15.17-.27.16h-1C243.66,711.27,243.58,711.3,243.51,711.25Z" transform="translate(-0.05 -488.9)"/><path class="cls-28" d="M252.08,717.3a.35.35,0,0,1,.12-.24c.35-.35.68-.7,1-1.06.7-.75,1.43-1.47,2.13-2.23.53-.56,1-1.12,1.59-1.68.17-.18.33-.37.5-.54a.29.29,0,0,1,.27-.11,8.94,8.94,0,0,1-.14,2,1.3,1.3,0,0,0-.41.43.56.56,0,0,1,0,.08c-.47.38-.81.9-1.27,1.29a1.22,1.22,0,0,0-.3.34.26.26,0,0,1-.07.1c-.49.39-.81,1-1.31,1.33-.11.09-.18.22-.31.29Z" transform="translate(-0.05 -488.9)"/><path class="cls-29" d="M242.63,705.11c0-.09.07-.14.13-.19,1.53-1.6,3.11-3.16,4.67-4.72a.81.81,0,0,0,.22-.3,6.31,6.31,0,0,1,1.6.37c-.07.13-.2.19-.3.29L245,704.5a6.63,6.63,0,0,1-.57.61Z" transform="translate(-0.05 -488.9)"/><path class="cls-16" d="M244.45,705.11a2,2,0,0,1,.46-.57c1.35-1.37,2.71-2.72,4.07-4.08a.74.74,0,0,1,.27-.19,3.45,3.45,0,0,1,1,.47c.07,0,.15.06.18.14l-.58.57-4,3.92a.35.35,0,0,0-.07.23c0,.12.06.25-.06.35,0-.24,0-.48,0-.72s-.09-.12-.17-.12Z" transform="translate(-0.05 -488.9)"/><path class="cls-8" d="M241.56,706c0,.1-.08.14-.14.2q-2.34,2.39-4.7,4.75c-.88.89-1.77,1.76-2.65,2.64a.24.24,0,0,0,0,.1,6.13,6.13,0,0,1-.14-1.13c.1,0,.15-.07.2-.13,1.15-1.15,2.32-2.28,3.44-3.45.9-.94,1.84-1.84,2.74-2.78.06-.06.14-.1.14-.2Z" transform="translate(-0.05 -488.9)"/><path class="cls-30" d="M251.28,718.19h.23c0,.18,0,.36,0,.54,0,.71,0,1.42,0,2.14a.34.34,0,0,1,0,.22c-.12-.11,0-.27-.1-.41-.22.21-.43.41-.63.62-.42.48-.84,1-1.3,1.39a1.85,1.85,0,0,0-.34.44,7.75,7.75,0,0,1-2.14.32c-.15.06-.31,0-.47,0h-.23c-.07-.11,0-.17.09-.23.44-.42.83-.89,1.26-1.32a2.64,2.64,0,0,0,.36-.39c.08-.1.16-.2.31-.18a.54.54,0,0,1,.2.1,1,1,0,0,0,1.34-1.36,1.59,1.59,0,0,1-.13-.22c0-.09,0-.14.09-.2.48-.47.91-1,1.39-1.45Z" transform="translate(-0.05 -488.9)"/><path class="cls-31" d="M244.82,711.25l.09-.11c1.24-1.31,2.53-2.57,3.8-3.85l2.62-2.66.19-.17v1.3a1.72,1.72,0,0,1-.32.43l-2.87,2.86c-.68.67-1.31,1.4-2,2.06-.08.08-.16.18-.29.17h-1C245,711.27,244.89,711.3,244.82,711.25Z" transform="translate(-0.05 -488.9)"/><path class="cls-32" d="M248,718.19h1.63c0,.18-.15.28-.26.39-.47.46-.9.94-1.35,1.41-.89.94-1.77,1.89-2.67,2.82a7.23,7.23,0,0,1-.61.63h-.23c-.09,0-.19,0-.28,0a3.3,3.3,0,0,1-.89-.13c0-.19.15-.29.26-.41l.95-1c.73-.75,1.44-1.52,2.17-2.28A17,17,0,0,0,248,718.19Z" transform="translate(-0.05 -488.9)"/><path class="cls-33" d="M246.12,711.24l.11-.12c1.64-1.7,3.32-3.37,5-5,.11-.1.16-.25.3-.32v1.49a1.28,1.28,0,0,1-.2.26l-.91.9c-.9.87-1.73,1.81-2.63,2.68-.09.09-.17.2-.31.19h-1.13C246.27,711.27,246.19,711.3,246.12,711.24Z" transform="translate(-0.05 -488.9)"/><path class="cls-34" d="M244.72,723.44a3.53,3.53,0,0,1,.62-.72c.76-.82,1.55-1.61,2.32-2.43.55-.58,1.09-1.18,1.66-1.75.1-.1.19-.23.29-.35h1.07c-.05.22-.24.34-.37.5a4.1,4.1,0,0,1-.51.51,2.54,2.54,0,0,0-.36.5,1.54,1.54,0,0,0-.71,0,1,1,0,0,0-.56,1.34c.05.12.16.21.15.36a.27.27,0,0,0-.19.11c-.57.63-1.15,1.25-1.75,1.84a.19.19,0,0,0-.07.14A9.39,9.39,0,0,1,244.72,723.44Z" transform="translate(-0.05 -488.9)"/><path class="cls-29" d="M234.21,714.56a.52.52,0,0,0,.29-.18c1.17-1.16,2.35-2.3,3.48-3.49,1.52-1.59,3.1-3.1,4.63-4.67a.79.79,0,0,0,.21-.27h.69c0,.06-.1.13-.16.19-.83.83-1.68,1.65-2.5,2.5-1.81,1.89-3.69,3.71-5.53,5.58-.24.25-.47.51-.72.76-.06,0-.1.13-.2.13A2.11,2.11,0,0,1,234.21,714.56Z" transform="translate(-0.05 -488.9)"/><path class="cls-35" d="M247.56,711.24l0,0,3.84-3.89a.31.31,0,0,1,.09-.07,6.41,6.41,0,0,1-.14,2l0,.1s-.05,0-.06,0c-.54.52-1,1.07-1.55,1.61a3,3,0,0,1-1.26.28A3.39,3.39,0,0,1,247.56,711.24Z" transform="translate(-0.05 -488.9)"/><path class="cls-19" d="M235.93,717.1c0-.09.09-.14.15-.2l.78-.79,2.33-2.37.19-.16a9.1,9.1,0,0,0-.14,1.95,1.5,1.5,0,0,1-.33.42l-1.33,1.34a.79.79,0,0,1-.25.19A2.19,2.19,0,0,1,235.93,717.1Z" transform="translate(-0.05 -488.9)"/><path class="cls-36" d="M248,718.19a1.23,1.23,0,0,1-.4.55c-.74.79-1.5,1.56-2.24,2.34-.57.62-1.14,1.24-1.74,1.83-.1.11-.19.24-.28.36a3.44,3.44,0,0,1-.78-.2c.17-.2.34-.4.52-.59.46-.48.94-1,1.4-1.45l2.6-2.77a.23.23,0,0,1,.2-.08Z" transform="translate(-0.05 -488.9)"/><path class="cls-21" d="M255.93,706.37c-.47.43-.88.91-1.31,1.37l-.1.11c-.48.5-1,1-1.44,1.5s-.73.7-1,1.11a.26.26,0,0,1-.27.14,6.09,6.09,0,0,0,.42-1.07c.06,0,0-.12.09-.15s-.06,0,0-.08a2.15,2.15,0,0,1,.05-.51c.25-.25.47-.53.72-.78.63-.63,1.2-1.29,1.82-1.91.08-.09.16-.21.31-.16A2,2,0,0,1,255.93,706.37Z" transform="translate(-0.05 -488.9)"/><path class="cls-37" d="M253.84,717.3a.85.85,0,0,1,.3-.35,2.21,2.21,0,0,0,.55-.59c.11-.19.33-.28.46-.45.37-.48.87-.83,1.21-1.33a2.1,2.1,0,0,1,.44-.4,6.1,6.1,0,0,0,.52-.62c.07-.06.13-.14.24-.12-.07.32-.13.65-.22,1a3.81,3.81,0,0,1-2.15,2.69,2.32,2.32,0,0,1-.87.21Z" transform="translate(-0.05 -488.9)"/><path class="cls-38" d="M243,712a.41.41,0,0,1-.13.24l-1.16,1.2L240.24,715c-.06.06-.11.14-.21.14A2.93,2.93,0,0,1,243,712Z" transform="translate(-0.05 -488.9)"/><path class="cls-25" d="M252.31,708.55v-1.16a.62.62,0,0,1,.15-.21c.43-.4.81-.87,1.23-1.28.05-.06.1-.12.19-.11a4.83,4.83,0,0,1,.76,0,.37.37,0,0,1,.23,0,.34.34,0,0,1-.14.28l-.53.58c-.55.58-1.1,1.14-1.64,1.73C252.5,708.51,252.44,708.62,252.31,708.55Z" transform="translate(-0.05 -488.9)"/><path class="cls-37" d="M249.15,723.12c0-.18.11-.27.2-.37.28-.31.59-.59.86-.9s.71-.76,1.08-1.13c.05-.05.1-.17.19-.13s0,.16,0,.24a2.09,2.09,0,0,1,0,.25,1.69,1.69,0,0,1-.68,1.22A4,4,0,0,1,249.15,723.12Z" transform="translate(-0.05 -488.9)"/><path class="cls-27" d="M237.33,717.48l1.91-2v1.21c-.25.25-.49.5-.75.74Z" transform="translate(-0.05 -488.9)"/><path class="cls-39" d="M254.64,705.81h0c-.68-.15-1.06.26-1.43.73a11.5,11.5,0,0,1-.86.85v-1.47c0-.07,0-.15.11-.15h2.16Z" transform="translate(-0.05 -488.9)"/><path class="cls-21" d="M240.25,721.4c.13,0,.2-.12.27-.2.39-.41.77-.83,1.15-1.24.73-.77,1.47-1.52,2.19-2.28.51-.55,1-1.1,1.54-1.64.86-.89,1.72-1.78,2.55-2.7a15.09,15.09,0,0,0,1.09-1.17s.11-.09.1-.17h.19c-.16.18-.31.37-.47.54-.46.49-.94,1-1.4,1.46l-2.55,2.69c-.54.56-1.06,1.13-1.6,1.69s-1.14,1.19-1.7,1.8c-.39.42-.82.8-1.18,1.26a.28.28,0,0,0-.08.15A.32.32,0,0,1,240.25,721.4Z" transform="translate(-0.05 -488.9)"/><path class="cls-21" d="M252.31,708.55c.12,0,.17-.1.24-.17.51-.57,1.06-1.12,1.58-1.68a5.44,5.44,0,0,0,.74-.85.5.5,0,0,1,.29.09,3.37,3.37,0,0,0-.76.7,1.13,1.13,0,0,1-.1.13l-1.4,1.45c-.19.19-.32.45-.59.57Z" transform="translate(-0.05 -488.9)"/><path class="cls-40" d="M249.72,711c-.08-.06,0-.09,0-.12.48-.5.95-1,1.44-1.48,0,0,.06-.2.14,0A2.56,2.56,0,0,1,249.72,711Z" transform="translate(-0.05 -488.9)"/><path class="cls-31" d="M238.49,717.48a2.41,2.41,0,0,1,.75-.74c0,.2,0,.4,0,.6s0,.16-.16.15Z" transform="translate(-0.05 -488.9)"/><path class="cls-22" d="M247.56,711.24l.9,0a.37.37,0,0,1-.21,0h-6.08a2.9,2.9,0,0,1,.72,0h4.67Z" transform="translate(-0.05 -488.9)"/><path class="cls-21" d="M249.93,711.9c0,.13-.11.18-.19.26s.16-.19,0-.21A.37.37,0,0,1,249.93,711.9Z" transform="translate(-0.05 -488.9)"/><path class="cls-21" d="M252.26,709.3l.1,0c0,.08-.06.18-.16.21S252.2,709.36,252.26,709.3Z" transform="translate(-0.05 -488.9)"/><path class="cls-34" d="M246.54,723.48a1.08,1.08,0,0,1,.47,0A1.23,1.23,0,0,1,246.54,723.48Z" transform="translate(-0.05 -488.9)"/><path class="cls-36" d="M244.21,723.4c.09,0,.19,0,.28,0A.45.45,0,0,1,244.21,723.4Z" transform="translate(-0.05 -488.9)"/><path class="cls-21" d="M249.56,712c-.07.06-.15,0-.23,0A.36.36,0,0,1,249.56,712Z" transform="translate(-0.05 -488.9)"/><path class="cls-41" d="M243.61,699.91a.82.82,0,0,1-.2.25l-1.47,1.48c0,.05-.15.07-.09.17s-.06.13-.13.17a.72.72,0,0,0-.22.17l-1.23,1.23c-.06.07-.12.17-.24.15,0-.44,0-.88,0-1.32a1.78,1.78,0,0,1,.8-1.33A5,5,0,0,1,243,700C243.19,700,243.4,699.94,243.61,699.91Z" transform="translate(-0.05 -488.9)"/><path class="cls-41" d="M237.66,705.94c-.07.07-.12.15-.19.21l-3,3c-.15.14-.23.33-.41.43a4.4,4.4,0,0,1,1.91-3.24A2.86,2.86,0,0,1,237.66,705.94Z" transform="translate(-0.05 -488.9)"/><path class="cls-42" d="M240,703.53l1.5-1.48c.05,0,.07-.15.17-.09s0,.15,0,.22a.93.93,0,0,0,.17,1.14.32.32,0,0,1,.08.14c-.35.4-.75.76-1.12,1.13a2.36,2.36,0,0,1-.57.52c-.12,0-.19,0-.19-.16C240,704.48,240,704,240,703.53Z" transform="translate(-0.05 -488.9)"/><path class="cls-9" d="M233.89,711.81v-.33c.6-.58,1.21-1.14,1.76-1.78l.14-.15,3.42-3.41c.06-.06.11-.13.16-.19h.33a.51.51,0,0,1-.19.31l-1.94,1.93-3.36,3.41A.58.58,0,0,1,233.89,711.81Z" transform="translate(-0.05 -488.9)"/><path class="cls-9" d="M240.21,705.11l1.56-1.58.1,0a4.05,4.05,0,0,1,.76.2.47.47,0,0,1-.18.28c-.38.36-.72.76-1.07,1.15Z" transform="translate(-0.05 -488.9)"/><path class="cls-6" d="M242.63,703.68a1.38,1.38,0,0,1-.76-.2,1.08,1.08,0,0,1-.17-1.52l.15-.15a1.07,1.07,0,0,1,1.48.18,1.35,1.35,0,0,1,.23.75A1.1,1.1,0,0,1,242.63,703.68Z" transform="translate(-0.05 -488.9)"/><path class="cls-43" d="M249.47,719.67c-.05-.07,0-.12,0-.19a2.59,2.59,0,0,1,.39-.42c.28-.28.55-.57.8-.87h.6a.79.79,0,0,1-.19.26c-.45.46-.89.93-1.34,1.4C249.6,719.87,249.53,719.77,249.47,719.67Z" transform="translate(-0.05 -488.9)"/><path class="cls-6" d="M249.47,719.67l.28.18a1,1,0,0,1-.33,1.75,1,1,0,0,1-1.33-1.37,1,1,0,0,1,1.22-.6Z" transform="translate(-0.05 -488.9)"/><path class="cls-44" d="M244.51,760.28a6.12,6.12,0,0,1-.76.39c-.56.17-.92,0-1.06-.47-.08-.25-.29-.45-.17-.75a1.52,1.52,0,0,1,.73-.75,2.56,2.56,0,0,1,1-.31c.21,0,.24-.08.23-.27-.05-1.42-.22-2.84-.3-4.26a15.14,15.14,0,0,1,.24-4c0-.17,0-.23-.15-.31a1.92,1.92,0,0,1-1.1-2.48,2.41,2.41,0,0,1,2.6-1.59,1,1,0,0,1,.43.11c.38.26.64.09,1-.13a9.17,9.17,0,0,1,3.71-1.41,15.06,15.06,0,0,1,6.2.1,6.58,6.58,0,0,1,2.56,1.18.39.39,0,0,0,.46,0,2.28,2.28,0,0,1,3.36,2.14,1.89,1.89,0,0,1-1.13,1.68c-.19.1-.23.18-.18.39a21.91,21.91,0,0,1,.49,4.78c0,1.22,0,2.44,0,3.66,0,.24.07.31.3.34a2,2,0,0,1,1.35.69.69.69,0,0,1,.06,1,1,1,0,0,0-.07.18.64.64,0,0,1-.79.44,3.31,3.31,0,0,1-.7-.26c0,.86.09,1.71.1,2.56a14.7,14.7,0,0,1-.76,5.54,6.55,6.55,0,0,1-1.27,2.16c-.13.14-.1.2,0,.32a2.6,2.6,0,0,1,.92,1.26c.14.48,0,.82-.54,1.18a.88.88,0,0,1-1.11,0,9.71,9.71,0,0,1-.93-1,.44.44,0,0,0-.61-.1,10.73,10.73,0,0,1-4,1,12.55,12.55,0,0,1-5.64-.64,1.4,1.4,0,0,0-1.56.31,5.2,5.2,0,0,1-.92.7.82.82,0,0,1-1.11-.12,1.1,1.1,0,0,1-.52-.9,1.41,1.41,0,0,1,.56-1,7.16,7.16,0,0,1,.61-.48c.12-.08.13-.13,0-.24a6.84,6.84,0,0,1-1.81-4.38,26,26,0,0,1,.1-4.91C244.45,761.16,244.47,760.75,244.51,760.28Z" transform="translate(-0.05 -488.9)"/><path class="cls-45" d="M244.64,752.22a8.29,8.29,0,0,1,1.74-5.49,6.74,6.74,0,0,1,3.6-2.05,14.57,14.57,0,0,1,6.76-.19,6,6,0,0,1,4.93,4.78,21.71,21.71,0,0,1,.57,5.33c0,2.64.15,5.28.28,7.92,0,.13,0,.26,0,.39a3.94,3.94,0,0,0,0,1,11.7,11.7,0,0,1-1,5.09,6.14,6.14,0,0,1-3.83,3.22,13.11,13.11,0,0,1-9-.16,6,6,0,0,1-3.94-5.37,26.88,26.88,0,0,1,.1-5.23,28.4,28.4,0,0,0,0-4.88c-.09-1.14-.23-2.28-.22-3.43A3.39,3.39,0,0,0,244.64,752.22Z" transform="translate(-0.05 -488.9)"/><path class="cls-46" d="M263,747.62a1.57,1.57,0,0,1-1,1.22l-.4-1.14c0-.09,0-.15,0-.24a.68.68,0,0,0-.61-1,.38.38,0,0,1-.3-.15c-.14-.18-.31-.35-.48-.55a1.7,1.7,0,0,1,1.62-.14A1.83,1.83,0,0,1,263,747.1,1.51,1.51,0,0,0,263,747.62Z" transform="translate(-0.05 -488.9)"/><path class="cls-46" d="M246.34,746.09c-.22.27-.44.52-.65.8-.09.12-.17.08-.28.06a.64.64,0,0,0-.85.32.62.62,0,0,0,.21.88.23.23,0,0,1,.08.32,1.84,1.84,0,0,0-.15.43c0,.24-.12.29-.35.15a1.49,1.49,0,0,1-.65-2A1.9,1.9,0,0,1,246.34,746.09Z" transform="translate(-0.05 -488.9)"/><path class="cls-47" d="M245.42,772.82a.55.55,0,0,1,.1-.61,3.71,3.71,0,0,1,1-.85c.1-.07.16,0,.23,0a7.32,7.32,0,0,0,1.15.74,10.24,10.24,0,0,0-1.27,1,2.79,2.79,0,0,1-.45.24.26.26,0,0,1-.3-.07c-.1-.11,0-.2,0-.3l.25-.41c.08-.13.15-.28,0-.39s-.27,0-.35.16S245.54,772.63,245.42,772.82Z" transform="translate(-0.05 -488.9)"/><path class="cls-48" d="M261.46,772.73c-.14-.24-.23-.42-.34-.58s-.22-.25-.38-.1-.08.24,0,.36a1.41,1.41,0,0,1,.22.42c.13.26,0,.29-.21.27a.65.65,0,0,1-.41-.24c-.28-.3-.55-.61-.83-.9-.1-.1,0-.13,0-.19.27-.19.54-.4.81-.6.05,0,.09-.1.16,0a2.17,2.17,0,0,1,1,1.35A1.66,1.66,0,0,1,261.46,772.73Z" transform="translate(-0.05 -488.9)"/><path class="cls-49" d="M242.92,759.75a.69.69,0,0,1,.3-.51,2.2,2.2,0,0,1,1.13-.42c.16,0,.22,0,.2.2s0,.45,0,.67c0,0,0,.1,0,.11a4.15,4.15,0,0,1-1,.5.23.23,0,0,1-.23-.08c-.05-.06,0-.09,0-.13s.35-.21.2-.42S243.1,759.65,242.92,759.75Z" transform="translate(-0.05 -488.9)"/><path class="cls-49" d="M264.14,759.58a.11.11,0,0,1-.16,0,.19.19,0,0,0-.31,0c-.1.12,0,.23.05.34s.25.08.18.22-.25.1-.38,0l-.49-.23a.38.38,0,0,1-.24-.41c0-.11,0-.22,0-.33,0-.53,0-.54.52-.35A1.1,1.1,0,0,1,264.14,759.58Z" transform="translate(-0.05 -488.9)"/><path class="cls-50" d="M262.51,763.88a1.61,1.61,0,0,1,0-1Z" transform="translate(-0.05 -488.9)"/><path class="cls-51" d="M244.64,752.22a1.53,1.53,0,0,1,0,.9Z" transform="translate(-0.05 -488.9)"/><path class="cls-52" d="M263,747.62a.53.53,0,0,1,0-.52A.92.92,0,0,1,263,747.62Z" transform="translate(-0.05 -488.9)"/><path class="cls-53" d="M254.36,750.15a.3.3,0,0,0-.08-.17,2.74,2.74,0,0,1,1.13-4.39,3,3,0,0,1,3.67.87,2.75,2.75,0,0,1-2,4.4,3.11,3.11,0,0,1-2.61-.67.66.66,0,0,0-.15-.05Z" transform="translate(-0.05 -488.9)"/><path class="cls-53" d="M249.56,751.19a2.77,2.77,0,0,1-.4-5.52,3.41,3.41,0,0,1,1.87.21,2.73,2.73,0,0,1,.28,4.83A3.25,3.25,0,0,1,249.56,751.19Z" transform="translate(-0.05 -488.9)"/><path class="cls-54" d="M251.8,753a1,1,0,0,1-.73-1.15,1.32,1.32,0,0,1,.84-1c.1,0,.23-.05.3-.16a1.64,1.64,0,0,1,.07.54c-.11.09-.25.13-.36.22a.74.74,0,0,0-.33.66.39.39,0,0,0,.5.4,3.19,3.19,0,0,0,.75-.2,1.78,1.78,0,0,1,1.38,0,2.1,2.1,0,0,0,.58.2.5.5,0,0,0,.51-.22.48.48,0,0,0-.11-.57,2.18,2.18,0,0,0-.45-.35,1.07,1.07,0,0,1-.34-.25.68.68,0,0,1,.21-.42,2.89,2.89,0,0,1,1,.76.89.89,0,0,1,.16,1,.93.93,0,0,1-.88.6c-.24,0-.2.13-.21.26-.16-.11-.24-.31-.46-.33a2.57,2.57,0,0,0-.71-.23,1,1,0,0,0-.42,0c-.32.09-.62.22-.94.29A.7.7,0,0,1,251.8,753Z" transform="translate(-0.05 -488.9)"/><path class="cls-55" d="M254.62,750.71a.5.5,0,0,1-.2.41c0,.14-.11.18-.2.22a2.32,2.32,0,0,1-1.64.1.34.34,0,0,1-.3-.26c-.17-.16-.12-.34-.07-.52a.91.91,0,0,1,.7-.64,2,2,0,0,1,1.45.13h0C254.44,750.33,254.64,750.47,254.62,750.71Z" transform="translate(-0.05 -488.9)"/><path class="cls-56" d="M254.29,752.93a.42.42,0,0,1,.44.39l0,.51a.71.71,0,0,1-.4.74.74.74,0,0,1-.92-.1c-.13-.13-.2-.08-.31,0a.69.69,0,0,1-1.11-.25,2.44,2.44,0,0,1-.22-1.22c.15,0,.31-.07.43.08a3.63,3.63,0,0,1,.16.65c.06.16.07.38.31.35s.26-.23.27-.43a1.9,1.9,0,0,1,.14-.91.82.82,0,0,1,.49-.06,2.64,2.64,0,0,1,.06.93c0,.21,0,.46.29.49s.33-.21.29-.55S254.13,753.13,254.29,752.93Z" transform="translate(-0.05 -488.9)"/><path class="cls-6" d="M256.61,750.48a2.7,2.7,0,0,1-1.7-.51,2.2,2.2,0,0,1-.59-2.89,2.85,2.85,0,0,1,3.68-1,2.43,2.43,0,0,1,1.17,2.42,2.32,2.32,0,0,1-1.92,1.93A2.71,2.71,0,0,1,256.61,750.48Z" transform="translate(-0.05 -488.9)"/><path class="cls-6" d="M247.08,748.47a2.4,2.4,0,0,1,2.25-2.4,3.08,3.08,0,0,1,1.25.08,2.32,2.32,0,0,1,.59,4.17,2.77,2.77,0,0,1-3.59-.42A2.21,2.21,0,0,1,247.08,748.47Z" transform="translate(-0.05 -488.9)"/><path class="cls-48" d="M252.28,751.18a1.94,1.94,0,0,0,2.14-.06,2.08,2.08,0,0,1,.87.59.48.48,0,0,1,.09.64.54.54,0,0,1-.67.25h0a2.51,2.51,0,0,0-2.38-.07.51.51,0,0,1-.7-.14.69.69,0,0,1,0-.82A.85.85,0,0,1,252.28,751.18Z" transform="translate(-0.05 -488.9)"/><path class="cls-57" d="M254.29,752.93c0,.3,0,.6,0,.91a.34.34,0,0,1-.37.39.37.37,0,0,1-.39-.38,6.54,6.54,0,0,1,0-1.17A1.85,1.85,0,0,1,254.29,752.93Z" transform="translate(-0.05 -488.9)"/><path class="cls-58" d="M253.11,752.74c0,.36-.07.71-.05,1.06s-.17.34-.35.4-.26-.11-.33-.24a2,2,0,0,1-.15-.88A2.48,2.48,0,0,1,253.11,752.74Z" transform="translate(-0.05 -488.9)"/><path class="cls-59" d="M255.21,747.43a.86.86,0,0,1,.83.89.89.89,0,0,1-.82.91.86.86,0,0,1-.82-.9A.84.84,0,0,1,255.21,747.43Z" transform="translate(-0.05 -488.9)"/><path class="cls-60" d="M249.12,748.54a.83.83,0,1,1-1.66,0,.83.83,0,1,1,1.66,0Z" transform="translate(-0.05 -488.9)"/><path class="cls-61" d="M255.78,748.49c0,.17-.07.27-.2.26s-.19-.09-.19-.22.06-.23.2-.23A.2.2,0,0,1,255.78,748.49Z" transform="translate(-0.05 -488.9)"/><path class="cls-62" d="M248.68,749a.2.2,0,0,1-.21-.2.2.2,0,0,1,.18-.25c.13,0,.19.07.2.19S248.82,749,248.68,749Z" transform="translate(-0.05 -488.9)"/><path class="cls-63" d="M318.48,652.35h-4c-.09,0-.1,0-.1.11v6.1c0,.09,0,.11-.11.08a4.51,4.51,0,0,0-.53-.1,8.68,8.68,0,0,0-3.95.34,6.1,6.1,0,0,0-4,4,8.38,8.38,0,0,0-.22,4.47,5.53,5.53,0,0,0,1.2,2.51,5.64,5.64,0,0,0,2.5,1.68,10.23,10.23,0,0,0,3,.58,22.52,22.52,0,0,0,3.18-.08c1-.1,2-.26,3-.44.09,0,.13,0,.12-.14v-19C318.58,652.37,318.56,652.35,318.48,652.35Zm-3.94,16.33c0,.08,0,.11-.1.12a9.77,9.77,0,0,1-1.62.08,3.54,3.54,0,0,1-1.62-.44,2.67,2.67,0,0,1-1.23-1.62,4.91,4.91,0,0,1,0-2.84,2.8,2.8,0,0,1,2.33-2,4.7,4.7,0,0,1,2.11.11.12.12,0,0,1,.09.14Z" transform="translate(-0.05 -488.9)"/><path class="cls-63" d="M325.42,659v9.85a.49.49,0,0,0,0,.12c0,.26,0,.52,0,.78a20.77,20.77,0,0,1-.22,2.84,7,7,0,0,1-1.51,3.44,6.51,6.51,0,0,1-1.67,1.38c-.29.17-.6.34-.91.5a.14.14,0,0,1-.14,0l-3.74-1.76-.07,0,.12-.06a11.3,11.3,0,0,0,1.69-1,5,5,0,0,0,1.92-2.91,10,10,0,0,0,.28-2c.07-1.05.08-2.1.08-3.14v-8c0-.14,0-.12.13-.12h4.05Z" transform="translate(-0.05 -488.9)"/><path class="cls-63" d="M325,654.48c0,.67,0,1.35,0,2,0,.08,0,.1-.11.1h-4c-.09,0-.11,0-.11-.11v-4c0-.09,0-.11.11-.11h4c.09,0,.12,0,.12.11C325,653.13,325,653.8,325,654.48Z" transform="translate(-0.05 -488.9)"/><path class="cls-64" d="M304.29,702.48a1.88,1.88,0,1,0,0,3.75,1.88,1.88,0,0,0,0-3.75Zm0,0a1.88,1.88,0,1,0,0,3.75,1.88,1.88,0,0,0,0-3.75Zm0,0a1.88,1.88,0,1,0,0,3.75,1.88,1.88,0,0,0,0-3.75Zm0,0a1.88,1.88,0,1,0,0,3.75,1.88,1.88,0,0,0,0-3.75Zm0,0a1.88,1.88,0,1,0,0,3.75,1.88,1.88,0,0,0,0-3.75Zm0,0a1.88,1.88,0,1,0,0,3.75,1.88,1.88,0,0,0,0-3.75Zm0,0a1.88,1.88,0,1,0,0,3.75,1.88,1.88,0,0,0,0-3.75Zm0,0a1.88,1.88,0,1,0,0,3.75,1.88,1.88,0,0,0,0-3.75Zm10.27,1a3.62,3.62,0,0,0-1.23-1.29,9.16,9.16,0,0,0-2.73-1.26c-.19-.06-.22-.12-.18-.31a9.43,9.43,0,0,0,.28-2.34,4.87,4.87,0,0,0-.3-1.91,1.89,1.89,0,0,0-2-1.36,4.36,4.36,0,0,0-1.88.62,10.44,10.44,0,0,0-2.14,1.59c-.08.08-.13.11-.23,0a8.3,8.3,0,0,0-.9-.77,6.32,6.32,0,0,0-2.9-1.39,1.86,1.86,0,0,0-2.11,1,4.91,4.91,0,0,0-.41,2.54,10.35,10.35,0,0,0,.31,2.07c0,.11,0,.16-.11.19a9.1,9.1,0,0,0-1.51.55,5.74,5.74,0,0,0-2.23,1.57,1.9,1.9,0,0,0-.41,2,3.43,3.43,0,0,0,1.13,1.4,9,9,0,0,0,3,1.46c.1,0,.2,0,.16.2a12,12,0,0,0-.3,1.89,5.41,5.41,0,0,0,.27,2.36,1.89,1.89,0,0,0,2,1.38,4,4,0,0,0,1.62-.43,9.4,9.4,0,0,0,2.47-1.73c.1-.1.16-.1.26,0a9.23,9.23,0,0,0,.88.76,6.16,6.16,0,0,0,2.95,1.39,1.84,1.84,0,0,0,1.7-.62,3.63,3.63,0,0,0,.75-2.19,9.59,9.59,0,0,0-.27-2.82c0-.17,0-.21.16-.25a11.08,11.08,0,0,0,1.81-.74,5.52,5.52,0,0,0,1.88-1.47A1.85,1.85,0,0,0,314.56,703.49ZM305,697.9a8.4,8.4,0,0,1,2.68-1.81,2.8,2.8,0,0,1,.86-.17,1,1,0,0,1,.9.53,3.24,3.24,0,0,1,.32,1.1,6.39,6.39,0,0,1,.05.68,11.25,11.25,0,0,1-.28,2.25c0,.14-.08.16-.2.13a18.93,18.93,0,0,0-2.47-.39.37.37,0,0,1-.29-.17,19.72,19.72,0,0,0-1.56-2C305,698,304.92,698,305,697.9Zm-5,7.53c.38.74.79,1.43,1.24,2.16-.64-.08-1.23-.16-1.81-.29-.07,0-.11,0-.08-.12C299.52,706.6,299.72,706,300,705.43Zm-.17-2.53a12.51,12.51,0,0,1-.45-1.25c0-.08-.06-.15.06-.18a16.28,16.28,0,0,1,1.7-.28l.05,0c-.41.67-.81,1.35-1.18,2.07A1.23,1.23,0,0,1,299.81,702.9Zm.7,1.59a.25.25,0,0,1,0-.24,25.86,25.86,0,0,1,1.77-3.06.26.26,0,0,1,.21-.14,19.42,19.42,0,0,1,2.75,0,7.56,7.56,0,0,1,.83,0,.3.3,0,0,1,.21.12,33.37,33.37,0,0,1,1.78,3.06.3.3,0,0,1,0,.26,30.07,30.07,0,0,1-1.76,3.07.28.28,0,0,1-.26.14c-.6,0-1.2.07-1.78,0s-1.15,0-1.72,0a.29.29,0,0,1-.24-.14A26.19,26.19,0,0,1,300.51,704.49Zm8.08.9c.1.24.19.43.27.64s.25.69.39,1c.06.16,0,.2-.14.23-.57.11-1.14.21-1.76.28C307.79,706.85,308.21,706.16,308.59,705.39Zm0-2.08c-.4-.73-.79-1.42-1.23-2.12a4.1,4.1,0,0,1,.67.08l1.07.2c.11,0,.16.07.12.18C309,702.19,308.84,702.74,308.59,703.31Zm-4.38-4.6c.06-.06.09-.06.15,0a16,16,0,0,1,1.14,1.39h-2.44A16,16,0,0,1,304.21,698.71Zm-5.29-1.88a1.11,1.11,0,0,1,1.49-.84,5.79,5.79,0,0,1,2.15,1.07,10.32,10.32,0,0,1,1,.79c.1.08.13.14,0,.25a19.51,19.51,0,0,0-1.62,2,.29.29,0,0,1-.24.11,18.5,18.5,0,0,0-2.46.38c-.13,0-.18,0-.21-.15a9.54,9.54,0,0,1-.28-2.24A4.23,4.23,0,0,1,298.92,696.83Zm-.43,10c-.05.16-.11.18-.27.13a7.2,7.2,0,0,1-3.1-1.72,1.47,1.47,0,0,1-.45-.91,1.29,1.29,0,0,1,.38-.84,4.91,4.91,0,0,1,1.79-1.23,9.36,9.36,0,0,1,1.45-.54c.11,0,.16,0,.19.1a20.32,20.32,0,0,0,.92,2.39.28.28,0,0,1,0,.25A18.43,18.43,0,0,0,298.49,706.87Zm5.13,4a7.57,7.57,0,0,1-2.94,1.85,2.37,2.37,0,0,1-.7.1,1,1,0,0,1-.91-.55,3.18,3.18,0,0,1-.32-1.28,4.21,4.21,0,0,1,0-.5,9.18,9.18,0,0,1,.27-2.15c0-.14.08-.17.23-.14a17.64,17.64,0,0,0,2.51.36.29.29,0,0,1,.21.11,21.29,21.29,0,0,0,1.63,2C303.63,710.73,303.7,710.77,303.62,710.85Zm.79-.82c-.07.1-.12.08-.19,0-.41-.44-.78-.9-1.18-1.41a19,19,0,0,0,2.5,0c-.3.43-.59.78-.89,1.14Zm5.27,1.7a1.22,1.22,0,0,1-1.75,1,6.26,6.26,0,0,1-2.07-1.14c-.28-.22-.53-.45-.8-.68-.1-.08-.11-.15,0-.25a15.73,15.73,0,0,0,1.52-1.93.39.39,0,0,1,.32-.19,21,21,0,0,0,2.5-.39c.14,0,.18,0,.2.13a10.48,10.48,0,0,1,.26,2.08A4.93,4.93,0,0,1,309.68,711.73Zm3.73-6.44a6.07,6.07,0,0,1-2.1,1.32c-.32.13-.65.23-1,.36-.12,0-.17,0-.21-.11a20.55,20.55,0,0,0-1-2.39.21.21,0,0,1,0-.23,20.08,20.08,0,0,0,.93-2.37c0-.07,0-.14.14-.11a7.67,7.67,0,0,1,3.2,1.69,1.35,1.35,0,0,1,.44,1.06A1.3,1.3,0,0,1,313.41,705.29Zm-9.13.94a1.88,1.88,0,0,0,0-3.75,1.88,1.88,0,1,0,0,3.75Zm0-3.75a1.88,1.88,0,1,0,0,3.75,1.88,1.88,0,0,0,0-3.75Zm0,0a1.88,1.88,0,1,0,0,3.75,1.88,1.88,0,0,0,0-3.75Zm0,0a1.88,1.88,0,1,0,0,3.75,1.88,1.88,0,0,0,0-3.75Zm0,0a1.88,1.88,0,1,0,0,3.75,1.88,1.88,0,0,0,0-3.75Zm0,0a1.88,1.88,0,1,0,0,3.75,1.88,1.88,0,0,0,0-3.75Zm0,0a1.88,1.88,0,1,0,0,3.75,1.88,1.88,0,0,0,0-3.75Zm0,0a1.88,1.88,0,1,0,0,3.75,1.88,1.88,0,0,0,0-3.75Zm0,0a1.88,1.88,0,1,0,0,3.75,1.88,1.88,0,0,0,0-3.75Z" transform="translate(-0.05 -488.9)"/><path class="cls-6" d="M306.15,704.36a1.87,1.87,0,1,1-3.74,0,1.87,1.87,0,1,1,3.74,0Z" transform="translate(-0.05 -488.9)"/><path class="cls-64" d="M306.15,704.36a1.87,1.87,0,1,1-3.74,0,1.87,1.87,0,1,1,3.74,0Z" transform="translate(-0.05 -488.9)"/><path class="cls-65" d="M289.37,625.76a22.62,22.62,0,0,1-3.12-3.22,5,5,0,0,1-1.06-2.24,2.76,2.76,0,0,1,.54-2.06,12.48,12.48,0,0,1,2.34-2.31,35.25,35.25,0,0,0,2.89-2.42,6.36,6.36,0,0,0,1.57-2.32,5,5,0,0,0,.2-2.71,1.7,1.7,0,0,1,0-.22s0-.06,0-.14a3.3,3.3,0,0,1,.74,1.61,5.13,5.13,0,0,1-1,3.87,15,15,0,0,1-3.08,3.13,8.18,8.18,0,0,0-2,2.19,3.31,3.31,0,0,0-.18,3.13,10.44,10.44,0,0,0,1.21,2A9.78,9.78,0,0,1,289.37,625.76Z" transform="translate(-0.05 -488.9)"/><path class="cls-66" d="M282.34,635.7a6.5,6.5,0,0,0-2.28.62l-.24.14c-.15.1-.34.2-.31.41s.21.25.36.31a10.52,10.52,0,0,0,2.65.61,40.34,40.34,0,0,0,5.6.3,53.22,53.22,0,0,0,8.55-.61,11,11,0,0,0,1.85-.43,2.52,2.52,0,0,0,.68-.33.59.59,0,0,0,.25-.8c.48.12.62.53.29.88a3,3,0,0,1-1.13.69,19,19,0,0,1-4.08,1,46.26,46.26,0,0,1-8.15.44,51.23,51.23,0,0,1-7.62-.76,2.5,2.5,0,0,1-1-.37.47.47,0,0,1-.11-.77,1.67,1.67,0,0,1,.45-.39,7.72,7.72,0,0,1,3.87-1.14,1.45,1.45,0,0,1,.47.08C282.44,635.66,282.38,635.67,282.34,635.7Z" transform="translate(-0.05 -488.9)"/><path class="cls-65" d="M290.7,626.85c.18-.25.33-.44.46-.64a2.06,2.06,0,0,0-.15-2.51,7.71,7.71,0,0,1-1.17-1.76,3.44,3.44,0,0,1,.66-4,10,10,0,0,1,3.48-2.33,17.38,17.38,0,0,1,2.51-.9c-.07.15-.19.17-.28.23a23.17,23.17,0,0,0-3.61,2.53,5,5,0,0,0-1,1.13,2,2,0,0,0-.12,2,13.5,13.5,0,0,0,1.13,1.76,2.24,2.24,0,0,1,0,2.74,3.55,3.55,0,0,1-.23.31,6.33,6.33,0,0,1-1.43,1.25Z" transform="translate(-0.05 -488.9)"/><path class="cls-66" d="M285,633.21c-.31.42-.26.59.19.73a9.3,9.3,0,0,0,2,.3,17.82,17.82,0,0,0,5.2-.35.73.73,0,0,1,.57.09c.47.25,1,.48,1.47.74a11,11,0,0,1-2.1.69,14.3,14.3,0,0,1-7.06,0,3.64,3.64,0,0,1-1.37-.63c-.47-.36-.46-.76,0-1.1A3,3,0,0,1,285,633.21Z" transform="translate(-0.05 -488.9)"/><path class="cls-66" d="M296,627.26a7.85,7.85,0,0,1-3.67,1.13,40.28,40.28,0,0,1-6.58.37,21.62,21.62,0,0,1-4.68-.48,2.48,2.48,0,0,1-.79-.32c-.26-.17-.27-.37,0-.57a1.81,1.81,0,0,1,.29-.19,11.52,11.52,0,0,1,4.7-1.27.83.83,0,0,1,.31,0c-.64.2-1.29.37-1.92.61a4,4,0,0,0-1,.48c-.31.23-.28.42.08.57a5.16,5.16,0,0,0,1.46.27,44.23,44.23,0,0,0,5.64,0c1.58-.09,3.15-.25,4.72-.47l1.41-.2C296,627.16,296,627.2,296,627.26Z" transform="translate(-0.05 -488.9)"/><path class="cls-66" d="M295.07,631.25a19.29,19.29,0,0,1-2.43.57,25,25,0,0,1-5.39.39,12.82,12.82,0,0,1-3.43-.51,2.61,2.61,0,0,1-.93-.46.51.51,0,0,1-.05-.84,3.13,3.13,0,0,1,1.29-.7c0,.07,0,.1,0,.11-.43.5-.16.81.38.93A13.84,13.84,0,0,0,287,631a26.13,26.13,0,0,0,6.54-.53.36.36,0,0,1,.33,0A4.12,4.12,0,0,0,295.07,631.25Z" transform="translate(-0.05 -488.9)"/><path class="cls-66" d="M282.23,639.64c1.07.1,2.14.23,3.22.28,1.32.07,2.64.12,4,.08s2.58-.09,3.86-.23a27.91,27.91,0,0,0,6.14-1.19,5,5,0,0,0,1.93-1.06,1.62,1.62,0,0,1-.66,1,6.16,6.16,0,0,1-2.24,1,24.84,24.84,0,0,1-4.77.77c-1.43.12-2.87.18-4.31.16a34.24,34.24,0,0,1-6.15-.48,5,5,0,0,1-1.12-.33C282.1,639.58,282.17,639.62,282.23,639.64Z" transform="translate(-0.05 -488.9)"/><path class="cls-66" d="M296.26,632c.08-.21.26-.24.39-.31a8.62,8.62,0,0,0,2.82-2.27,2.45,2.45,0,0,0,.51-1.18,2,2,0,0,0-2.56-2.13,1,1,0,0,1-.49.08,2.79,2.79,0,0,1,2.18-.52,2.59,2.59,0,0,1,1.64.8,2.19,2.19,0,0,1,.26,2.67,4.41,4.41,0,0,1-1.35,1.4A11,11,0,0,1,296.26,632Z" transform="translate(-0.05 -488.9)"/><path class="cls-67" d="M282.23,639.64l-.14.06-.27-.09A.51.51,0,0,1,282.23,639.64Z" transform="translate(-0.05 -488.9)"/><path class="cls-68" d="M282.34,635.7l.06-.11c.07,0,.16,0,.14.07S282.41,635.7,282.34,635.7Z" transform="translate(-0.05 -488.9)"/><path class="cls-69" d="M296,627.26l-.07-.07a.26.26,0,0,1,.23,0C296.11,627.23,296.05,627.24,296,627.26Z" transform="translate(-0.05 -488.9)"/><path class="cls-70" d="M257.35,682.48a2.46,2.46,0,0,1-.29-1.12V670a2.23,2.23,0,0,1,1.2-2q2.07-1.21,4.16-2.4l4.21-2.41c.45-.25.88-.52,1.32-.78a2,2,0,0,1,.85-.32,3.17,3.17,0,0,1,.87,0,2.83,2.83,0,0,1,1.18.54c1.34.76,2.67,1.52,4,2.3.79.46,1.59.94,2.4,1.4l2.29,1.3a4.5,4.5,0,0,1,1.2.78,3.48,3.48,0,0,1,.38.48,10.72,10.72,0,0,1-1.17.71l-3.55,2.05s-.1.08-.18.06a8,8,0,0,0-6-4l-.35-.08c-.51,0-1,0-1.52,0-.05.09-.14.08-.22.09a8,8,0,0,0-4.09,1.78,8.11,8.11,0,0,0-2.52,3.7.94.94,0,0,1-.1.23.81.81,0,0,0-.09.46,8.87,8.87,0,0,0-.13,3c0,.11-.12.22,0,.32.15.38.19.78.34,1.16a7,7,0,0,0,.55,1.22.41.41,0,0,1,.08.24c0,.12-.15.17-.25.22-1.44.81-2.86,1.66-4.3,2.47C257.57,682.44,257.48,682.54,257.35,682.48Z" transform="translate(-0.05 -488.9)"/><path class="cls-71" d="M257.35,682.48l3-1.74,1.77-1c.16,0,.21.18.28.3a7.72,7.72,0,0,0,1.47,1.7A8.2,8.2,0,0,0,266,683a.4.4,0,0,1,.24.14s0,.09-.05.08.12,0,.18,0c.37.11.75.18,1.12.32a.61.61,0,0,0,.27,0,1,1,0,0,1,.37.08l.12.05a.94.94,0,0,0,.55,0,3.66,3.66,0,0,1,.81,0,1.33,1.33,0,0,0,.56,0l.15-.05h.08s.05,0,.08,0-.05,0,0-.07a.73.73,0,0,1,.42-.14c.36-.08.71-.17,1.06-.27.11,0,.24,0,.33-.1.4-.23.84-.41,1.23-.66A7.94,7.94,0,0,0,276,680.1a2.42,2.42,0,0,1,.27-.36c.08-.06.15,0,.23,0,1,.53,1.93,1.1,2.89,1.65l1.53.89c.09.05.22.08.2.23a2.41,2.41,0,0,1-1.15,1L270.43,689a2.22,2.22,0,0,1-2.38,0l-9.94-5.73A1.89,1.89,0,0,1,257.35,682.48Z" transform="translate(-0.05 -488.9)"/><path class="cls-72" d="M281.07,682.52a14.37,14.37,0,0,0-1.35-.83c-.76-.45-1.53-.88-2.3-1.32l-1.11-.62s0,0-.05,0c-1.05-.63-2.11-1.23-3.17-1.85l-.4-.19-3.31-1.92a.42.42,0,0,1-.18-.14c0-.13.1-.17.19-.22l3.12-1.8a2.49,2.49,0,0,1,.29-.11c1-.63,2.06-1.2,3.09-1.81.11-.06.2-.15.34-.11.5-.36,1-.63,1.58-.94l3-1.72a.67.67,0,0,1,.33-.15,1.86,1.86,0,0,1,.28.85.52.52,0,0,0,0,.25v11.46a.52.52,0,0,0,0,.25A1.93,1.93,0,0,1,281.07,682.52Z" transform="translate(-0.05 -488.9)"/><path class="cls-73" d="M281.4,681.62c-.08-.09,0-.19,0-.29V670c0-.1,0-.21,0-.29,0,.07,0,.15,0,.22V681.4C281.41,681.47,281.4,681.55,281.4,681.62Z" transform="translate(-0.05 -488.9)"/><path class="cls-74" d="M269.67,662h-.87A1.44,1.44,0,0,1,269.67,662Z" transform="translate(-0.05 -488.9)"/><path class="cls-6" d="M272.7,677.7c.11-.05.18,0,.26.07l3.13,1.81c.07,0,.18.07.17.19a8.07,8.07,0,0,1-1.05,1.41,8.38,8.38,0,0,1-2.37,1.75l-.55.26c-.09.1-.22.07-.32.12-.5.16-1,.27-1.54.39,0,0,0,0,0,0h-.06c-.11,0-.24,0-.35.08a1.13,1.13,0,0,1-.32,0h-.9a.61.61,0,0,1-.27,0c-.11,0-.24,0-.35-.08l-.39-.06c-.08-.07-.19,0-.28,0l-1.13-.33s-.08,0-.12,0a9.28,9.28,0,0,1-2.35-1.44,7.93,7.93,0,0,1-1.6-1.91l-.1-.14a9.76,9.76,0,0,1-1-2.67.2.2,0,0,1,0-.21,9.16,9.16,0,0,1,.12-3.09c.05-.15.06-.31.12-.45a9,9,0,0,1,1.15-2.33,8,8,0,0,1,5.67-3.41l.15-.05a9.15,9.15,0,0,1,1.57,0,8.54,8.54,0,0,1,4,1.5,8.13,8.13,0,0,1,2.16,2.29c.06.09.14.18.1.31-1,.59-2.06,1.19-3.1,1.77-.11.07-.17.21-.32.2s-.21-.08-.27-.17a4.11,4.11,0,0,0-2.35-1.64,1.66,1.66,0,0,0-.59-.09,3.52,3.52,0,0,0-2.14.39,4,4,0,0,0-1.64,5.62,4,4,0,0,0,2.75,1.85,1.71,1.71,0,0,0,.45,0h.4a1.28,1.28,0,0,0,.39,0l.21,0a4,4,0,0,0,2.35-1.46C272.47,677.94,272.54,677.78,272.7,677.7Z" transform="translate(-0.05 -488.9)"/><path class="cls-75" d="M269.94,667.52h-1.59l0,0,.07,0h1.4A.17.17,0,0,1,269.94,667.52Z" transform="translate(-0.05 -488.9)"/><path class="cls-76" d="M261.4,673.31a1,1,0,0,1-.12.45A.61.61,0,0,1,261.4,673.31Z" transform="translate(-0.05 -488.9)"/><path class="cls-77" d="M261.16,676.85l0,.21C261.07,677,261.11,676.93,261.16,676.85Z" transform="translate(-0.05 -488.9)"/><path class="cls-78" d="M269.66,683.77H270c.08,0,.16,0,.23,0A.7.7,0,0,1,269.66,683.77Z" transform="translate(-0.05 -488.9)"/><path class="cls-79" d="M268.49,683.76h.27a.7.7,0,0,1-.55,0A.28.28,0,0,1,268.49,683.76Z" transform="translate(-0.05 -488.9)"/><path class="cls-80" d="M272,683.31a.73.73,0,0,1,.32-.12C272.23,683.37,272.09,683.3,272,683.31Z" transform="translate(-0.05 -488.9)"/><path class="cls-81" d="M268.49,683.76h-.28l-.07-.06A.7.7,0,0,1,268.49,683.76Z" transform="translate(-0.05 -488.9)"/><path class="cls-82" d="M270.21,683.77H270a.7.7,0,0,1,.35,0S270.26,683.76,270.21,683.77Z" transform="translate(-0.05 -488.9)"/><path class="cls-83" d="M266.22,683.22l.12,0a.15.15,0,0,1-.17,0Z" transform="translate(-0.05 -488.9)"/><path class="cls-84" d="M270.39,683.7h0l.23,0C270.54,683.77,270.46,683.79,270.39,683.7Z" transform="translate(-0.05 -488.9)"/><path class="cls-85" d="M267.47,683.6a.34.34,0,0,1,.28,0C267.66,683.65,267.55,683.69,267.47,683.6Z" transform="translate(-0.05 -488.9)"/><path class="cls-70" d="M265.77,677.75a4,4,0,0,1,2.08-5.91,3.39,3.39,0,0,1,1.75-.22c.21,0,.42.06.63.11a4,4,0,0,1,2.35,1.63c.06.09.1.21.23.23-.82.4-1.59.89-2.38,1.34a11.65,11.65,0,0,0-1.22.74,2.73,2.73,0,0,1-.78.52C267.54,676.71,266.63,677.19,265.77,677.75Z" transform="translate(-0.05 -488.9)"/><path class="cls-71" d="M265.77,677.75c0-.12.08-.15.16-.2l3.28-1.88c.42.18.81.44,1.21.66l2.09,1.21c.07.05.15.07.19.16a3.94,3.94,0,0,1-2.65,1.89,2.46,2.46,0,0,0-.47,0,.34.34,0,0,1,.26,0,.72.72,0,0,1-.41,0,.66.66,0,0,0-.44,0,3.72,3.72,0,0,1-2.84-1.43A4.45,4.45,0,0,1,265.77,677.75Z" transform="translate(-0.05 -488.9)"/><path class="cls-86" d="M278.88,675.15c.11-.21,0-.43,0-.64s0-.25.23-.25c.71,0,.71,0,.72.71,0,.06-.08.18.08.19s0,0,.05,0c.26.05.53-.06.78.07a1.46,1.46,0,0,1,0,.9,2.91,2.91,0,0,1-.78,0c-.18.07-.08.22-.08.33,0,.56,0,.56-.54.56s-.39,0-.41-.41c0-.16.06-.32,0-.47a2.38,2.38,0,0,1-.84,0V676c0-.27-.09-.61,0-.79s.49,0,.74-.07C278.84,675.13,278.86,675.13,278.88,675.15Z" transform="translate(-0.05 -488.9)"/><path class="cls-87" d="M275.5,675.15a1.84,1.84,0,0,0,0-.66c0-.16,0-.24.22-.23s.46,0,.69,0a2,2,0,0,1,0,.59c0,.1,0,.2,0,.3h.67c.12,0,.2,0,.19.16a6.78,6.78,0,0,1,0,.78,3.18,3.18,0,0,1-.62,0c-.08,0-.18,0-.24.06a3.61,3.61,0,0,1,0,.8h-.68c-.19,0-.24-.07-.23-.24a2,2,0,0,0,0-.64l-.1,0a3.64,3.64,0,0,1-.74,0,5.9,5.9,0,0,1,0-.94,4.74,4.74,0,0,1,.75-.06A.25.25,0,0,1,275.5,675.15Z" transform="translate(-0.05 -488.9)"/><path class="cls-88" d="M278,676.1l.84,0V677h-.06c0-.17,0-.35,0-.53s-.06-.25-.25-.25S278.2,676.25,278,676.1Z" transform="translate(-0.05 -488.9)"/><path class="cls-89" d="M275.45,675.16h-.79c0-.06,0-.11.1-.1a.65.65,0,0,0,.69-.19A.34.34,0,0,1,275.45,675.16Z" transform="translate(-0.05 -488.9)"/><path class="cls-90" d="M280.73,676.11a5.2,5.2,0,0,0,0-.88,1.22,1.22,0,0,1,0,.94s0,0,0,0S280.72,676.11,280.73,676.11Z" transform="translate(-0.05 -488.9)"/><path class="cls-91" d="M279.82,677.12H279v0h.83Z" transform="translate(-0.05 -488.9)"/><path class="cls-92" d="M275.58,677.09h.82v0h-.83Z" transform="translate(-0.05 -488.9)"/><path class="cls-93" d="M276.4,674.19h-.83v0h.83Z" transform="translate(-0.05 -488.9)"/><path class="cls-93" d="M279.83,674.19H279v0h.83Z" transform="translate(-0.05 -488.9)"/><path class="cls-94" d="M277.43,676v-.81h0v.83Z" transform="translate(-0.05 -488.9)"/><path class="cls-95" d="M276.52,675.16c-.13-.17,0-.37-.06-.55a1.93,1.93,0,0,1,0-.34C276.6,674.56,276.48,674.86,276.52,675.16Z" transform="translate(-0.05 -488.9)"/><path class="cls-96" d="M278.88,675.15h-.06v-.84h.06Z" transform="translate(-0.05 -488.9)"/><path class="cls-97" d="M280,675.16H280v-.83H280Z" transform="translate(-0.05 -488.9)"/><path class="cls-98" d="M275.45,676.12h.06V677h-.06v-.77s0,0,0,0Z" transform="translate(-0.05 -488.9)"/><path class="cls-99" d="M276.47,676.17a2.62,2.62,0,0,1,.88-.06c-.26.14-.55,0-.83.07C276.5,676.2,276.48,676.2,276.47,676.17Z" transform="translate(-0.05 -488.9)"/><path class="cls-98" d="M275.45,675.16v-.83h.05v.82Z" transform="translate(-0.05 -488.9)"/><path class="cls-100" d="M276.47,676.17h0c0,.27.09.56-.07.83C276.45,676.73,276.46,676.45,276.47,676.17Z" transform="translate(-0.05 -488.9)"/><path class="cls-97" d="M280,676.18V677H280v-.78S280,676.15,280,676.18Z" transform="translate(-0.05 -488.9)"/><path class="cls-101" d="M280,676.18H280v0h.78v.06Z" transform="translate(-0.05 -488.9)"/><path class="cls-102" d="M275.45,676.12v.06c-.26,0-.53.07-.78-.07Z" transform="translate(-0.05 -488.9)"/><path class="cls-103" d="M270.23,671.73a1.5,1.5,0,0,1-.63-.11A1.24,1.24,0,0,1,270.23,671.73Z" transform="translate(-0.05 -488.9)"/><path class="cls-104" d="M269.84,679.61l-.29,0a.72.72,0,0,1,.5,0Z" transform="translate(-0.05 -488.9)"/><path class="cls-105" d="M269,679.66a.39.39,0,0,1,.44,0A.94.94,0,0,1,269,679.66Z" transform="translate(-0.05 -488.9)"/><ellipse class="cls-106" cx="265.2" cy="186.74" rx="0.02" ry="0.28"/><path class="cls-107" d="M269,671.66a.86.86,0,0,1,.45,0A1.14,1.14,0,0,1,269,671.66Z" transform="translate(-0.05 -488.9)"/><path class="cls-108" d="M288.36,591.93c-.45-.37-.3-.9-.3-1.37,0-3.69,0-7.38,0-11.08a2.1,2.1,0,0,1,1.17-2.11c3.42-1.88,6.82-3.81,10.23-5.72a1.72,1.72,0,0,1,1.84-.11l11.06,6.23c.13.07.18.26.27.39-1.35,1-2.64,2.11-4.39,2.37-1.56-1.59-3-3.3-5.32-3.89A8.79,8.79,0,0,0,292,587.29a5.33,5.33,0,0,1,.47,2.22A8.44,8.44,0,0,1,288.36,591.93Z" transform="translate(-0.05 -488.9)"/><path class="cls-109" d="M308.28,580.44c1.47-.72,2.7-1.89,4.33-2.28.47.44.29,1,.29,1.53q0,5.37,0,10.73c0,.67.2,1.45-.63,1.85a43.38,43.38,0,0,0-4-2.39,29.19,29.19,0,0,0-4.33-2.17c-1.07-1.08-2.82-1.24-3.62-2.68.93-1.65,2.81-1.92,4.21-2.88C305.83,581.67,306.75,580.37,308.28,580.44Z" transform="translate(-0.05 -488.9)"/><path class="cls-110" d="M308.38,589.63c1.28.9,3.17.91,3.89,2.64l-10.87,6.2a1.57,1.57,0,0,1-1.69.07l-11.19-6.34c-.07,0-.11-.18-.16-.27a24.8,24.8,0,0,1,4-2.38c.65,0,.9.55,1.26.94,4,4.45,9.59,4.47,13.63,0C307.6,590.18,307.83,589.71,308.38,589.63Z" transform="translate(-0.05 -488.9)"/><path class="cls-6" d="M308.38,589.63a9.12,9.12,0,0,1-15.41.69c-.19-.26-.38-.52-.58-.77-1.85-4.74-1.15-8.58,2.08-11.43,4.31-3.8,11.25-2.63,13.81,2.32l-3.54,2.07c-.68.2-1.11-.24-1.6-.58-1.86-1.29-3.53-1.33-5.1-.16a4.07,4.07,0,0,0-1.21,5.09c1.62,2.55,3.82,3,6.28,1.34.31-.21.58-.5,1-.5C305.86,587.59,307,588.89,308.38,589.63Z" transform="translate(-0.05 -488.9)"/><path class="cls-108" d="M296.52,587a4.34,4.34,0,0,1,1.23-5.61,4.5,4.5,0,0,1,5.71.2c.4.34.63.92,1.28.91a24.94,24.94,0,0,0-4.26,2.51C299.31,586,298.2,587.07,296.52,587Z" transform="translate(-0.05 -488.9)"/><path class="cls-110" d="M296.52,587l4-2,2.84,1.76c.38.22.77.4.78.92C301.73,590.53,298.05,590.2,296.52,587Z" transform="translate(-0.05 -488.9)"/><path class="cls-111" d="M387.22,762.83l-12.48-.48L361,663.3q-7.29,50.38-14.3,98.8l-12.59-.05,3.18-98.75.08-13.66.1-15.38h47.06l.1,15.31.08,13.73Z" transform="translate(-0.05 -488.9)"/><path class="cls-112" d="M360.66,657.19s3.84,1.86,3.67-22.93" transform="translate(-0.05 -488.9)"/><path class="cls-112" d="M361,662.44s-2.07-19.79.18-28.18" transform="translate(-0.05 -488.9)"/><path class="cls-113" d="M384.5,649.05c-3.82-.74-6.73-4.6-6.73-9.25a10.37,10.37,0,0,1,1.55-5.54h5Z" transform="translate(-0.05 -488.9)"/><path class="cls-113" d="M344.81,638.82c0,4.84-3.15,8.82-7.19,9.32l.19-14.85h5.45A10.43,10.43,0,0,1,344.81,638.82Z" transform="translate(-0.05 -488.9)"/><polygon class="cls-114" points="325.41 78.4 325.4 78.41 325.4 78.41 325.41 78.4"/><path class="cls-114" d="M400.58,596.19c-3.31,1.52-9.75,2.51-13.72,3-.05.73-.1,1.45-.16,2.18q-1.23,17.57-2.33,33.15a131.41,131.41,0,0,1-46.57,0c-.08-.07-.23-.11-.24-.22q-1.12-17-2.39-36.27l-.15-2.34c-7.44-.05-13.73-.75-13.73-.75.43-12,1.74-21.56,4.16-27.63h0a6.76,6.76,0,0,1,.82-1.52h0c.12-.21,4-6.83,16.85-6.83h35.65s15.42.18,17.69,10.06c.83,3.69,1.6,7.59,2.26,11.71C399.6,586.18,400.19,591.35,400.58,596.19Z" transform="translate(-0.05 -488.9)"/><path class="cls-114" d="M383.61,599.54c-.69-6.2-2.13-19.37-3.7-27.44h0a6.73,6.73,0,0,1-.19-1.56" transform="translate(-0.05 -488.9)"/><path class="cls-114" d="M339.52,595.64s1.46-15,2.09-23.62h0" transform="translate(-0.05 -488.9)"/><path class="cls-115" d="M374.18,561c0,4.63-6,8.39-13.42,8.39s-13.43-3.76-13.43-8.39a5.32,5.32,0,0,1,.41-2h26A5.32,5.32,0,0,1,374.18,561Z" transform="translate(-0.05 -488.9)"/><ellipse class="cls-115" cx="344.82" cy="597.87" rx="1.46" ry="1.89" transform="translate(-328.02 -45) rotate(-47.14)"/><path class="cls-115" d="M339,590.32c.77.3,3,3.2,3.79,4.19a5.68,5.68,0,0,0,1.8,1.69c.08.94.17,2.35.27,3.29a8,8,0,0,1-3.65-1.17c-2.49-1.47-2.11-3.71-2.53-3.88s-3.1-.46-3.41-.77.49-.52.49-.52-.8-.45-.75-.65a5.29,5.29,0,0,1,2.06-.71,12.56,12.56,0,0,1,2.89.65s-.85-.92-1.08-1.11-2.91,0-2.9-.41S338.18,590,339,590.32Z" transform="translate(-0.05 -488.9)"/><path class="cls-116" d="M396.67,597.48c-.31,6.17-1.58,11.23-3.52,12.69-2.81,2.1-10.51,1.29-19.43-.42s-26.86-4.84-26.86-4.84,13.79-5.84,24.92-7.09a45.15,45.15,0,0,1,11.64,0,18.46,18.46,0,0,1,4.85,1.18A80,80,0,0,0,396.67,597.48Z" transform="translate(-0.05 -488.9)"/><path class="cls-117" d="M353.34,606.05l5.67,1c7.87-2.78,24.14-6.44,23.91-9.26l-5.25-.33Z" transform="translate(-0.05 -488.9)"/><path class="cls-116" d="M388.27,599s-32.36,6.34-41.57,9.25c-11.39,3.59-16.27,1.74-18.76-2.44-2-3.27-2.23-4.82-2.62-10.55a120.62,120.62,0,0,0,14.19.37s16.77-1.3,27.56-1.54C381.29,593.79,386.21,596.09,388.27,599Z" transform="translate(-0.05 -488.9)"/><path class="cls-118" d="M361,662.44" transform="translate(-0.05 -488.9)"/><path class="cls-119" d="M334.62,762.06l.37,4.24a15.49,15.49,0,0,0-4.83,1.22c-2.11.91-4.12,1.78-4.68,3.84a5.32,5.32,0,0,0,.24,3.22l19.41.14.3-12.73Z" transform="translate(-0.05 -488.9)"/><path class="cls-119" d="M375.57,762.38v3.92a12.3,12.3,0,0,0-.61,4.39c.05,1.28.13,3.18,1.27,3.74a1.8,1.8,0,0,0,.92.15h8.73c.29-.14,2.18-1.11,2.41-2.86a5,5,0,0,0-.68-2.75,7.06,7.06,0,0,1-.87-1.45,5,5,0,0,1-.19-1.75,13,13,0,0,1,.39-2.94Z" transform="translate(-0.05 -488.9)"/><path class="cls-120" d="M368.68,561.29l-15,.18c0-1.53,0-3.07-.05-4.61,0-2.52,0-5,0-7.55a40.81,40.81,0,0,0,4.22,1.81,13.74,13.74,0,0,0,3.93,1.13,9.44,9.44,0,0,0,6.62-3c.08,2.56.15,5.16.19,7.79C368.65,558.5,368.67,559.9,368.68,561.29Z" transform="translate(-0.05 -488.9)"/><path class="cls-121" d="M370.51,551.71a16.59,16.59,0,0,1-2.75,3.07,9.44,9.44,0,0,1-6.62,3c-2.68-.1-5.33-1.72-7.38-3.55a20.44,20.44,0,0,1-3.08-3.44c-1.43-2.14-2.62-5-3.08-13.89-.34-6.58-.51-9.87.57-11.7,3.22-5.47,10.86-5.8,11.8-5.82.79,0,8.72-.13,12.52,5.54,1.58,2.36,1.52,5.61,1.4,12.12C373.71,546.28,371.63,550,370.51,551.71Z" transform="translate(-0.05 -488.9)"/><path class="cls-122" d="M348.3,537.64a.71.71,0,0,0,.06-.19,34.49,34.49,0,0,0,1-7.74h0a3.93,3.93,0,0,1,1-.79,50.59,50.59,0,0,1,19.09-.16,4,4,0,0,1,2.1,1c2.63,2.28,1.52,7.19,1.29,8.13l1,.06c3-7.22,1.6-14.7-3-18.4-1.92-1.56-5.06-2.37-7.63-2.57-1.82-.14-3.71.13-7.48.67a34.74,34.74,0,0,0-4,.82,9.43,9.43,0,0,0-3.45,1.3c-1.34,1.08-1.63,2.74-1.91,4.54-.82,5.25.87,11,1,12.29,0,.22.06.44.08.67,0,.49,0,.64.13.7S348.18,537.9,348.3,537.64Z" transform="translate(-0.05 -488.9)"/><path class="cls-122" d="M348.3,537.64l1,7.18a5.07,5.07,0,0,0,.38.86,5.13,5.13,0,0,0,.77,1.06c1,1,1.64,1.57,2.35,2.34.87.95.68,1.06,2.13,2.82a10.53,10.53,0,0,0,1.2,1.34,7.73,7.73,0,0,0,2.59,1.59,7.88,7.88,0,0,0,5.35-.07,6,6,0,0,0,2.57-1.63,16.53,16.53,0,0,0,1.12-1.67c.43-.64.72-1.08,1.32-2,.8-1.17,1.54-2.37,2.38-3.52a5.49,5.49,0,0,0,.69-1.24,4.6,4.6,0,0,0,.18-.51,8,8,0,0,0,.2-1,31.78,31.78,0,0,0,.42-4.56c0-.48-.1-1.06.23-1.31a.91.91,0,0,1,.72-.07,50,50,0,0,1-.74,7.5c-.53,3-.87,4.83-2.05,6.92a15,15,0,0,1-3.52,4.18,10.93,10.93,0,0,1-6,2.19c-5.62.19-10-4.59-11.84-8.56a14.65,14.65,0,0,1-1.17-4.19c-.18-.93-.3-1.8-.47-3.11,0,0-.22-1.66-.31-2.83a8.48,8.48,0,0,0-.1-1.4.29.29,0,0,1,0-.21C347.73,537.63,348.05,537.62,348.3,537.64Z" transform="translate(-0.05 -488.9)"/><path class="cls-122" d="M367.13,550.49l-.06,1.52a4.32,4.32,0,0,0-1-1.92,5.06,5.06,0,0,0-1.22-.83,4.67,4.67,0,0,0-1.69-.76,2.68,2.68,0,0,0-1.47.24.32.32,0,0,1-.28,0,2.67,2.67,0,0,0-1.47-.24,4.64,4.64,0,0,0-1.68.76,5,5,0,0,0-1.23.83,4.32,4.32,0,0,0-1,1.92c0-.51,0-1-.05-1.52.1-1.1.6-1.31.6-1.31l2.72-1.7a1.3,1.3,0,0,1,.68-.27,1.17,1.17,0,0,1,.54.09,1.67,1.67,0,0,1,.54.3.91.91,0,0,0,.47.3.84.84,0,0,0,.47-.3,1.79,1.79,0,0,1,.54-.3,1.19,1.19,0,0,1,.55-.09,1.33,1.33,0,0,1,.68.27l2.72,1.7S367,549.39,367.13,550.49Z" transform="translate(-0.05 -488.9)"/><path d="M371.56,581.81a8.12,8.12,0,0,1,7.19,3.57c.2.31.74-.44.69-.68l-1.78-8.42-.25-1.2c-.07-.32-.66.39-.68.52L375,584l-.24,1.21c-.1.52.62-.09.68-.36l1.68-8.41.24-1.22-.68.52,1.78,8.43.25,1.2.69-.68a8.29,8.29,0,0,0-7.36-3.71.78.78,0,0,0-.5.39c0,.06-.22.45,0,.43Z" transform="translate(-0.05 -488.9)"/></svg>